<?xml version="1.0" encoding="utf-8"?><svg viewBox="0 0 48 48" xmlns="http://www.w3.org/2000/svg" xmlns:xlink="http://www.w3.org/1999/xlink"><style>:root>svg{display:none}:root>svg:target{display:block}</style><svg viewBox="0 0 24 24" id="add" xmlns="http://www.w3.org/2000/svg"><path d="M17.143 10.286c.473 0 .857.383.857.857v3.428h3.429a.857.857 0 010 1.715H18v3.428a.857.857 0 01-1.714 0v-3.428h-3.429a.857.857 0 010-1.715h3.429v-3.428c0-.474.383-.857.857-.857zm-9 4.285a.857.857 0 010 1.715H3.857a.857.857 0 010-1.715h4.286zm4.286-5.142a.857.857 0 110 1.714H3.857a.857.857 0 110-1.714h8.572zm6-5.143a.857.857 0 110 1.714H3.857a.857.857 0 010-1.714H18.43z"/></svg><svg viewBox="0 0 11 7" id="arrow" xmlns="http://www.w3.org/2000/svg"><path fill-rule="evenodd" clip-rule="evenodd" d="M10.781 1.725L6.028 6.29a.769.769 0 01-1.056 0L.219 1.725a.697.697 0 010-1.015.769.769 0 011.056 0L5.5 4.768 9.725.71a.769.769 0 011.056 0 .697.697 0 010 1.015z"/></svg><svg viewBox="0 0 20 21" id="authorize" xmlns="http://www.w3.org/2000/svg"><path d="M7.322 11.214c3.536 0 6.607 1.26 6.607 4.03 0 1.441-.558 2.042-1.755 2.042H2.47c-1.197 0-1.755-.6-1.755-2.041 0-2.772 3.071-4.03 6.608-4.03zm0 1.429c-2.82 0-5.18.967-5.18 2.602 0 .636-.05.617.267.613h9.765c.383 0 .326.06.326-.613 0-1.634-2.36-2.602-5.178-2.602zm8.602-6.934a.714.714 0 011.01 0l2.857 2.857a.714.714 0 010 1.01l-2.857 2.858a.714.714 0 11-1.01-1.01l1.637-1.638h-4.347a.714.714 0 01-.71-.631L12.5 9.07c0-.394.32-.714.714-.714h4.347L15.924 6.72a.714.714 0 01-.06-.942l.06-.068zM7.143 2.643a3.928 3.928 0 013.929 3.928 3.928 3.928 0 01-3.93 3.929 3.928 3.928 0 01-3.928-3.929 3.928 3.928 0 013.929-3.928zm0 1.428a2.5 2.5 0 100 5 2.5 2.5 0 100-5z"/></svg><svg viewBox="0 0 16 15" id="dislike" xmlns="http://www.w3.org/2000/svg"><path fill-rule="evenodd" clip-rule="evenodd" d="M7.767 14.789a.56.56 0 01-.3-.522c0-.637-.199-1.754-.45-2.522-.456-1.398-1.02-2.046-2.35-2.704l-.4-.198V.9L4.81.725C5.523.494 5.932.382 6.433.28c1-.202 1.45-.228 3.862-.228 2.268 0 2.325.004 2.723.214.206.109.506.38.638.576.19.283.265.825.165 1.205l-.048.182.128.042c.439.142.835.567.978 1.048.07.235.073.633.007.849l-.05.16.232.1c.334.145.62.418.781.751.114.235.131.305.146.606.02.4-.057.687-.26.967-.066.093-.11.186-.098.207.012.02.06.086.104.145.045.06.124.217.175.352.082.215.092.283.08.578-.012.284-.03.368-.124.562-.204.424-.561.729-1.04.888-.23.076-.278.077-2.465.09l-2.231.011.066.13c.228.45.444 1.801.447 2.803.001.46-.01.597-.065.756-.25.723-.767 1.242-1.46 1.464-.23.074-.378.095-.75.107-.416.014-.476.009-.607-.057zM.405 9.549a.555.555 0 01-.339-.238C.003 9.217 0 9.034 0 4.813v-4.4L.08.295C.245.053.267.05 1.625.06c1.165.01 1.22.012 1.314.082.054.04.131.116.171.17.073.096.074.115.083 4.446l.01 4.35-.081.157c-.152.296-.165.299-1.467.306-.626.003-1.188-.006-1.249-.021z"/></svg><svg data-name="Layer 1" viewBox="0 0 48 48" id="show-podbor" xmlns="http://www.w3.org/2000/svg"><path d="M47 12a2 2 0 00-2-2H24a2 2 0 000 4h21a2 2 0 002-2zM3 14h5.35a6 6 0 100-4H3a2 2 0 000 4zm11-4a2 2 0 11-2 2 2 2 0 012-2zM45 22h-7.35a6 6 0 100 4H45a2 2 0 000-4zm-13 4a2 2 0 112-2 2 2 0 01-2 2zM22 22H3a2 2 0 000 4h19a2 2 0 000-4zM45 34H28a2 2 0 000 4h17a2 2 0 000-4zM18 30a6 6 0 00-5.65 4H3a2 2 0 000 4h9.35A6 6 0 1018 30zm0 8a2 2 0 112-2 2 2 0 01-2 2z"/></svg></svg>