<?xml version="1.0" encoding="utf-8"?><svg viewBox="0 0 63 63" xmlns="http://www.w3.org/2000/svg" xmlns:xlink="http://www.w3.org/1999/xlink"><style>:root>svg{display:none}:root>svg:target{display:block}</style><svg fill="none" viewBox="0 0 33 34" id="accordion" xmlns="http://www.w3.org/2000/svg"><rect x=".5" y=".573" width="32" height="32" rx="5.5" fill="#F1F4F8"/><path fill-rule="evenodd" clip-rule="evenodd" d="M20.821 15.39l-3.889 3.043a.736.736 0 01-.864 0l-3.889-3.043c-.239-.187-.239-.49 0-.676a.736.736 0 01.864 0l3.457 2.705 3.457-2.705a.736.736 0 01.864 0c.239.186.239.49 0 .676z" fill="#004EB7"/><rect x=".5" y=".573" width="32" height="32" rx="5.5" stroke="#CBDBEE"/></svg><svg fill="none" viewBox="0 0 38 38" id="app" xmlns="http://www.w3.org/2000/svg"><circle cx="19" cy="19" r="19" fill="#5CB85C"/><path fill-rule="evenodd" clip-rule="evenodd" d="M13.368 6.038c-.515.13-.977.533-1.218 1.064l-.15.331v23.142l.15.331c.19.42.491.737.891.937l.315.157h11.288l.315-.157c.4-.2.7-.516.891-.937l.15-.33V7.434l-.15-.332a1.891 1.891 0 00-.892-.936l-.314-.157L19.097 6c-3.128-.005-5.626.012-5.729.037zm8.346 1.193c.034.043.072.186.084.318.017.192 0 .268-.084.38l-.105.14h-2.583c-2.47 0-2.588-.004-2.697-.097-.095-.081-.114-.145-.114-.374 0-.481-.23-.445 2.785-.445 2.324 0 2.66.01 2.714.078zm2.954 10.375v8.418H13.332V9.188h11.336v8.418zm-5.144 10.28c.555.29.774 1.006.49 1.6a1.117 1.117 0 01-2.028 0c-.385-.804.16-1.733 1.014-1.733.195 0 .343.037.524.132z" fill="#fff"/></svg><svg fill="none" viewBox="0 0 11 7" id="arrow" xmlns="http://www.w3.org/2000/svg"><path fill-rule="evenodd" clip-rule="evenodd" d="M10.781 1.725L6.028 6.29a.769.769 0 01-1.056 0L.219 1.725a.697.697 0 010-1.015.769.769 0 011.056 0L5.5 4.768 9.725.71a.769.769 0 011.056 0 .697.697 0 010 1.015z" fill="#777"/></svg><svg fill="none" viewBox="0 0 30 23" id="bank-card" xmlns="http://www.w3.org/2000/svg"><g filter="url(#adfilter0_d_376_419)"><path fill-rule="evenodd" clip-rule="evenodd" d="M5.2.027c-.439.106-.854.46-1.064.905L4 1.222v12.54l.118.254c.213.459.54.761.974.897.27.085.413.087 9.905.087 10.674 0 9.868.022 10.314-.284.26-.178.42-.375.574-.705l.115-.248V1.223L25.867.94a1.763 1.763 0 00-.782-.81l-.247-.123-9.752-.006C9.723-.003 5.274.009 5.2.027zm18.47 2.796a.575.575 0 01.215.162c.143.207.053.58-.166.68-.083.039-.817.052-2.84.052h-2.727l-.134-.125a.47.47 0 01.141-.767c.201-.088 5.303-.09 5.512-.002zM9.629 4.583c.198.158.21.254.197 1.488-.013 1.154-.013 1.154-.117 1.266a.66.66 0 01-.259.155c-.206.058-2.86.057-3.068-.001a.554.554 0 01-.248-.158c-.084-.107-.088-.168-.086-1.31.001-1.28.011-1.348.218-1.464.08-.045.454-.058 1.68-.059 1.503-.001 1.58.002 1.683.084zM8.861 9.81c.194.081.284.224.284.451 0 .151-.025.215-.126.316l-.126.127-1.284-.001c-1.152-.001-1.294-.009-1.376-.076-.289-.236-.243-.671.087-.816.196-.086 2.337-.087 2.54-.001zm4.262 0c.338.142.39.578.096.817-.082.067-.224.075-1.376.076H10.56l-.126-.126a.47.47 0 01.146-.765c.2-.087 2.338-.09 2.544-.002zm4.265 0c.166.07.281.26.281.462 0 .098-.042.179-.146.284l-.146.148h-1.265c-1.39 0-1.387 0-1.525-.269a.434.434 0 01-.042-.271c.028-.15.209-.35.347-.384.048-.011.596-.023 1.218-.026.89-.004 1.163.008 1.278.057zm4.317.025c.257.172.282.56.05.758l-.131.11h-2.527l-.131-.11a.467.467 0 01.097-.776c.192-.098 2.493-.081 2.643.018zm-7.146 2.127c.256.17.281.56.049.757l-.131.111H6.31l-.133-.133a.465.465 0 01.143-.76c.209-.092 8.099-.069 8.239.025z" fill="#fff"/></g><defs><filter id="adfilter0_d_376_419" x="0" y="0" width="30" height="23" filterUnits="userSpaceOnUse" color-interpolation-filters="sRGB"><feFlood flood-opacity="0" result="BackgroundImageFix"/><feColorMatrix in="SourceAlpha" values="0 0 0 0 0 0 0 0 0 0 0 0 0 0 0 0 0 0 127 0" result="hardAlpha"/><feOffset dy="4"/><feGaussianBlur stdDeviation="2"/><feComposite in2="hardAlpha" operator="out"/><feColorMatrix values="0 0 0 0 0 0 0 0 0 0 0 0 0 0 0 0 0 0 0.12 0"/><feBlend in2="BackgroundImageFix" result="effect1_dropShadow_376_419"/><feBlend in="SourceGraphic" in2="effect1_dropShadow_376_419" result="shape"/></filter></defs></svg><svg fill="none" viewBox="0 0 38 38" id="card-bank" xmlns="http://www.w3.org/2000/svg"><circle cx="19" cy="19" r="19" fill="#004EB7"/><g filter="url(#aefilter0_d_701_223)"><path fill-rule="evenodd" clip-rule="evenodd" d="M9.2 12.027c-.439.106-.854.46-1.064.905l-.136.29v12.54l.118.254c.213.459.54.761.974.897.27.085.413.087 9.905.087 10.674 0 9.868.022 10.314-.284.26-.178.42-.375.574-.705l.115-.248v-12.54l-.133-.283a1.764 1.764 0 00-.782-.81l-.247-.123-9.752-.006c-5.363-.004-9.812.008-9.886.026zm18.47 2.796a.574.574 0 01.215.162c.143.207.053.58-.166.68-.083.039-.817.052-2.84.052h-2.727l-.134-.126a.47.47 0 01.141-.766c.201-.088 5.303-.09 5.512-.002zm-14.042 1.76c.198.158.21.254.197 1.488-.013 1.154-.013 1.154-.117 1.266a.66.66 0 01-.259.155c-.206.058-2.86.057-3.068-.001a.553.553 0 01-.248-.158c-.084-.107-.088-.168-.086-1.31.001-1.28.011-1.349.218-1.464.08-.045.454-.058 1.68-.059 1.503-.001 1.58.002 1.683.084zm-.767 5.227c.194.081.284.224.284.451 0 .151-.025.215-.126.316l-.126.127-1.284-.001c-1.152-.001-1.294-.009-1.376-.076-.289-.236-.243-.671.087-.816.196-.086 2.337-.087 2.54-.001zm4.262 0c.338.142.39.578.096.817-.082.067-.224.075-1.376.076H14.56l-.126-.126a.47.47 0 01.146-.765c.2-.087 2.338-.09 2.544-.002zm4.265 0c.166.07.281.26.281.462 0 .098-.042.179-.146.284l-.146.148h-1.265c-1.39 0-1.387 0-1.525-.268a.434.434 0 01-.042-.272c.028-.15.209-.35.347-.384.048-.011.596-.023 1.218-.026.89-.004 1.163.008 1.278.057zm4.317.026c.257.17.282.56.05.757l-.131.11h-2.527l-.131-.11a.467.467 0 01.097-.776c.192-.098 2.493-.082 2.643.018zm-7.146 2.126c.256.17.281.56.049.757l-.131.111H10.31l-.133-.133a.465.465 0 01.143-.76c.209-.092 8.099-.069 8.239.025z" fill="#fff"/></g><defs><filter id="aefilter0_d_701_223" x="4" y="12" width="30" height="23" filterUnits="userSpaceOnUse" color-interpolation-filters="sRGB"><feFlood flood-opacity="0" result="BackgroundImageFix"/><feColorMatrix in="SourceAlpha" values="0 0 0 0 0 0 0 0 0 0 0 0 0 0 0 0 0 0 127 0" result="hardAlpha"/><feOffset dy="4"/><feGaussianBlur stdDeviation="2"/><feComposite in2="hardAlpha" operator="out"/><feColorMatrix values="0 0 0 0 0 0 0 0 0 0 0 0 0 0 0 0 0 0 0.12 0"/><feBlend in2="BackgroundImageFix" result="effect1_dropShadow_701_223"/><feBlend in="SourceGraphic" in2="effect1_dropShadow_701_223" result="shape"/></filter></defs></svg><svg fill="none" viewBox="0 0 60 60" id="compare" xmlns="http://www.w3.org/2000/svg"><path d="M7.442 20.323h4.468l.692 3.113 1.89-.42-1.515-6.82a3.36 3.36 0 00-3.3-2.648 3.36 3.36 0 00-3.3 2.647l-1.516 6.82 1.89.42.691-3.112zm.825-3.709a1.435 1.435 0 011.41-1.13c.682 0 1.263.464 1.41 1.131l.394 1.772H7.873l.394-1.773z" fill="#004EB7"/><path d="M60 9.677C60 4.341 55.659 0 50.323 0c-5.337 0-9.678 4.341-9.678 9.677a9.62 9.62 0 001.948 5.807h-1.948v2.903c0 1.6 1.303 2.903 2.903 2.903h5.807v1.375c0 .45-.306.837-.744.941l-36.775 8.756a.964.964 0 01-1.19-.941v-.453h5.805c1.601 0 2.904-1.303 2.904-2.904v-2.903h-1.948a9.623 9.623 0 001.948-5.806c0-5.336-4.341-9.677-9.678-9.677C4.341 9.678 0 14.018 0 19.355a9.62 9.62 0 001.948 5.806H0v2.903c0 1.601 1.303 2.904 2.903 2.904H8.71v.453c0 .894.402 1.724 1.104 2.278a2.886 2.886 0 002.472.546l15.709-3.74c-.03.094-.06.19-.076.29L23.051 60h13.898L32.08 30.796a2.094 2.094 0 00-.579-1.127l17.557-4.18a2.891 2.891 0 002.231-2.824V21.29h5.807c1.6 0 2.903-1.303 2.903-2.904v-2.903h-1.948A9.622 9.622 0 0060 9.677zM1.936 19.355c0-4.269 3.473-7.742 7.741-7.742 4.27 0 7.742 3.473 7.742 7.742a7.704 7.704 0 01-2.626 5.806H4.563a7.704 7.704 0 01-2.627-5.806zm.967 9.677a.969.969 0 01-.967-.968v-.967H17.419v.967a.969.969 0 01-.967.968H2.903zm31.76 29.032h-9.327l4.492-26.951c.028-.169.315-.169.343 0l4.493 26.951zm7.918-48.387c0-4.268 3.473-7.741 7.741-7.741 4.27 0 7.742 3.473 7.742 7.741a7.703 7.703 0 01-2.626 5.807H45.207a7.704 7.704 0 01-2.626-5.807zm15.483 7.742v.968a.969.969 0 01-.967.968H43.548a.969.969 0 01-.967-.968v-.968H58.064z" fill="#004EB7"/><path d="M54.193 10.645a2.89 2.89 0 00-.741-1.935 2.89 2.89 0 00.741-1.936c0-1.6-1.302-2.903-2.903-2.903h-4.839v9.678h4.839c1.6 0 2.903-1.303 2.903-2.904zm-5.806-4.839h2.903a.969.969 0 010 1.936h-2.903V5.806zm0 3.871h2.903a.969.969 0 010 1.936h-2.903V9.677z" fill="#004EB7"/></svg><svg fill="none" viewBox="0 0 38 38" id="cyberplat" xmlns="http://www.w3.org/2000/svg"><circle cx="19" cy="19" r="19" fill="#0155A3"/><g filter="url(#agfilter0_d_701_225)" fill="#fff"><path d="M11.207 21.696c-.224.16-.402.252-.602.286-.327.058-.55-.108-.55-.44 0-.482.155-.94.252-1.405.235-1.117.481-2.23.705-3.352.057-.281.132-.425.464-.396.481.04.481.012.378.493-.298 1.375-.59 2.75-.877 4.132-.023.12-.12.31.104.35.217.04.24-.15.269-.293.315-1.461.625-2.923.923-4.384.046-.212.109-.298.344-.292.572.017.578.006.458.556l-1.255 5.891c-.155.728-.441.951-1.186.951h-.258c-.642 0-.906-.435-.62-1.026.035-.068.07-.08.127-.08h.286c.407 0 .413 0 .379.384-.012.11-.012.195.12.207.115.011.212-.012.24-.144.012-.057.03-.109.04-.166.081-.413.167-.82.259-1.272zM9.573 15.02c.184 0 .361-.012.545 0 .36.023.527.194.504.55-.034.533-.206 1.043-.298 1.57-.017.103-.092.109-.166.109-.27 0-.62.097-.78-.034-.166-.144.046-.476.086-.728.023-.16.058-.315.098-.476.034-.137.069-.286-.115-.327-.183-.045-.28.086-.32.247-.08.344-.15.688-.224 1.031-.281 1.33-.568 2.66-.848 3.995-.029.126-.115.31.097.355.195.046.298-.097.332-.27.098-.435.195-.87.281-1.312.023-.137.063-.2.212-.195.264.018.608-.08.774.052.126.103-.063.464-.109.716-.057.281-.115.562-.178.837-.126.545-.447.825-.997.854-.326.017-.647.012-.974 0-.367-.017-.499-.155-.493-.521.012-.642.218-1.255.344-1.88.24-1.192.499-2.384.756-3.576.167-.785.436-1.003 1.238-1.003.086 0 .16 0 .235.006zM23.316 15.014h.688c.499.006.694.2.62.688-.075.504-.196 1.008-.299 1.512-.092.459-.183.912-.292 1.364-.16.67-.464.912-1.146.912-.075 0-.155.011-.23 0-.2-.03-.275.051-.315.252-.132.682-.292 1.358-.43 2.04-.034.166-.091.223-.258.218a5.253 5.253 0 00-.601 0c-.166.005-.184-.046-.155-.2.47-2.196.94-4.385 1.404-6.586.029-.149.086-.212.24-.2.259.011.516 0 .774 0zm-.779 3.834c.304.017.459-.104.516-.373.109-.533.229-1.06.344-1.587.068-.31.137-.613.195-.923.034-.172-.058-.27-.224-.304-.178-.034-.178.092-.2.207-.207.985-.419 1.971-.631 2.98zM15.018 15.014c-.115.527-.218 1.026-.332 1.553.183-.075.344-.155.51-.195.458-.12.705.069.63.527-.109.676-.263 1.341-.407 2.012-.166.78-.338 1.558-.51 2.344-.051.246-.143.475-.344.642-.235.194-.515.206-.796.034-.092-.052-.195-.212-.258.034-.006.035-.75.046-.785.018-.092-.064-.017-.138-.006-.201.315-1.502.63-2.997.951-4.493.144-.688.298-1.376.436-2.063.034-.16.092-.224.264-.212.212.017.424 0 .647 0zm-.109 2.28c.029-.234-.08-.246-.206-.211-.126.034-.166.143-.19.258-.085.418-.177.836-.263 1.255-.172.819-.35 1.639-.521 2.458-.023.103-.058.218.086.264.149.045.235-.035.28-.172.012-.035.012-.075.018-.115l.464-2.206c.12-.527.235-1.055.332-1.53zM17.454 19.484c-.625 0-.625 0-.757.619-.069.326-.143.647-.212.974-.023.109-.091.246.069.286.172.046.264-.068.298-.229.063-.286.132-.573.178-.865.034-.195.114-.258.32-.252.59.011.596.005.47.584-.063.298-.097.602-.229.883-.12.258-.31.43-.596.475a4.034 4.034 0 01-1.083.012c-.223-.023-.327-.16-.332-.39-.012-.481.143-.94.235-1.404.206-.986.412-1.971.63-2.957.126-.567.453-.82 1.037-.82.184 0 .367-.011.545.018.378.057.596.338.527.71-.143.74-.304 1.473-.458 2.207-.023.103-.07.166-.19.154-.143-.011-.298-.005-.452-.005zm-.298-.573c.154.034.195-.058.223-.184l.293-1.398c.022-.115.097-.258-.087-.298-.166-.034-.24.069-.269.218-.103.492-.212.985-.326 1.478-.046.155.011.212.166.184zM26.657 21.782c-.24.149-.458.27-.71.275-.293.006-.436-.115-.43-.407.011-.567.223-1.1.298-1.656.074-.596.407-.974.945-1.175.447-.166.7-.464.751-.946.023-.189.08-.372.115-.555.017-.104.074-.247-.086-.287-.143-.034-.235.069-.27.2a4.914 4.914 0 00-.137.642c-.023.178-.092.235-.27.235-.63 0-.63.006-.492-.619.212-.974.35-1.083 1.34-1.083.087 0 .173-.005.259 0 .412.029.647.316.561.722-.332 1.565-.67 3.124-.997 4.688-.034.167-.109.2-.252.19-.143-.006-.287-.012-.43 0-.155.01-.218-.058-.195-.224zm.596-2.716c-.275.097-.435.24-.487.504-.097.493-.212.98-.32 1.473-.024.108-.064.24.102.275.138.028.23-.052.258-.172.15-.682.293-1.364.447-2.08zM30.72 15.014c-.08.4-.137.78-.246 1.14-.068.24.03.258.212.24.07-.005.132-.005.201 0 .034 0 .103.007.103.024.04.166-.046.315-.069.47-.017.109-.08.126-.177.131-.453.03-.459.03-.55.47a711.8 711.8 0 00-.717 3.376c-.091.436-.074.453.482.527 0 .017.011.04.005.052-.068.177-.005.487-.189.521-.338.058-.71.098-1.031-.097-.195-.12-.23-.333-.195-.533.091-.516.195-1.026.298-1.542.177-.848.355-1.696.544-2.538.04-.184.018-.27-.189-.241-.16.023-.218-.023-.178-.2.058-.247.075-.5.442-.425.149.029.132-.114.149-.195.074-.326.143-.653.2-.98.029-.149.086-.229.264-.212.212.029.418.012.642.012zM19.843 16.395c.131.063.36-.12.418.166.034-.011.074-.017.109-.034.046-.018.086-.046.126-.063.252-.104.521-.224.756-.035.235.184.126.453.08.694-.068.332-.148.67-.211 1.003-.023.137-.07.189-.218.194-.67.023-.67.03-.55-.624l.068-.367c.023-.109.058-.218-.091-.252-.132-.029-.224.046-.264.166-.046.155-.074.315-.109.47-.286 1.358-.579 2.716-.86 4.075-.034.177-.108.206-.263.206-.63.006-.63.011-.499-.613.333-1.582.677-3.164.992-4.745.08-.35.315-.201.516-.241zM26.21 15.014c-.339 1.599-.677 3.169-1.01 4.74-.142.658-.291 1.317-.418 1.982-.04.2-.103.264-.309.264-.613-.012-.607 0-.481-.585.435-2.017.87-4.034 1.283-6.057.058-.287.16-.379.436-.344.155.017.315 0 .498 0z"/></g><defs><filter id="agfilter0_d_701_225" x="3" y="15" width="32.001" height="16.794" filterUnits="userSpaceOnUse" color-interpolation-filters="sRGB"><feFlood flood-opacity="0" result="BackgroundImageFix"/><feColorMatrix in="SourceAlpha" values="0 0 0 0 0 0 0 0 0 0 0 0 0 0 0 0 0 0 127 0" result="hardAlpha"/><feOffset dy="4"/><feGaussianBlur stdDeviation="2"/><feComposite in2="hardAlpha" operator="out"/><feColorMatrix values="0 0 0 0 0 0 0 0 0 0 0 0 0 0 0 0 0 0 0.12 0"/><feBlend in2="BackgroundImageFix" result="effect1_dropShadow_701_225"/><feBlend in="SourceGraphic" in2="effect1_dropShadow_701_225" result="shape"/></filter></defs></svg><svg fill="none" viewBox="0 0 38 38" id="elecsnet" xmlns="http://www.w3.org/2000/svg"><path d="M4.35 31.056C2.27 28.653 1.04 25.833.365 22.75c-.052-.226 0-.47-.19-.644a.691.691 0 00-.07-.052c-.035.035-.07.087-.104.122v-2.263c.797-.174 1.612-.192 2.41-.174.086.661.155 1.305.277 1.967.554 3.395 2.114 6.302 4.402 8.827-.19.417-.555.33-.884.33-.624.035-1.248 0-1.854.192z" fill="#FA8F00"/><path d="M2.41 19.757c-.815-.017-1.613 0-2.41.174v-4.178c.433.052.312-.313.364-.522.485-2.107 1.161-4.161 2.375-5.972.242.418.64.4 1.04.418.468.018.97-.104 1.42.157-1.923 3.029-2.807 6.337-2.79 9.923z" fill="#FA9600"/><path d="M5.183 9.834c-.45-.261-.936-.14-1.421-.157-.399-.017-.798 0-1.04-.418C5.322 4.82 9.117 1.895 14.04.676c6.95-1.723 13.19-.174 18.39 4.892.763.749 1.543 1.55 2.063 2.507-.936.192-1.89.21-2.86.21-.139-.14-.295-.262-.433-.419-4.49-4.944-11.51-6.72-17.767-4.456-3.431 1.236-6.118 3.447-8.25 6.424z" fill="#FA9A00"/><path d="M4.35 31.056c.606-.209 1.23-.157 1.854-.174.33 0 .71.087.884-.33.19.173.399.33.59.504 4.42 4.004 9.55 5.345 15.356 4.004 2.67-.609 4.94-1.984 7.038-3.69 1.04.348 2.097.156 3.154.191-2.652 3.116-5.997 5.118-9.984 5.954-7.383 1.532-13.64-.574-18.72-6.18-.068-.07-.12-.174-.172-.279z" fill="#F98900"/><path d="M31.667 8.284c.953.018 1.907-.017 2.86-.209 1.837 2.438 2.773 5.223 3.241 8.2h-2.41c-.554-2.977-1.82-5.623-3.691-7.99z" fill="#FA9700"/><path d="M33.227 31.578c-1.057-.035-2.115.14-3.155-.191 2.132-2.055 3.727-4.475 4.732-7.278.78.331 1.612.122 2.427.174-.71 2.769-2.08 5.188-4.004 7.295z" fill="#F98E00"/><path d="M37.231 24.284c-.814-.052-1.629.139-2.426-.174.693-2.577.936-5.171.554-7.835h2.41c.277 1.602.312 3.186.069 4.805-.173 1.08-.208 2.177-.607 3.204z" fill="#F99200"/><path d="M5.356 20.802c-.503-3.134.138-6.041 1.698-8.757a13.769 13.769 0 0114.438-6.668A13.907 13.907 0 0132.69 16.833c.26 1.636.26 1.636-1.335 1.636-4.853 0-9.69.017-14.542-.018-.832 0-1.248.14-1.092 1.063.069.417-.018.87-.018 1.305-3.466-.017-6.898-.017-10.347-.017zM21.216 9.12c-1.162.017-2.046.958-2.029 2.141.017 1.097.988 2.055 2.063 2.037 1.092-.017 2.028-.975 2.028-2.071.017-1.184-.902-2.124-2.063-2.107z" fill="#FD9700"/><path d="M5.355 20.802h10.348c.139.505.555.313.867.313 5.044.018 10.105 0 15.149 0 1.04 0 1.04 0 .832.958-1.474 6.424-7.315 11.02-14.161 10.776-6.17-.226-11.839-5.031-12.965-11.281-.07-.244-.052-.505-.07-.766z" fill="#FB8F00"/></svg><svg fill="none" viewBox="0 0 60 60" id="experts" xmlns="http://www.w3.org/2000/svg"><path d="M36.972 23.571a4.821 4.821 0 014.822 4.822v13.39c0 6.51-5.278 11.788-11.788 11.788-6.51 0-11.788-5.277-11.788-11.788v-13.39a4.821 4.821 0 014.821-4.822h13.933zm0 3.215H23.04c-.887 0-1.607.72-1.607 1.607v13.39a8.574 8.574 0 0017.148 0v-13.39c0-.888-.72-1.607-1.608-1.607zM9.107 23.57h8.906a6.95 6.95 0 00-1.752 3.215H9.107c-.888 0-1.608.72-1.608 1.607V39.64a6.431 6.431 0 009.082 5.862 13.634 13.634 0 001.208 2.982 9.624 9.624 0 01-3.858.802 9.645 9.645 0 01-9.646-9.646V28.393a4.821 4.821 0 014.822-4.822zm41.785 0a4.821 4.821 0 014.822 4.822v11.25a9.643 9.643 0 01-9.643 9.643 9.612 9.612 0 01-3.852-.8l.12-.217a13.84 13.84 0 001.095-2.763 6.428 6.428 0 009.066-5.863v-11.25c0-.888-.72-1.607-1.608-1.607H43.75a6.951 6.951 0 00-1.752-3.214h8.894zM30 6.428a7.5 7.5 0 110 15 7.5 7.5 0 010-15zm17.15 2.143a6.429 6.429 0 110 12.858 6.429 6.429 0 010-12.858zm-34.299 0a6.429 6.429 0 110 12.858 6.429 6.429 0 010-12.858zM30 9.643a4.286 4.286 0 100 8.571 4.286 4.286 0 000-8.571zm17.149 2.143a3.214 3.214 0 100 6.428 3.214 3.214 0 000-6.428zm-34.299 0a3.214 3.214 0 100 6.428 3.214 3.214 0 000-6.428z" fill="#004EB7"/></svg><svg fill="none" viewBox="0 0 18 19" id="eye" xmlns="http://www.w3.org/2000/svg"><path d="M9 4.709c3.853 0 7.393 2.93 7.393 5.143 0 2.213-3.54 5.143-7.393 5.143-3.853 0-7.393-2.93-7.393-5.143 0-2.214 3.54-5.143 7.393-5.143zm0 1.286c-3.191 0-6.107 2.413-6.107 3.857 0 1.444 2.916 3.857 6.107 3.857 3.191 0 6.107-2.413 6.107-3.857 0-1.444-2.916-3.857-6.107-3.857zM9 7.28a2.571 2.571 0 110 5.143A2.571 2.571 0 019 7.28zm0 1.286a1.286 1.286 0 100 2.572 1.286 1.286 0 000-2.572z" fill="#004EB7"/></svg><svg fill="none" viewBox="0 0 7 14" id="fc" xmlns="http://www.w3.org/2000/svg"><path fill-rule="evenodd" clip-rule="evenodd" d="M5.992 2.943l.312-1.98c-.8-.055-1.602-.049-2.4.018a2.25 2.25 0 00-1.427.784A2.457 2.457 0 002 3.365v2.592l-2-.015v2.007l2 .007v6l2.013-.005v-6h2.374l.31-2.007H4.013v-2.51a.562.562 0 01.671-.486c.442-.006 1.308-.005 1.308-.005z" fill="#fff"/></svg><svg fill="none" viewBox="0 0 28 33" id="finews" xmlns="http://www.w3.org/2000/svg"><path d="M.234 25.669l21.162 6.621L28 7.117 6.837.495.234 25.67z" fill="#E6E9EE"/><path d="M25 3H3v26h22V3z" fill="#fff"/><path d="M9.97 10.076h-.875L7.513 7.44a3.14 3.14 0 01-.195-.348H7.31c.018.145.018.377.018.676v2.308h-.813v-4.19h.928l1.52 2.549c.072.115.133.231.195.338h.01c-.019-.097-.019-.29-.019-.58V5.876h.814v4.2h.009zM13.152 10.076h-2.298v-4.19h2.21v.772H11.71v.936h1.256v.763H11.71v.956h1.441v.763zM18.795 5.885l-1.017 4.191h-.955l-.636-2.694a2.537 2.537 0 01-.062-.473h-.01a2.762 2.762 0 01-.07.473l-.654 2.694h-1.008l-1.008-4.19h.946l.54 2.79c.026.116.044.28.052.483h.018c.009-.155.036-.319.08-.493l.698-2.78h.928l.628 2.819c.027.106.044.251.062.454h.009c.009-.155.027-.31.053-.464l.53-2.8h.876v-.01zM19.104 9.922v-.937c.159.145.327.251.504.319.185.067.362.106.548.106.106 0 .203-.01.283-.03.08-.018.15-.047.203-.086a.433.433 0 00.124-.135.347.347 0 00.044-.164.4.4 0 00-.062-.222.539.539 0 00-.177-.174 1.2 1.2 0 00-.265-.155c-.106-.048-.212-.106-.327-.154-.3-.135-.522-.3-.672-.502-.15-.194-.221-.435-.221-.715a1.2 1.2 0 01.124-.56c.08-.155.185-.29.327-.386.141-.097.3-.174.477-.222a2.24 2.24 0 01.575-.068c.203 0 .38.01.53.039.15.029.301.067.425.125v.879a1.171 1.171 0 00-.212-.126 2.329 2.329 0 00-.23-.096c-.08-.03-.16-.039-.239-.058-.08-.01-.16-.02-.23-.02-.097 0-.185.01-.265.03a.582.582 0 00-.203.086.463.463 0 00-.133.136.372.372 0 00.009.367c.035.058.08.106.141.154.062.048.142.097.23.145.089.048.195.096.3.145.151.067.293.145.416.222a1.3 1.3 0 01.319.27c.088.097.15.213.203.338.044.126.07.28.07.444 0 .232-.043.435-.123.59a1.11 1.11 0 01-.327.386 1.34 1.34 0 01-.486.212 2.856 2.856 0 01-1.185.01 2.32 2.32 0 01-.495-.193zM22.269 12.577H5.965v1.082h16.304v-1.082zM22.269 15.85H5.965v1.082h16.304v-1.081zM14.647 19.124H5.965v1.081h8.682v-1.081zM14.647 22.388H5.965v1.081h8.682v-1.081zM14.647 25.661H5.965v1.082h8.682V25.66z" fill="#324A5E"/><path d="M22 19h-6v8h6v-8z" fill="#FFD05B"/></svg><svg fill="none" viewBox="0 0 22 16" id="get" xmlns="http://www.w3.org/2000/svg"><path d="M4.667 5.872a1.098 1.098 0 010 2.193 1.098 1.098 0 010-2.193zm16.25 5.99h-5.078a.429.429 0 00-.43.428v.686c0 .235.19.43.43.43h5.078c.234 0 .428-.19.428-.43v-.686a.432.432 0 00-.428-.428zm-.727 2.098h-5.078a.429.429 0 00-.429.43v.685c0 .235.19.43.429.43h5.078c.235 0 .429-.19.429-.43v-.686a.431.431 0 00-.429-.429zm1.381-6.292h-5.078a.429.429 0 00-.429.429v.686c0 .235.19.429.43.429h5.077c.235 0 .429-.19.429-.429v-.686a.432.432 0 00-.429-.429zm-6.888 2.523v.686c0 .235.19.43.429.43h5.078c.235 0 .429-.19.429-.43v-.686a.429.429 0 00-.429-.428h-5.078a.435.435 0 00-.429.428zm6.495-3.078c.235 0 .43-.19.43-.429v-.686a.429.429 0 00-.43-.429h-5.073a.429.429 0 00-.429.43v.685c0 .235.19.429.429.429h5.073zm-6.26 5.945v-.849a.348.348 0 00-.348-.348H3.661c.05-.27.045-.564-.05-.866a1.87 1.87 0 00-.957-1.106 1.709 1.709 0 00-1.11-.163V4.18c.41.072.866.023 1.345-.302A1.799 1.799 0 003.66 2.04h13.415A1.833 1.833 0 0019.3 4.256v.429c0 .194.158.352.352.352h.84a.353.353 0 00.352-.352V2.3c0-.997-.808-1.805-1.806-1.805H1.805C.808.496 0 1.304 0 2.3v9.29c0 .997.808 1.805 1.806 1.805H14.57a.332.332 0 00.348-.338zM10.418 3a3.959 3.959 0 013.954 3.954 3.959 3.959 0 01-3.954 3.954 3.959 3.959 0 01-3.954-3.954 3.959 3.959 0 013.954-3.954zm1.26 2.302l-1.77 1.76-.74-.744-.772.767.74.745.767.772.772-.768 1.77-1.76-.768-.772z" fill="#C4C4C4"/></svg><svg fill="none" viewBox="0 0 17 17" id="icon__color" xmlns="http://www.w3.org/2000/svg"><path d="M14.07 3.8a.638.638 0 01.902.9l-8.146 8.147a.637.637 0 01-.901 0L2.383 9.305a.637.637 0 11.902-.902l3.09 3.091L14.07 3.8z" fill="#fff"/></svg><svg fill="none" viewBox="0 0 22 23" id="info" xmlns="http://www.w3.org/2000/svg"><path d="M11 2.497a9.429 9.429 0 110 18.857 9.429 9.429 0 010-18.857zm0 1.572a7.857 7.857 0 100 15.714 7.857 7.857 0 000-15.715zm.058 6.285c.186 0 .304.03.406.084a.571.571 0 01.238.238c.054.102.084.22.084.406v4.83c0 .187-.03.304-.084.406a.572.572 0 01-.238.238.811.811 0 01-.406.084h-.116a.811.811 0 01-.406-.084.572.572 0 01-.238-.238.812.812 0 01-.084-.406v-4.83c0-.187.03-.304.084-.406a.571.571 0 01.238-.238.811.811 0 01.406-.084h.116zM11 6.897a1.1 1.1 0 110 2.2 1.1 1.1 0 010-2.2z" fill="#9DA2B5"/></svg><svg fill="none" viewBox="0 0 40 48" id="logo" xmlns="http://www.w3.org/2000/svg"><path fill-rule="evenodd" clip-rule="evenodd" d="M19.51 4.707l.046-.003.046-.004c3.44-.315 11.183 1.024 14.742 8.375 3.61 7.455.409 14.174-1.57 16.55L20.713 41.688c-3.662-3.636-8.39-8.335-9.855-9.8-1.622-1.622-2.882-3.294-3.308-3.915-.588-1.02-1.971-4.27-1.98-7.997.01-.532.038-1.044.082-1.539h-4.01v-.175a25.704 25.704 0 00-.082 1.681c0 4.695 1.733 8.74 2.6 10.176.495.743 1.96 2.704 3.862 4.605 1.901 1.901 9.26 9.21 12.7 12.626l15.004-15.003c2.649-3.07 6.803-11.572 2.228-21.02C33.379 1.88 23.57.31 19.237.707c-5.186.354-15.062 3.919-17.246 15.02h4.106C6.965 12.2 8.798 9.82 10.832 8.18c2.921-2.354 6.457-3.321 8.679-3.473z" fill="url(#appaint0_linear_76_992)"/><path d="M9.655 31.752l15.97-2.228H3.787l2.154 2.896 3.713-.668z" fill="url(#appaint1_linear_76_992)" fill-opacity=".4"/><path fill-rule="evenodd" clip-rule="evenodd" d="M.293 11.99C0 12.285 0 12.756 0 13.699v2.01h27.333v-2.01c0-.943 0-1.414-.293-1.707-.293-.293-.764-.293-1.707-.293H2c-.943 0-1.414 0-1.707.293zM0 27.525c0 .942 0 1.414.293 1.707.293.293.764.293 1.707.293h23.333c.943 0 1.414 0 1.707-.293.293-.293.293-.765.293-1.707v-9.141H0v9.14zm19.608-2.845c0-.377 0-.566.117-.683.118-.117.306-.117.683-.117h4.64c.376 0 .565 0 .682.117.117.117.117.306.117.683V25.9c0 .377 0 .566-.117.683-.117.117-.306.117-.683.117h-4.639c-.377 0-.565 0-.683-.117-.117-.117-.117-.306-.117-.683V24.68z" fill="url(#appaint2_linear_76_992)"/><defs><linearGradient id="appaint0_linear_76_992" x1="1.486" y1="20.611" x2="39.959" y2="20.611" gradientUnits="userSpaceOnUse"><stop stop-color="#004EB7"/><stop offset="1" stop-color="#035ED9"/></linearGradient><linearGradient id="appaint1_linear_76_992" x1="5.348" y1="32.346" x2="25.55" y2="32.346" gradientUnits="userSpaceOnUse"><stop stop-opacity=".25"/><stop offset="1" stop-opacity=".5"/></linearGradient><linearGradient id="appaint2_linear_76_992" x1="0" y1="20.611" x2="27.333" y2="20.611" gradientUnits="userSpaceOnUse"><stop stop-color="#51AB51"/><stop offset="1" stop-color="#6ACE6A"/></linearGradient></defs></svg><svg fill="none" viewBox="0 0 22 23" id="mail" xmlns="http://www.w3.org/2000/svg"><path d="M6.386 3.995l9.467.002c1.237.015 1.883.153 2.552.51.65.348 1.164.862 1.51 1.511.381.712.513 1.396.513 2.792v6.085c0 1.396-.132 2.08-.512 2.791a3.642 3.642 0 01-1.51 1.51c-.712.381-1.396.513-2.792.513H6.386c-1.396 0-2.08-.132-2.792-.512a3.642 3.642 0 01-1.51-1.51c-.38-.712-.513-1.396-.513-2.792l.002-6.324c.015-1.238.153-1.883.51-2.553a3.641 3.641 0 011.511-1.51c.712-.38 1.396-.513 2.792-.513zm12.225 2.93l-5.389 5.388a3.143 3.143 0 01-4.32.118l-.124-.118-5.39-5.389c-.18.405-.245.867-.245 1.886v6.085c0 1.158.085 1.598.327 2.05.2.376.49.665.865.866.4.214.789.305 1.67.323l.381.004h9.228c1.158 0 1.598-.085 2.05-.327.376-.2.665-.49.866-.866.214-.4.305-.788.323-1.67l.004-.38V8.81c0-1.019-.066-1.481-.246-1.886zm-2.997-1.358H6.386c-1.018 0-1.481.065-1.886.245l5.389 5.39a1.572 1.572 0 002.122.091l.1-.092 5.388-5.389c-.404-.18-.867-.245-1.885-.245z" fill="#004EB7"/></svg><svg fill="none" viewBox="0 0 23 23" id="mark" xmlns="http://www.w3.org/2000/svg"><path d="M14.723 2.464c1.608.017 2.427.19 3.276.645a4.553 4.553 0 011.89 1.89c.453.848.627 1.666.643 3.275v6.45c-.017 1.608-.19 2.426-.644 3.275a4.553 4.553 0 01-1.89 1.89c-.848.454-1.667.627-3.275.644h-6.45c-1.608-.017-2.427-.19-3.275-.644a4.553 4.553 0 01-1.89-1.89c-.454-.849-.627-1.667-.644-3.276V8.274c.017-1.609.19-2.427.644-3.276a4.553 4.553 0 011.89-1.89c.848-.453 1.667-.627 3.275-.644h6.45zm-.276 1.642H8.55l-.458.004c-1.215.023-1.759.148-2.319.447a2.91 2.91 0 00-1.215 1.216c-.3.56-.425 1.104-.448 2.319l-.004.457v5.899l.004.458c.023 1.215.149 1.759.448 2.318.281.527.69.935 1.215 1.216.56.3 1.104.424 2.32.447l.457.005h5.898l.458-.005c1.215-.023 1.76-.148 2.319-.447a2.91 2.91 0 001.215-1.216c.3-.56.425-1.103.448-2.318l.004-.458V8.549l-.004-.457c-.023-1.215-.148-1.76-.448-2.32a2.911 2.911 0 00-1.215-1.215c-.56-.299-1.104-.424-2.319-.447l-.458-.004zm.045 4.678a.821.821 0 111.162 1.161l-4.6 4.6c-.321.321-.841.321-1.162 0L7.756 12.41a.821.821 0 011.162-1.161l1.555 1.555 4.019-4.02z" fill="#5CB85C"/></svg><svg fill="none" viewBox="0 0 60 54" id="message" xmlns="http://www.w3.org/2000/svg"><path d="M33.574 21.906c-1.353 0-2.402.937-2.402 2.095 0 1.157 1.049 2.095 2.402 2.095 1.236 0 2.285-.938 2.285-2.095 0-1.158-1.049-2.095-2.285-2.095zm-16.406 0c-1.353 0-2.402.937-2.402 2.095 0 1.157 1.049 2.095 2.402 2.095 1.236 0 2.285-.938 2.285-2.095 0-1.158-1.049-2.095-2.285-2.095z" fill="#004EB7"/><path d="M52.382 17.951c-2.818-3.434-6.756-5.729-11.074-6.764v.005a20.86 20.86 0 00-3.399-2.71c-9.591-6.193-23.056-4.304-30.058 4.214-5.643 6.92-5.403 16.23.351 22.843l.047 6.899c0 .166.03.333.088.49.31.879 1.365 1.362 2.35 1.087l7.418-2.077c1.963.62 3.99.973 6.005 1.072l-.029.021c5.221 3.377 12.065 4.392 18.34 2.55l7.447 2.154c.188.052.381.083.58.083 1.038 0 1.875-.744 1.875-1.665v-6.972c5.163-6.223 5.297-14.824.059-21.23zM18.925 38.244l-.703-.26-5.8 1.613-.06-5.411-.468-.469c-4.957-5.37-5.285-13.107-.645-18.784 5.649-6.878 16.477-8.398 24.2-3.434 7.745 5 9.462 14.6 3.867 21.438-4.694 5.718-13.096 7.83-20.391 5.307zm29.59-.884l-.469.52.059 5.411-5.742-1.717-.704.26a18.119 18.119 0 01-10.02.365l-.01-.005c4.33-1.182 8.255-3.575 11.085-7.02 4.477-5.479 5.203-12.363 2.602-18.232l.035.02a15.077 15.077 0 013.633 3.227c4.253 5.182 4.013 12.238-.47 17.17z" fill="#004EB7"/><path d="M25.371 21.906c-1.353 0-2.402.937-2.402 2.095 0 1.157 1.049 2.095 2.402 2.095 1.236 0 2.285-.938 2.285-2.095 0-1.158-1.049-2.095-2.285-2.095z" fill="#004EB7"/></svg><svg fill="none" viewBox="0 0 9 5" id="min-arrow" xmlns="http://www.w3.org/2000/svg"><path fill-rule="evenodd" clip-rule="evenodd" d="M8.821 1.316L4.932 4.36a.737.737 0 01-.864 0L.179 1.316C-.06 1.13-.06.826.179.64a.737.737 0 01.864 0L4.5 3.345 7.957.64a.737.737 0 01.864 0c.239.187.239.49 0 .676z" fill="#222"/></svg><svg fill="none" viewBox="0 0 63 63" id="money" xmlns="http://www.w3.org/2000/svg"><g filter="url(#aufilter0_d_76_530)"><path fill-rule="evenodd" clip-rule="evenodd" d="M14.993.262c-.388.173-.74.545-.89.94-.076.202-.112 3.453-.112 10.235v9.938l-4.51 2.268c-4.288 2.158-4.52 2.29-4.743 2.69l-.236.423L4.5 39.818c-.001 12.884.001 13.067.21 13.478.138.268.362.492.63.629.413.21.567.212 26.16.212s25.747-.001 26.16-.212c.268-.137.493-.361.63-.63.209-.41.212-.593.21-13.477l-.002-13.062-.235-.422c-.225-.401-.457-.533-4.743-2.69l-4.507-2.27-.029-10.095c-.028-10.01-.03-10.098-.245-10.386-.12-.16-.349-.39-.51-.51-.29-.217-.31-.217-16.605-.24-13.435-.019-16.37.002-16.63.119zm30.851 16.814v13.796l-7.172 3.587-7.172 3.586-7.172-3.586-7.172-3.587V3.28h28.688v13.797zm-31.853 10.05c0 1.16-.023 2.11-.052 2.11-.105 0-4.167-2.057-4.167-2.11 0-.06 4.005-2.095 4.14-2.105.044-.003.08.944.08 2.104zm37.18-1.084c1.13.566 2.057 1.053 2.057 1.083 0 .054-4.062 2.11-4.167 2.11-.029 0-.052-.95-.052-2.11s.023-2.11.052-2.11c.029 0 .978.462 2.11 1.027zm-35.586 7.631c4.3 2.15 7.8 3.924 7.779 3.942-.021.017-3.562 2.674-7.87 5.903L7.663 49.39v-9.813c0-5.398.024-9.814.053-9.814.029 0 3.57 1.76 7.87 3.91zm39.752 5.904v9.813l-7.831-5.872-7.87-5.903c-.041-.035 15.493-7.837 15.622-7.846.044-.003.08 4.41.08 9.808zM31.5 41.37c.436 0 .832-.16 2.724-1.102l2.215-1.101 7.832 5.876 7.832 5.876-10.301.027c-5.666.015-14.938.015-20.604 0l-10.301-.027 7.832-5.876 7.832-5.876 2.215 1.101c1.892.942 2.288 1.102 2.724 1.102z" fill="#004EB7"/><path d="M30.462 8.06a2.11 2.11 0 01.51-.342c.362-.152 1.035-.064 1.356.176.59.44.699.71.737 1.817l.036 1.036 1.043.042c.839.033 1.098.083 1.328.255.957.715 1.008 1.959.108 2.62-.271.2-.486.224-2.445.272-1.967.048-2.172.071-2.445.273-.77.572-.995 1.478-.535 2.155.405.595.693.737 1.702.841 1.187.123 2.067.523 2.9 1.317.971.927 1.491 2.125 1.488 3.429-.003 1.698-1.14 3.532-2.613 4.216l-.55.256v1.056c0 .859-.041 1.143-.222 1.516-.395.817-1.336 1.096-2.14.634-.626-.359-.802-.787-.802-1.948v-.978h-.927c-1.118 0-1.733-.253-2.051-.844-.248-.46-.202-1.263.096-1.67.422-.575.75-.651 2.822-.651 1.676 0 1.942-.024 2.328-.211a1.555 1.555 0 00.711-2.109c-.288-.573-.716-.793-1.806-.927-1.824-.225-3.132-1.144-3.89-2.734-.382-.798-.395-.863-.395-1.986 0-1.122.013-1.187.394-1.986.468-.98 1.258-1.808 2.131-2.236l.587-.287v-1.1c0-1.167.089-1.477.544-1.902z" fill="#AEC1D9"/></g><defs><filter id="aufilter0_d_76_530" x=".5" y=".137" width="62" height="62" filterUnits="userSpaceOnUse" color-interpolation-filters="sRGB"><feFlood flood-opacity="0" result="BackgroundImageFix"/><feColorMatrix in="SourceAlpha" values="0 0 0 0 0 0 0 0 0 0 0 0 0 0 0 0 0 0 127 0" result="hardAlpha"/><feOffset dy="4"/><feGaussianBlur stdDeviation="2"/><feComposite in2="hardAlpha" operator="out"/><feColorMatrix values="0 0 0 0 0 0 0 0 0 0 0 0 0 0 0 0 0 0 0.25 0"/><feBlend in2="BackgroundImageFix" result="effect1_dropShadow_76_530"/><feBlend in="SourceGraphic" in2="effect1_dropShadow_76_530" result="shape"/></filter></defs></svg><svg fill="none" viewBox="0 0 22 22" id="new" xmlns="http://www.w3.org/2000/svg"><path d="M14.928.786c.434 0 .786.352.786.785v.912a4.46 4.46 0 011.517.504 4.284 4.284 0 011.782 1.782c.373.698.588 1.39.624 3.087l.006.001V13.6l-.005.479c-.032 1.744-.247 2.445-.625 3.152a4.283 4.283 0 01-1.782 1.782c-.768.411-1.53.63-3.632.63H8.4l-.479-.004c-1.744-.032-2.446-.248-3.152-.626a4.283 4.283 0 01-1.782-1.782c-.395-.737-.612-1.47-.629-3.386l-.001-5.444v-.544c.042-1.697.256-2.39.63-3.088a4.284 4.284 0 011.782-1.782c.429-.23.856-.4 1.517-.504V1.57a.786.786 0 111.57 0v.792c.171-.004.352-.006.544-.006h5.2c.192 0 .373.002.544.006l-.001-.792c0-.433.351-.785.785-.785zm3.142 8.643H3.928l.001 4.393.007.447c.03 1.184.156 1.696.436 2.221.265.495.643.873 1.138 1.138.586.313 1.157.433 2.668.443h5.643l.447-.007c1.185-.03 1.697-.156 2.222-.436a2.713 2.713 0 001.137-1.138c.314-.586.433-1.157.444-2.668V9.429zm-3.106 3.928c.34 0 .608.064.832.184.224.12.4.295.52.52.12.224.184.491.184.832v.072c0 .34-.064.608-.184.832-.12.224-.296.4-.52.52-.224.12-.491.183-.832.183h-.072c-.34 0-.608-.064-.832-.184-.224-.12-.4-.295-.52-.52-.12-.223-.183-.491-.183-.831v-.072c0-.34.064-.608.184-.832.12-.225.295-.4.52-.52.223-.12.491-.184.831-.184h.072zM13.821 3.93H8.178l-.321.004v.781a.786.786 0 11-1.571 0l-.001-.634c-.3.069-.536.165-.775.293A2.713 2.713 0 004.372 5.51c-.29.543-.414 1.072-.439 2.346l14.133.001-.002-.126c-.031-1.184-.156-1.696-.437-2.221a2.713 2.713 0 00-1.137-1.137 3.012 3.012 0 00-.775-.293v.634a.786.786 0 01-1.572 0l.002-.78c-.103-.003-.21-.004-.323-.005z" fill="#004EB7"/></svg><svg fill="none" viewBox="0 0 18 19" id="news" xmlns="http://www.w3.org/2000/svg"><path d="M12.214 1.495c.355 0 .643.288.643.643v.746c.54.085.89.224 1.241.412.629.336 1.122.83 1.458 1.458.306.571.481 1.138.51 2.526h.005v4.7l-.003.391c-.026 1.427-.203 2.001-.512 2.58a3.505 3.505 0 01-1.458 1.457c-.629.337-1.252.516-2.971.516H6.873l-.392-.004c-1.427-.026-2.001-.202-2.58-.512a3.505 3.505 0 01-1.457-1.458c-.323-.603-.501-1.202-.515-2.77V7.281c.034-1.389.21-1.956.515-2.527a3.505 3.505 0 011.458-1.458 3.65 3.65 0 011.24-.413v-.745a.643.643 0 011.286 0v.647c.14-.003.288-.004.445-.004h4.254c.157 0 .306.001.446.004l-.002-.647c0-.355.288-.643.643-.643zm2.571 7.072H3.215v3.594l.005.366c.025.969.128 1.388.357 1.817.217.405.527.714.931.93.48.257.947.355 2.183.363h4.618l.365-.005c.97-.025 1.389-.128 1.818-.357a2.22 2.22 0 00.93-.93c.257-.48.355-.948.363-2.184V8.567zm-2.541 3.214c.278 0 .497.052.68.15.184.098.328.242.426.425.098.184.15.403.15.681v.06c0 .277-.052.496-.15.68a1.021 1.021 0 01-.426.425c-.183.098-.402.15-.68.15h-.06c-.278 0-.497-.052-.68-.15a1.022 1.022 0 01-.425-.425 1.408 1.408 0 01-.15-.68v-.06c0-.278.052-.497.15-.68.098-.184.242-.328.425-.426.183-.098.402-.15.68-.15h.06zm-.935-7.714H6.69l-.263.003v.64a.643.643 0 01-1.285 0v-.52a2.466 2.466 0 00-.635.24 2.22 2.22 0 00-.93.93c-.238.444-.34.878-.36 1.92h11.563l-.002-.102c-.025-.969-.127-1.388-.357-1.818a2.22 2.22 0 00-.93-.93 2.467 2.467 0 00-.634-.24l-.001.52a.643.643 0 11-1.286 0l.002-.64a20.49 20.49 0 00-.264-.003z" fill="#004EB7"/></svg><svg fill="none" viewBox="0 0 8 14" id="ok" xmlns="http://www.w3.org/2000/svg"><path fill-rule="evenodd" clip-rule="evenodd" d="M3.618.926a3.5 3.5 0 11-.036 7 3.5 3.5 0 01.036-7zm.008 1.956a1.52 1.52 0 11-.003-.002l.003.002zm-.008 6.06a5.822 5.822 0 001.965-.357c.35-.227.725-.416 1.116-.564.22.008.583.373.52 1.317-.034.539-1.018.76-1.364.967a2.265 2.265 0 01-.724.247s.847.906 1.063 1.129c.438.32.769.765.948 1.278a1.342 1.342 0 01-1 1 4.493 4.493 0 01-1.4-1.12c-.583-.556-1.115-1.07-1.115-1.07s-.546.487-1.115 1.049a4.622 4.622 0 01-1.368 1.14 1.441 1.441 0 01-1.062-1.16 6.331 6.331 0 011.24-1.486c.25-.27.517-.523.8-.757a1.9 1.9 0 01-.637-.208C1.004 10.08-.026 9.8 0 9.304c.028-.512.159-1.3.616-1.3.39.142.765.324 1.119.542.59.27 1.233.404 1.882.394v.002z" fill="#fff"/></svg><svg fill="none" viewBox="0 0 38 41" id="qiwi" xmlns="http://www.w3.org/2000/svg"><circle cx="19" cy="19" r="19" fill="#FF8C00"/><g filter="url(#ayfilter0_d_701_227)"><path d="M27.878 23.74c.435.162.602.792.635 1.066.067.502-.083.695-.25.695-.167 0-.401-.194-.652-.581-.25-.389-.35-.825-.217-1.051.083-.146.267-.21.484-.13zm-2.539 1.826c.268 0 .568.113.836.34.517.42.668.904.4 1.26-.15.178-.4.29-.684.29-.284 0-.585-.096-.785-.274-.468-.388-.602-1.035-.301-1.39.117-.145.3-.226.534-.226zm-5.846 4.67C13.145 30.236 8 25.26 8 19.118 8 12.978 13.145 8 19.493 8c6.347 0 11.493 4.978 11.493 11.118 0 2.084-.602 4.04-1.62 5.705-.034.048-.118.032-.134-.033-.401-2.73-2.122-4.234-4.627-4.686-.218-.033-.251-.162.033-.194.768-.065 1.854-.049 2.422.048.033-.274.05-.565.05-.856 0-4.056-3.408-7.354-7.6-7.354-4.193 0-7.601 3.298-7.601 7.354s3.408 7.353 7.6 7.353h.351a9.603 9.603 0 01-.15-1.988c.017-.452.117-.517.317-.162 1.053 1.762 2.556 3.346 5.496 3.976 2.406.517 4.811 1.115 7.4 4.299.234.274-.117.565-.384.34-2.639-2.264-5.044-3.007-7.233-3.007-2.456.017-4.126.323-5.813.323z" fill="#fff"/></g><defs><filter id="ayfilter0_d_701_227" x="4" y="8" width="33" height="33" filterUnits="userSpaceOnUse" color-interpolation-filters="sRGB"><feFlood flood-opacity="0" result="BackgroundImageFix"/><feColorMatrix in="SourceAlpha" values="0 0 0 0 0 0 0 0 0 0 0 0 0 0 0 0 0 0 127 0" result="hardAlpha"/><feOffset dy="4"/><feGaussianBlur stdDeviation="2"/><feComposite in2="hardAlpha" operator="out"/><feColorMatrix values="0 0 0 0 0 0 0 0 0 0 0 0 0 0 0 0 0 0 0.12 0"/><feBlend in2="BackgroundImageFix" result="effect1_dropShadow_701_227"/><feBlend in="SourceGraphic" in2="effect1_dropShadow_701_227" result="shape"/></filter></defs></svg><svg fill="none" viewBox="0 0 37 36" id="rub" xmlns="http://www.w3.org/2000/svg"><circle cx="18.924" cy="18" r="18" fill="#5CB85C"/><path d="M18.924 7c6.076 0 11 4.925 11 11s-4.924 11-11 11c-6.075 0-11-4.925-11-11s4.925-11 11-11zm0 1.8a9.2 9.2 0 100 18.4 9.2 9.2 0 000-18.4zm1.253 4.2a3.357 3.357 0 010 6.714h-2.253V21h1.5a.75.75 0 010 1.5h-1.5v.65a.85.85 0 11-1.7 0v-.65h-.8a.75.75 0 010-1.5h.8v-1.286h-.693a.857.857 0 010-1.714h.692l.001-4.15c0-.47.38-.85.85-.85h3.103zm.033 1.571h-2.286V18h2.286a1.714 1.714 0 100-3.429z" fill="#fff"/></svg><svg fill="none" viewBox="0 0 55 55" id="sand" xmlns="http://www.w3.org/2000/svg"><path fill-rule="evenodd" clip-rule="evenodd" d="M29.65 6.984c-12.595 3.76-23.05 6.914-23.234 7.01-.383.198-.757.853-.757 1.328 0 .421.357 1.117.66 1.286.13.072 3.392 1.592 7.25 3.376 3.857 1.784 7.03 3.291 7.049 3.35.02.058-.68 2.79-1.554 6.07-.875 3.28-1.59 6.088-1.59 6.24 0 .68.603 1.372 1.291 1.484.4.065.133.13 7.071-1.718 2.946-.785 5.405-1.41 5.464-1.391.058.02 1.566 3.193 3.35 7.051 1.783 3.859 3.302 7.122 3.374 7.253.169.302.865.66 1.286.66.55 0 1.142-.377 1.375-.875C40.968 47.503 54.5 2.01 54.5 1.662c0-.771-.818-1.548-1.604-1.524-.191.005-10.652 3.086-23.247 6.846zm8.405 7.324l-9.218 9.221-.328-.14c-2.183-.928-16.737-7.754-16.623-7.794.085-.03 1.84-.555 3.9-1.167 2.06-.612 9.94-2.961 17.51-5.22 7.572-2.26 13.814-4.112 13.872-4.115.058-.003-4.043 4.143-9.113 9.215zM44.32 25.04a9426.729 9426.729 0 01-5.281 17.714c-.03.085-1.831-3.69-4.001-8.39l-3.945-8.543 9.194-9.202c5.057-5.061 9.209-9.188 9.227-9.17.018.018-2.32 7.934-5.194 17.591zm-17.513 1.057l1.185.54 1.003 2.177c.552 1.198.995 2.188.986 2.201-.016.02-6.555 1.776-8.09 2.171l-.595.153.088-.33c1.334-4.995 2.209-8.298 2.209-8.34 0-.03.457.158 1.015.417.558.259 1.548.714 2.2 1.011z" fill="#004EB7"/><path d="M.694 41.724c.24-.462 7.931-8.156 8.393-8.396.717-.373 1.685-.059 2.056.668.266.523.269.957.008 1.458-.252.484-7.949 8.168-8.414 8.4-.729.364-1.664.055-2.035-.672-.267-.523-.27-.957-.008-1.458zM3.33 49.216c.241-.463 8.671-8.895 9.133-9.135.717-.373 1.685-.059 2.055.668.267.523.27.957.009 1.458-.252.485-8.687 8.907-9.153 9.14-.729.363-1.664.053-2.035-.674-.266-.523-.269-.957-.008-1.457zM10.82 51.854c.241-.462 7.932-8.156 8.394-8.396.717-.374 1.685-.059 2.056.668.266.523.269.957.008 1.458-.252.484-7.949 8.168-8.414 8.4-.729.364-1.664.054-2.035-.672-.267-.523-.27-.958-.009-1.458z" fill="#AEC1D9"/></svg><svg fill="none" viewBox="0 0 24 25" id="search" xmlns="http://www.w3.org/2000/svg"><path d="M11.143 4.357a7.286 7.286 0 015.722 11.796l3.884 3.884a.857.857 0 11-1.212 1.212l-3.884-3.884a7.286 7.286 0 11-4.51-13.008zm0 1.714a5.571 5.571 0 100 11.143 5.571 5.571 0 000-11.143z" fill="#777"/></svg><svg fill="none" viewBox="0 0 36 37" id="searching" xmlns="http://www.w3.org/2000/svg"><circle cx="18" cy="18.5" r="18" fill="#5CB85C"/><path d="M17.143 10.357a7.286 7.286 0 015.722 11.796l3.884 3.884a.857.857 0 01-1.212 1.212l-3.884-3.884a7.286 7.286 0 11-4.51-13.008zm0 1.714a5.571 5.571 0 100 11.143 5.571 5.571 0 000-11.143z" fill="#fff"/></svg><svg fill="none" viewBox="0 0 22 22" id="security" xmlns="http://www.w3.org/2000/svg"><path d="M14.083 2.357c1.538.016 2.321.182 3.133.616a4.355 4.355 0 011.808 1.808c.434.812.6 1.595.616 3.133v6.17c-.016 1.538-.182 2.32-.616 3.133a4.356 4.356 0 01-1.808 1.807c-.812.434-1.595.6-3.133.616h-6.17c-1.538-.016-2.32-.182-3.132-.616a4.356 4.356 0 01-1.808-1.807c-.434-.812-.6-1.595-.616-3.134V7.914c.016-1.538.182-2.321.616-3.133a4.355 4.355 0 011.808-1.808c.811-.434 1.594-.6 3.133-.616h6.169zm-.264 1.57H8.178l-.438.004c-1.163.022-1.683.142-2.218.428-.504.27-.894.66-1.163 1.163-.286.535-.406 1.056-.428 2.218l-.004.438v5.642l.004.438c.022 1.162.142 1.682.428 2.218.269.503.66.893 1.163 1.162.535.286 1.055.406 2.218.428l.438.004h5.641l.438-.004c1.163-.022 1.683-.142 2.218-.428.504-.269.894-.66 1.163-1.163.286-.535.406-1.055.428-2.217l.004-.438V8.178l-.004-.438c-.022-1.162-.142-1.683-.428-2.218a2.784 2.784 0 00-1.163-1.163c-.535-.286-1.055-.406-2.218-.428l-.438-.004zm.043 4.475a.786.786 0 111.111 1.11l-4.4 4.4a.786.786 0 01-1.11 0L7.418 11.87a.786.786 0 011.111-1.111l1.488 1.487 3.844-3.844z" fill="#5CB85C"/></svg><svg fill="none" viewBox="0 0 14 14" id="sms" xmlns="http://www.w3.org/2000/svg"><mask id="bea" maskUnits="userSpaceOnUse" x="0" y="0" width="14" height="14" fill="#000"><path fill="#fff" d="M0 0h14v14H0z"/><path fill-rule="evenodd" clip-rule="evenodd" d="M8 10a4 4 0 10-3.376-1.853l-.304.918-.304.92.934-.304.916-.297C6.483 9.774 7.216 10 8 10zm.015-.016H8a3.986 3.986 0 01-3.86-2.99l-.005-.023a3.993 3.993 0 01-.022-1.85A3.99 3.99 0 018 2.016a3.984 3.984 0 10.015 7.968z"/></mask><path fill-rule="evenodd" clip-rule="evenodd" d="M8 10a4 4 0 10-3.376-1.853l-.304.918-.304.92.934-.304.916-.297C6.483 9.774 7.216 10 8 10zm.015-.016H8a3.986 3.986 0 01-3.86-2.99l-.005-.023a3.993 3.993 0 01-.022-1.85A3.99 3.99 0 018 2.016a3.984 3.984 0 10.015 7.968z" fill="#fff"/><path d="M9.354 9.748l.272.963.068-.02.065-.029-.405-.914zm1.315-.79l.607.795.062-.047.054-.057-.723-.691zM7.213 10.92l.216-1.989h-.001l-.215 1.989zm.495.053l.213-1.988-.213 1.988zM3.026 6.3v.004l1.99-.207-.001-.004-1.99.207zm.045.438v.004l1.99-.207V6.53l-1.99.207zM6.742 8.71h-.001l-.972 1.748h.002l.971-1.748zm-1.166-.283l.618 1.902-.618-1.902zM12.9 6.89v-.002l-1.99-.197v.002l1.99.197zm.078-.789v-.002L10.99 5.9v.002l1.99.198zm-4.48 4.857l-.11-1.997.11 1.997zm.577-.093L8.535 8.94l.54 1.925zm.549-.154l-.542-1.925.542 1.925zm.134-.049h.001l-.81-1.829.81 1.83zm.506-.224h.002l-.81-1.829h-.002l.81 1.83zm.485-.284h.001l-1.213-1.59h-.001l1.213 1.59zm.524-.4l.002-.001-1.213-1.59h-.002l1.213 1.59zm.118-.105L9.949 8.264v.001l1.444 1.383zm.4-.417l.001-.002-1.444-1.383-.002.001 1.445 1.384zm.363-.48l.002-.003-1.706-1.045-.002.004 1.706 1.044zm.187-.306l.003-.004-1.706-1.044-.002.004 1.705 1.044zm.268-.554l.002-.003-1.885-.669-.001.003 1.884.67zm.16-.45l.002-.004-1.885-.67-.001.004 1.885.67zm-6.127 3.353l.641-1.894-.641 1.894zM5.488 7.63v-.002l-1.826.818v.001l1.826-.817zm-.377-.842v-.002l-1.826.817v.002l1.826-.817zm-1.92.52l.001.004 1.897-.635v-.002l-1.898.634zm1.937-.456v-.002l-1.986.243v.002l1.986-.243zm1.624-5.675l.616 1.903h.001l-.617-1.903zm.925-.15l.195 1.991-.195-1.99zm-.334.034l.194 1.99h.001l-.195-1.99zm-.404 7.732h-.002L6.34 10.7h.001l.598-1.908zM3.154 4.839l-.001.003 1.918.565.001-.003-1.918-.565zm1.47 3.308l1.899.628.298-.902-.51-.801-1.687 1.075zm-.304.918l1.899.629-1.899-.629zm-.304.92l-1.899-.63-1.242 3.752 3.759-1.22-.618-1.903zm.934-.304l.618 1.902-.617-1.902zm.916-.297l1.068-1.691-.793-.502-.893.29.618 1.903zm2.159.6l.012 2-.025-4 .013 2zM4.14 6.994l-1.939.491.002.006 1.937-.497zm-.006-.023l-1.94.485.001.006 1.939-.491zm-.022-1.85l-1.951-.439 1.951.44zM7.06 2.127L6.59.183l.47 1.944zm.38-.072L7.162.075l.278 1.98zm.334-.033L7.662.025l.112 1.997zm4.131 4.77l1.961.395-1.96-.395zm-.076.311l1.922.553-1.922-.553zm-.16.455l1.84.783-1.84-.783zm-.177.362l1.751.966-1.751-.966zm-.19.31L9.646 7.11l1.656 1.12zm-.23.308l1.54 1.275-1.54-1.275zm-.929.821l1.077 1.685-1.077-1.685zm-.282.164l-.935-1.767.935 1.767zm-1.056.38l-.402-1.96.402 1.96zm-.361.057l.22 1.987-.22-1.987zm-.332.023l-.055-2 .11 3.999-.055-2zM10 6a2 2 0 01-2 2v4a6 6 0 006-6h-4zM8 4a2 2 0 012 2h4a6 6 0 00-6-6v4zM6 6a2 2 0 012-2V0a6 6 0 00-6 6h4zm.31 1.072A1.981 1.981 0 016 6H2c0 1.182.344 2.29.937 3.221l3.374-2.15zM6.22 9.694l.304-.919-3.798-1.257-.304.919L6.22 9.694zm-.304.919l.304-.92L2.42 8.438l-.304.919 3.798 1.257zM4.333 7.778l-.935.304 1.236 3.804.934-.303-1.235-3.805zm.915-.297l-.915.297 1.235 3.805.915-.297L5.248 7.48zM8 8c-.395 0-.758-.113-1.066-.307l-2.137 3.381A5.981 5.981 0 008 12V8zm0 3.984h.037l-.025-4H8v4zM2.204 7.491A5.986 5.986 0 008 11.984v-4a1.986 1.986 0 01-1.922-1.488l-3.874.995zm-.008-.029l.006.023 3.877-.983-.005-.023-3.878.983zM2.016 6c0 .5.062.988.179 1.456l3.88-.971A1.993 1.993 0 016.015 6h-4zm.146-1.318A5.997 5.997 0 002.016 6h4c0-.153.017-.3.048-.44l-3.902-.878zM6.59.183a5.99 5.99 0 00-4.428 4.5l3.902.878A1.99 1.99 0 017.53 4.07L6.59.183zm.572-.109a5.966 5.966 0 00-.572.11l.94 3.887c.062-.015.125-.027.189-.036L7.162.075zm.5-.049a6 6 0 00-.5.05l.557 3.96c.054-.007.11-.013.167-.016L7.662.025zM8 .015c-.113 0-.226.004-.338.01l.224 3.994c.037-.002.075-.003.114-.003v-4zM13.984 6A5.984 5.984 0 008 .016v4c1.096 0 1.984.888 1.984 1.984h4zm-.118 1.187c.078-.385.118-.783.118-1.187h-4c0 .138-.014.27-.039.396l3.921.79zm-.114.47c.044-.155.082-.311.114-.47l-3.921-.79c-.01.052-.023.103-.038.154l3.845 1.105zm-.243.684c.094-.222.175-.45.242-.685L9.908 6.551a1.955 1.955 0 01-.08.224l3.682 1.566zm-.266.545c.098-.177.186-.359.266-.545L9.828 6.775a1.967 1.967 0 01-.088.18l3.503 1.93zm-.284.465c.101-.15.196-.306.284-.465L9.74 6.955a1.98 1.98 0 01-.094.154l3.313 2.242zm-.347.462a5.98 5.98 0 00.347-.462L9.646 7.109a2 2 0 01-.116.154l3.082 2.55zm-1.392 1.231a6.003 6.003 0 001.392-1.23L9.53 7.263c-.132.16-.29.298-.464.41l2.154 3.37zm-.423.247c.145-.077.286-.159.423-.247l-2.154-3.37c-.046.03-.092.057-.14.082l1.871 3.535zm-1.59.571a5.954 5.954 0 001.59-.571L8.926 7.756c-.163.086-.338.15-.523.188l.804 3.918zm-.543.085c.183-.02.365-.048.543-.085l-.804-3.918a1.98 1.98 0 01-.18.028l.441 3.975zm-.497.035c.167-.005.333-.016.497-.034l-.44-3.976a2.02 2.02 0 01-.167.011l.11 3.999zM9.984 6a1.984 1.984 0 01-1.927 1.983l.11 3.999A5.984 5.984 0 0013.985 6h-4zM8 4.016c1.096 0 1.984.888 1.984 1.984h4A5.984 5.984 0 008 .016v4zM6.016 6c0-1.096.888-1.984 1.984-1.984v-4A5.984 5.984 0 002.016 6h4zM8 7.984A1.984 1.984 0 016.016 6h-4A5.984 5.984 0 008 11.984v-4zm.012 0H8v4h.037l-.025-4z" fill="#ADADAD" mask="url(#bea)"/></svg><svg fill="none" viewBox="0 0 16 15" id="star" xmlns="http://www.w3.org/2000/svg"><path d="M7.524.464a.5.5 0 01.952 0l1.432 4.41a.5.5 0 00.476.345h4.637a.5.5 0 01.294.904L11.563 8.85a.5.5 0 00-.181.559l1.433 4.41a.5.5 0 01-.77.559L8.294 11.65a.5.5 0 00-.588 0l-3.751 2.726a.5.5 0 01-.77-.56l1.433-4.41a.5.5 0 00-.181-.558L.685 6.123A.5.5 0 01.98 5.22h4.637a.5.5 0 00.476-.346L7.524.463z" fill="#FEDD2E"/></svg><svg fill="none" viewBox="0 0 29 29" id="step2" xmlns="http://www.w3.org/2000/svg"><path d="M0 8.045c.053-.255.09-.518.159-.773.611-2.386 2.099-3.884 4.44-4.456 2.537-.625 5.324.819 6.418 3.26.182.401.084.772-.256.942-.325.17-.68.054-.876-.34-.363-.703-.816-1.313-1.443-1.792-2.182-1.653-5.391-.888-6.637 1.591-1.133 2.263-.317 4.966 1.865 6.17.113.063.227.124.332.201.31.217.4.572.22.889-.167.293-.514.401-.847.247a5.713 5.713 0 01-2.491-2.248 5.871 5.871 0 01-.839-2.425C.038 9.265.015 9.226 0 9.188V8.045z" fill="#AEC1D9"/><path d="M13.436 20.003c-.106-.116-.174-.194-.242-.263-2.786-2.85-5.573-5.707-8.367-8.55-.475-.486-.778-1.057-.845-1.753-.129-1.22.906-2.525 2.106-2.656.869-.093 1.586.185 2.198.818.642.665 1.291 1.321 1.933 1.977.068.07.143.14.219.217.604-1.668 2.424-2.279 3.859-1.282.287-.803.793-1.39 1.593-1.668.8-.27 1.54-.132 2.25.355.03-.062.06-.116.084-.17.656-1.738 2.839-2.209 4.077-.85 1.714 1.885 3.429 3.77 5.06 5.723 1.336 1.599 1.79 3.514 1.495 5.6-.227 1.629-.96 2.988-2.084 4.139-.695.71-1.39 1.436-2.107 2.124-1.36 1.313-3.006 1.946-4.863 1.954-3.987.015-7.975.007-11.97 0-1.442 0-2.333-1.228-1.955-2.657.332-1.267 1.238-2.054 2.545-2.255 1.653-.255 3.307-.533 5.014-.803zm.657 4.394c1.857 0 3.723-.008 5.58 0 1.601.008 3.006-.51 4.161-1.645.763-.75 1.526-1.506 2.243-2.301 2.107-2.348 2.107-5.708.023-8.071-1.269-1.444-2.553-2.873-3.829-4.31-.294-.324-.581-.656-.876-.98-.453-.495-1.155-.525-1.639-.093a1.212 1.212 0 00-.12 1.676c.067.085.143.17.204.27a.606.606 0 01-.008.664c-.136.224-.34.348-.582.294a1.213 1.213 0 01-.513-.286c-.46-.432-.883-.911-1.352-1.336-.438-.394-1.117-.34-1.533.077a1.215 1.215 0 00-.105 1.591c.083.108.18.209.279.31.363.37.733.74 1.095 1.119.302.317.31.718.045.98-.264.271-.634.248-.959-.061l-.158-.162c-.786-.796-1.563-1.599-2.349-2.394-.498-.51-1.155-.556-1.638-.14-.56.48-.574 1.267-.023 1.839.793.826 1.6 1.637 2.401 2.456.09.092.181.193.25.3a.645.645 0 01-.106.804.627.627 0 01-.763.077 2.17 2.17 0 01-.317-.278c-2.024-2.062-4.04-4.132-6.056-6.194a4.664 4.664 0 00-.28-.27 1.096 1.096 0 00-1.193-.178c-.415.178-.65.51-.702.974-.053.463.15.81.46 1.127 3.134 3.205 6.268 6.41 9.402 9.608.219.224.362.455.264.78-.098.324-.355.432-.65.478-.86.14-1.729.27-2.59.41-1.268.208-2.544.401-3.813.625-.717.132-1.216.75-1.26 1.483-.024.394.188.672.573.726.12.016.242.016.355.016 2.031.015 4.055.015 6.079.015z" fill="#004EB7"/></svg><svg fill="none" viewBox="0 0 29 29" id="step3" xmlns="http://www.w3.org/2000/svg"><g clip-path="url(#bhclip0_376_317)"><path d="M0 8.815c.163-.56.425-1.062.984-1.303.276-.12.595-.212.892-.212 3.278-.015 6.55-.007 9.827-.007.58 0 .985.382.985.906s-.404.899-.992.899H1.827v3.618H11.569c.134 0 .269-.007.396.021a.907.907 0 01.723.92.905.905 0 01-.822.857c-.113.014-.226.007-.34.007H1.834v10.833h25.36v-.319-5.933c0-.488.284-.85.73-.949.418-.092.821.135 1.026.574.015.035.036.056.057.092v6.84c-.474 1.224-.913 1.529-2.244 1.529h-9.14c-5.198 0-10.394.007-15.591-.008-.34 0-.694-.077-1.012-.198-.588-.233-.857-.75-1.02-1.317V8.815z" fill="#004EB7"/><path d="M28.341 10.157c-.045.374-.097.748-.142 1.116-.295 2.356-1.408 4.254-3.196 5.778-.856.73-1.795 1.349-2.766 1.917-.309.18-.611.2-.926.02-1.396-.814-2.727-1.724-3.821-2.938-1.203-1.33-1.904-2.898-2.168-4.667-.263-1.814-.122-3.634-.147-5.455-.007-.42.25-.664.623-.826 1.486-.632 2.978-1.272 4.464-1.91.36-.155.727-.304 1.087-.465a.941.941 0 01.791-.007c1.872.807 3.744 1.614 5.616 2.408.296.13.482.342.585.64v4.389zM26.694 8.53c0-.768-.006-1.31.007-1.853 0-.148-.039-.226-.187-.284-1.53-.652-3.055-1.31-4.58-1.956a.496.496 0 00-.334-.006 585.272 585.272 0 00-4.625 1.982c-.07.032-.154.142-.148.219.026 1.433.007 2.866.116 4.293.097 1.33.592 2.543 1.428 3.608.9 1.15 2.059 1.982 3.287 2.73.064.04.2.02.27-.025.708-.497 1.441-.968 2.104-1.517 1.286-1.072 2.122-2.434 2.456-4.086.213-1.104.22-2.22.206-3.105z" fill="#BDCCE0"/><path d="M6.33 19.952h-1.7c-.601 0-1.012-.376-1.005-.914.007-.524.41-.892.991-.899h3.455c.58 0 .985.375.992.9.007.53-.404.906-1.006.913-.573.007-1.154 0-1.727 0z" fill="#004EB7"/><path d="M20.998 11.143l1.652-1.891c.309-.354.618-.713.933-1.06.212-.237.495-.33.83-.26.327.07.533.27.61.571.058.23 0 .442-.16.62-1.094 1.254-2.187 2.515-3.293 3.758-.373.424-.997.395-1.337-.059a112.478 112.478 0 01-1.627-2.227c-.27-.377-.168-.825.212-1.055.386-.235.862-.147 1.15.224.29.377.567.766.843 1.15.065.07.122.14.187.229z" fill="#BDCCE0"/></g><defs><clipPath id="bhclip0_376_317"><path fill="#fff" d="M0 0h29v29H0z"/></clipPath></defs></svg><svg fill="none" viewBox="0 0 29 29" id="step4" xmlns="http://www.w3.org/2000/svg"><path fill-rule="evenodd" clip-rule="evenodd" d="M2.504.112A3.147 3.147 0 00.99.99c-.46.46-.72.914-.88 1.535C.004 2.951 0 3.183 0 11.441c0 5.847.02 8.584.061 8.816.156.853.811 1.781 1.577 2.234.612.362 1.055.453 2.196.453h.976l.017 2.706.016 2.705.133.214a.903.903 0 001.067.378c.087-.032 1.498-1.396 3.134-3.03l2.975-2.973h6.996c7.697 0 7.277.019 8.04-.35.561-.272 1.185-.92 1.468-1.528.122-.26.249-.624.283-.81.042-.231.061-2.968.061-8.815 0-8.258-.003-8.49-.112-8.917a3.145 3.145 0 00-.88-1.537 3.078 3.078 0 00-1.534-.878C26.045 0 25.81-.002 14.477.001 3.282.004 2.904.007 2.504.112zM26.308 1.95c.287.143.597.454.74.74.109.22.112.403.126 8.693.017 9.414.043 8.759-.368 9.238a1.746 1.746 0 01-.493.376l-.287.133-7.136.001c-4.929 0-7.207.02-7.364.062-.192.052-.582.416-2.563 2.393l-2.336 2.331v-2.073c0-2.057-.001-2.074-.128-2.265a1.163 1.163 0 00-.38-.32c-.242-.122-.312-.128-1.699-.128-1.4 0-1.456-.005-1.733-.134a1.742 1.742 0 01-.492-.375c-.41-.478-.383.17-.382-9.119 0-5.837.019-8.428.062-8.582.13-.472.56-.912 1.018-1.045.125-.036 4.247-.052 11.692-.046 11.31.009 11.502.01 11.723.12z" fill="#004EB7"/><path fill-rule="evenodd" clip-rule="evenodd" d="M13.586 4.285c-2.065.286-3.886 1.4-5.04 3.082-1.194 1.739-1.571 3.804-1.073 5.861.497 2.056 1.922 3.81 3.863 4.758a7.184 7.184 0 006.245.046c3.094-1.475 4.756-4.891 3.98-8.181-.648-2.744-2.834-4.888-5.57-5.463-.609-.128-1.842-.18-2.405-.103zM15.87 6.08a5.691 5.691 0 012.587 1.487c2.475 2.493 2.038 6.63-.906 8.567a5.43 5.43 0 01-1.64.742c-.45.126-.58.14-1.411.14-.83 0-.96-.014-1.412-.14-2.287-.64-3.856-2.48-4.13-4.842a5.568 5.568 0 01.186-2.082 5.64 5.64 0 014.55-3.994c.538-.085 1.604-.025 2.176.122z" fill="#BDCCE0"/><path d="M13.892 8.426a.861.861 0 01.402-.463c.19-.095.571-.06.73.068.068.056.169.165.223.244.093.135.099.22.112 1.65l.013 1.506.83.904c.455.497.852.955.881 1.017.03.062.053.215.053.34 0 .566-.598.982-1.055.735-.218-.118-2.031-2.067-2.148-2.31-.085-.177-.092-.312-.092-1.868 0-1.063.019-1.73.05-1.823z" fill="#BDCCE0"/></svg><svg fill="none" viewBox="0 0 38 38" id="svyaznoy" xmlns="http://www.w3.org/2000/svg"><circle cx="19" cy="19" r="19" fill="#4C1E87"/><path d="M6 19c0 1.145 1.037 2 2.406 2 .486 0 .908-.091 1.273-.316v-.748c-.357.2-.833.33-1.281.33-.868 0-1.516-.527-1.516-1.266 0-.738.648-1.266 1.516-1.266.448 0 .924.13 1.281.33v-.748C9.314 17.092 8.892 17 8.406 17 7.036 17 6 17.856 6 19zm20.636-1.023c-.98 0-1.776.678-1.776 1.511 0 .834.795 1.512 1.776 1.512.98 0 1.774-.678 1.774-1.512 0-.833-.795-1.511-1.774-1.511zm0 2.404c-.57 0-1.022-.399-1.022-.893 0-.493.453-.892 1.021-.892.57 0 1.022.399 1.022.892 0 .494-.453.893-1.021.893zm4.6-2.345l-1.474 1.881v-1.88h-.742v2.904h.753l1.473-1.875v1.875H32v-2.904h-.765zm-18.173 1.375c.185-.095.363-.315.363-.56 0-.47-.41-.814-.973-.814h-1.882v2.904h1.958c.562 0 .986-.352.986-.834 0-.327-.226-.589-.452-.696zm-1.738-.803h1.012c.192 0 .335.119.335.28 0 .16-.143.28-.335.28h-1.012v-.56zm1.06 1.761h-1.06v-.63h1.06c.219 0 .377.136.377.315 0 .178-.158.315-.377.315zm2.965-2.332c-.665 0-1.165.434-1.165 1 0 .458.337.832.825.952l-.914.951h.973l.875-.91h.418v.91h.754v-2.904H15.35zm.103.57h.909v.852h-.91c-.3 0-.513-.197-.513-.423 0-.238.213-.428.514-.428zm6.572-.57h-.754v2.904h.754v-1.179h1.472v1.178h.754v-2.904h-.754v1.155h-1.472v-1.154zM17.86 20.77v-.642c.294.134.654.252 1.065.252.5 0 .816-.13.816-.36 0-.206-.276-.285-.627-.285h-.575v-.57h.575c.358 0 .558-.115.558-.27 0-.23-.316-.3-.681-.3-.422 0-.765.106-1.045.224v-.622a2.92 2.92 0 011.154-.221c.73 0 1.323.337 1.323.802a.658.658 0 01-.413.617c.236.097.502.337.502.684 0 .545-.602.92-1.484.92-.506 0-.876-.095-1.168-.229M30.447 17.88c.58 0 1.021-.312 1.07-.768l-.605-.066c0 .198-.206.35-.465.35s-.465-.152-.465-.35l-.604.066c.048.456.49.767 1.069.767" fill="#fff"/></svg><svg fill="none" viewBox="0 0 15 13" id="tg" xmlns="http://www.w3.org/2000/svg"><path fill-rule="evenodd" clip-rule="evenodd" d="M12.004 12.033a1 1 0 01-1.78.53c-1.09-.868-2.79-2.116-2.79-2.116s-1.23 2.167-1.45 2.39a.682.682 0 01-1-.134.863.863 0 00-.04-.1l.69-3.452 4.92-4.833-6.71 3.83S.814 7.24.364 7.063a.7.7 0 01.07-1.262c.64-.326 11.93-4.638 12.31-4.749.38-.11 1.38-.4 1.27.573-.11.973-1.9 9.873-2.01 10.407z" fill="#fff"/></svg><svg fill="none" viewBox="0 0 23 24" id="thumb" xmlns="http://www.w3.org/2000/svg"><circle cx="11.5" cy="12" r="9.5" fill="#fff" stroke="#5CB85C" stroke-width="4"/><path fill-rule="evenodd" clip-rule="evenodd" d="M9 9.5v5h2v-5H9zm3 0v5h2v-5h-2z" fill="#5CB85C"/></svg><svg fill="none" viewBox="0 0 23 23" id="thumb-active" xmlns="http://www.w3.org/2000/svg"><circle cx="11.5" cy="11.5" r="9.5" fill="#fff" stroke="#0F0" stroke-width="4"/><path fill-rule="evenodd" clip-rule="evenodd" d="M9 9v5h2V9H9zm3 0v5h2V9h-2z" fill="#0F0"/></svg><svg fill="none" viewBox="0 0 54 54" id="touch" xmlns="http://www.w3.org/2000/svg"><path fill-rule="evenodd" clip-rule="evenodd" d="M21.986 8.184c-1.188.319-2.328 1.206-2.898 2.252-.598 1.098-.59.96-.592 12.027l-.002 10.174-.956-1.42c-1.096-1.627-1.31-1.871-2.092-2.39-1.808-1.201-4.233-1.21-6.012-.022-1.19.795-2.038 2.022-2.335 3.38-.197.897-.09 2.328.231 3.113.296.721 8.375 13.535 9.183 14.563 1.472 1.874 3.721 3.266 6.306 3.904 1.02.251 11.587.328 13.132.095 4.775-.72 8.408-4.03 9.792-8.921.22-.776.225-.991.257-9.333.032-8.29.027-8.558-.178-9.233-.73-2.402-3.212-3.686-5.823-3.011-.24.062-.286.033-.35-.227-.186-.754-1.29-2.012-2.15-2.451-1.011-.516-2.239-.66-3.291-.387-.317.082-.577.141-.577.131 0-.01-.135-.287-.3-.616-.338-.68-1.28-1.635-1.947-1.975-.989-.504-2.37-.656-3.37-.37l-.238.068V14.89c0-1.557-.048-2.873-.118-3.203-.542-2.552-3.17-4.176-5.672-3.503zm1.862 3.208c.19.115.438.364.554.553.204.335.21.547.21 8.44v8.095h3.164v-3.402c0-3.03.021-3.441.185-3.763.278-.544.69-.799 1.292-.799.603 0 1.015.255 1.292.799.164.322.185.733.185 3.763v3.402h3.164v-2.014c0-1.596.034-2.084.162-2.347.492-1.012 1.954-1.052 2.525-.07.191.33.218.588.249 2.403l.034 2.034 1.548-.03 1.548-.029.064-.668c.053-.556.117-.721.381-.986.579-.579 1.49-.572 2.077.014l.326.326.03 8.04c.026 7.136.01 8.131-.144 8.833-.691 3.16-3.049 5.641-6.238 6.566-.808.234-.912.238-6.675.238-6.26 0-6.196.004-7.595-.552-1.057-.42-1.906-1.009-2.756-1.911-.635-.674-1.537-2.025-4.92-7.372-2.278-3.602-4.194-6.698-4.258-6.88-.184-.528-.068-1.506.231-1.948.738-1.089 2.293-1.378 3.262-.606.223.177 1.874 2.524 4.116 5.85l3.745 5.554.052-15.39c.053-15.358.054-15.39.272-15.687.464-.633 1.302-.832 1.918-.456z" fill="#004EB7"/><path d="M15.107 5.148a1.558 1.558 0 01.093-2.19c.623-.578 1.166-1.04 1.207-1.028.041.012.72.73 1.509 1.595 1.375 1.51 1.425 1.581 1.243 1.759-.51.496-2.095 1.889-2.15 1.889-.034 0-.71-.713-1.501-1.583l-.401-.442zM11.486 10.443c.076-.725.14-1.402.145-1.503.004-.102.066-.185.139-.186.533-.002 4.053.363 4.125.428.05.045.033.74-.04 1.568l-.105 1.178a.338.338 0 01-.337.308c-.606 0-3.934-.338-3.998-.405-.036-.039-.004-.663.072-1.388zM21.48 2.821l-.008-.632-.008-.605A1.564 1.564 0 0123.028 0c.875 0 1.584.71 1.584 1.584V2.88c0 .854-.701 1.543-1.556 1.527A1.606 1.606 0 0121.48 2.82zM26.722 5.095c0-.027.646-.758 1.437-1.625 1.248-1.368 1.46-1.558 1.609-1.442.394.306 2.122 1.913 2.122 1.973 0 .084-2.736 3.108-2.852 3.152-.082.03-2.316-1.954-2.316-2.058zM30.069 9.177c.025-.03.837-.13 1.804-.224.967-.095 1.93-.178 2.14-.185a.403.403 0 01.415.368l.1 1.152c.073.843.114 1.551.092 1.573-.07.07-4.202.414-4.262.355-.074-.074-.35-2.97-.29-3.04z" fill="#AEC1D9"/></svg><svg fill="none" viewBox="0 0 14 12" id="tw" xmlns="http://www.w3.org/2000/svg"><path fill-rule="evenodd" clip-rule="evenodd" d="M6.263 4.345S6.5.997 8.833.968c1.9-.025 2.265.838 2.265.838a4.285 4.285 0 001.557-.862 2.551 2.551 0 01-.637 1.508c.361-.003.71-.13.99-.36a1.942 1.942 0 01-1.038 1.245 9.716 9.716 0 01-1.6 5.917c-1.7 2.469-4.792 2.653-6.488 2.674A9.047 9.047 0 01.015 10.8s2.573.032 3.725-.81a18.236 18.236 0 01-2.55-2.107c.31.026.623-.006.923-.093a13.754 13.754 0 01-2.1-2.9c.318.063.644.08.968.05 0 0-1.5-2.435-.79-4.015 0 .004 2.535 3.206 6.072 3.419z" fill="#fff"/></svg><svg fill="none" viewBox="0 0 22 22" id="up" xmlns="http://www.w3.org/2000/svg"><path d="M18.072 16.5a.786.786 0 110 1.571H3.929a.786.786 0 110-1.571h14.143zm-.786-11.786c.434 0 .786.352.786.786v3.929a.786.786 0 11-1.572 0V7.397l-4.944 4.944a.786.786 0 01-1.037.066l-.074-.066-1.802-1.801-3.373 3.373a.786.786 0 11-1.111-1.111l3.928-3.929a.786.786 0 011.112 0L11 10.675l4.388-4.39h-2.03a.786.786 0 01-.781-.693l-.005-.092c0-.434.351-.786.785-.786h3.929z" fill="#004EB7"/></svg><svg fill="none" viewBox="0 0 16 10" id="vk" xmlns="http://www.w3.org/2000/svg"><path fill-rule="evenodd" clip-rule="evenodd" d="M8.99 1.712V4.97a.34.34 0 00.426.351c.3-.02.978-2.8 1.279-3.406.16-.341.416-.629.738-.826A.608.608 0 0111.8.932h2.878a.464.464 0 01.3.728c-.225.5-2.155 3.61-2.255 3.736a1.31 1.31 0 00-.237.55 1.2 1.2 0 00.312.627c.2.226 1.816 2.005 1.967 2.155.142.164.237.363.275.576a.763.763 0 01-.8.613h-2.342a2.8 2.8 0 01-.952-.565c-.225-.2-1.059-1.152-1.184-1.277a.407.407 0 00-.351-.145c-.15 0-.435.015-.422.585.036.395-.047.792-.238 1.14a.993.993 0 01-.737.274A5 5 0 015.1 9.202C3.526 8.225 1.734 5.614.9 3.948A6.513 6.513 0 010 1.233c.05-.176.05-.3.226-.3h2.6a.836.836 0 01.351.326c.075.1.647 1.812.822 2.113.175.301 1.038 1.95 1.506 1.95a.6.6 0 00.474-.7v-2.18c-.19-.443-.539-.8-.978-1a1.261 1.261 0 01.927-.5c.6-.025 2.105-.025 2.43.024a.782.782 0 01.632.746z" fill="#fff"/></svg><svg fill="none" viewBox="0 0 38 38" id="ymoney" xmlns="http://www.w3.org/2000/svg"><circle cx="19" cy="19" r="19" fill="#8B3FFD"/><g filter="url(#brfilter0_d_701_228)"><path fill-rule="evenodd" clip-rule="evenodd" d="M20.3 12.071c-1.471.225-2.686.863-3.742 1.966-1.088 1.136-1.639 2.2-1.94 3.749-.112.575-.12.488-.127-1.569l-.009-2.178H9l.53 1.757 1.537 5.104 1.008 3.349h2.407l.01-2.318c.005-1.537.034-2.192.086-1.944.301 1.462.579 2.174 1.2 3.077 2.037 2.962 5.94 3.814 8.945 1.953 1.14-.706 2.354-2.186 2.832-3.453.67-1.779.577-4.02-.238-5.698-1.293-2.663-4.185-4.227-7.017-3.795zm2.077 4.568c1.207.65 1.742 2.204 1.186 3.444-.9 2.006-3.485 2.078-4.527.125-.231-.433-.268-.598-.266-1.204.003-1.094.453-1.835 1.423-2.344.505-.266.622-.29 1.192-.255.398.025.765.112.992.234z" fill="#fff"/></g><defs><filter id="brfilter0_d_701_228" x="5" y="12" width="27" height="22" filterUnits="userSpaceOnUse" color-interpolation-filters="sRGB"><feFlood flood-opacity="0" result="BackgroundImageFix"/><feColorMatrix in="SourceAlpha" values="0 0 0 0 0 0 0 0 0 0 0 0 0 0 0 0 0 0 127 0" result="hardAlpha"/><feOffset dy="4"/><feGaussianBlur stdDeviation="2"/><feComposite in2="hardAlpha" operator="out"/><feColorMatrix values="0 0 0 0 0 0 0 0 0 0 0 0 0 0 0 0 0 0 0.12 0"/><feBlend in2="BackgroundImageFix" result="effect1_dropShadow_701_228"/><feBlend in="SourceGraphic" in2="effect1_dropShadow_701_228" result="shape"/></filter></defs></svg><svg fill="none" viewBox="0 0 16 14" id="yt" xmlns="http://www.w3.org/2000/svg"><path fill-rule="evenodd" clip-rule="evenodd" d="M11.003 13.926h-7a4.177 4.177 0 01-4-4.334V5.259a4.178 4.178 0 014-4.333h7a4.178 4.178 0 014 4.334v4.333a4.177 4.177 0 01-4 4.333zm2-8.745a2.133 2.133 0 00-2-2.245h-7a2.133 2.133 0 00-2 2.245V9.67a2.133 2.133 0 002 2.245h7a2.133 2.133 0 002-2.245V5.18zm-7-.268l4 2.513-4 2.51V4.914z" fill="#fff"/></svg><svg fill="none" viewBox="0 0 60 60" id="znko" xmlns="http://www.w3.org/2000/svg"><g clip-path="url(#btclip0_612_1453)" fill="#004EB7"><path d="M51.393 22.113a.94.94 0 00-1.222.524l-.873 2.182a20.012 20.012 0 00-6.264-9.961A19.975 19.975 0 0030 10.021c-3.28 0-6.49.801-9.363 2.326-.295-2.714-.824-4.934-1.595-6.714C17.422 1.895 14.703 0 10.96 0 7.217 0 4.498 1.895 2.88 5.633 1.656 8.454 1.042 12.379 1.001 17.63a1.868 1.868 0 001.118 1.71c.622.279 1.296.524 2.018.736l-2.15 1.228A3.954 3.954 0 000 24.73v1.262a2.947 2.947 0 002.944 2.943h16.033a2.947 2.947 0 002.944-2.943V24.73a3.954 3.954 0 00-1.989-3.426l-2.149-1.228a15.79 15.79 0 002.017-.736 1.869 1.869 0 001.118-1.71 59.681 59.681 0 00-.107-3.225A18.06 18.06 0 0130 11.9c4.335 0 8.528 1.556 11.808 4.381a18.123 18.123 0 015.786 9.456l-1.999-1.5a.94.94 0 00-1.127 1.504l4.008 3.006a.94.94 0 001.436-.403l2.004-5.01a.94.94 0 00-.523-1.221zM19 22.936a2.072 2.072 0 011.041 1.794v1.262c0 .587-.478 1.064-1.065 1.064H2.944a1.066 1.066 0 01-1.065-1.064V24.73c0-.74.399-1.427 1.041-1.794l2.322-1.327c.409.579 2.442 3.279 5.421 4.272a.937.937 0 00.595 0c2.98-.993 5.012-3.693 5.42-4.272L19 22.936zM8.74 18.74l.705.423a2.941 2.941 0 003.029 0l.705-.423c.227.68.695 1.265 1.33 1.629l.528.3c-.47.63-1.995 2.505-4.077 3.32-2.07-.812-3.606-2.69-4.077-3.32l.527-.3a2.95 2.95 0 001.33-1.63zm-1.852-4.472V9.867c.623-.03 1.499-.095 2.45-.231 1.99-.284 3.515-.765 4.552-1.431l1.14 1.14v4.924c0 .722-.384 1.4-1.003 1.772l-2.52 1.512a1.063 1.063 0 01-1.095 0l-2.52-1.512a2.078 2.078 0 01-1.004-1.772zm12.143 3.357c-1.025.459-2.277.831-3.632 1.084a1.077 1.077 0 01-.494-.907v-.098l.088-.053a3.966 3.966 0 001.916-3.383V8.956a.94.94 0 00-.275-.664l-2.004-2.004a.94.94 0 00-1.329 0c-.662.662-2.156 1.19-4.206 1.485-1.67.24-3.132.244-3.146.244a.94.94 0 00-.94.94v5.312c0 1.378.735 2.674 1.916 3.383l.089.053v.098c0 .37-.19.713-.494.907-1.355-.252-2.608-.625-3.633-1.084l-.007-.004c.04-4.982.604-8.66 1.722-11.242 1.312-3.029 3.392-4.5 6.357-4.5 2.966 0 5.045 1.471 6.357 4.5 1.12 2.582 1.682 6.26 1.723 11.242a.16.16 0 01-.008.004zM57.439 50.435l-4.766-1.787a1.07 1.07 0 01-.641-.679l.475-.356a3.942 3.942 0 001.57-2.894l.224-3.366v-.001l.4-6.012a4.964 4.964 0 00-1.323-3.71 4.965 4.965 0 00-3.613-1.567h-5.46a4.966 4.966 0 00-3.614 1.567 4.966 4.966 0 00-1.323 3.71l.625 9.379c.008.116.022.231.04.345A17.972 17.972 0 0129.999 48.1a18.096 18.096 0 01-11.808-4.381 18.123 18.123 0 01-5.786-9.456l2 1.5a.94.94 0 001.127-1.504l-4.009-3.006a.94.94 0 00-1.436.403l-2.004 5.01a.94.94 0 101.745.698l.873-2.182a20.013 20.013 0 006.264 9.96 19.977 19.977 0 0013.034 4.838 19.84 19.84 0 0010.777-3.154c.221.295.485.561.786.787l.476.357a1.07 1.07 0 01-.642.678l-4.766 1.787a3.964 3.964 0 00-2.56 3.695v2.927A2.947 2.947 0 0037.014 60h20.041A2.948 2.948 0 0060 57.056V54.13a3.964 3.964 0 00-2.56-3.694zm-16.197-15.22a3.039 3.039 0 01.822-2.301 3.039 3.039 0 012.24-.972h5.46a3.04 3.04 0 012.242.972c.587.627.878 1.444.821 2.3l-.01.14c-3.192 1.818-9.593 2.521-11.386 2.687l-.188-2.826zm.626 9.379l-.312-4.677c1.675-.149 7.385-.76 11.117-2.397l-.247 3.708c-.104 1.552-1.506 2.864-3.062 2.864h-2.33a.94.94 0 000 1.879h2.33c.995 0 1.939-.316 2.73-.852-.132.39-.377.738-.714.99l-2.103 1.578a2.08 2.08 0 01-1.24.413h-2.004a2.08 2.08 0 01-1.24-.413L42.69 46.11a2.064 2.064 0 01-.822-1.516zm4.227 13.527h-9.081a1.066 1.066 0 01-1.065-1.065V54.13c0-.856.539-1.634 1.341-1.935l3.371-1.264 5.434 3.623v3.568zm-3.37-8.073c.346-.247.634-.565.844-.93l.096.072a3.97 3.97 0 002.367.79h2.005a3.97 3.97 0 002.367-.79l.096-.072c.21.365.498.683.844.93l-4.31 2.873-4.309-2.873zm15.395 7.008c0 .588-.477 1.065-1.064 1.065h-9.082v-3.568l5.434-3.623 3.371 1.264a2.076 2.076 0 011.341 1.935v2.927z"/></g><defs><clipPath id="btclip0_612_1453"><path fill="#fff" d="M0 0h60v60H0z"/></clipPath></defs></svg></svg>