<?xml version="1.0" encoding="utf-8"?><svg viewBox="0 0 47 47" xmlns="http://www.w3.org/2000/svg" xmlns:xlink="http://www.w3.org/1999/xlink"><style>:root>svg{display:none}:root>svg:target{display:block}</style><svg viewBox="0 0 34 34" id="arrow" xmlns="http://www.w3.org/2000/svg"><path d="M32.992 17.153H1.314M17.153 1.314L1.313 17.153l15.84 15.839"/></svg><svg viewBox="0 0 43 34" id="email" xmlns="http://www.w3.org/2000/svg"><path fill-rule="evenodd" clip-rule="evenodd" d="M2.027 2.063A6.304 6.304 0 016.485.217h29.42a6.304 6.304 0 016.303 6.304v21.014a6.304 6.304 0 01-6.304 6.304H6.484a6.304 6.304 0 01-6.303-6.304V6.52c0-1.672.664-3.276 1.846-4.458zm20.66 14.713L35.042 4.419H7.346l12.356 12.357a2.101 2.101 0 002.984 0zM37.39 29.02c.394-.394.615-.928.615-1.485V7.382L25.65 19.738a6.304 6.304 0 01-8.91 0L4.383 7.382v20.153a2.102 2.102 0 002.102 2.101h29.42c.556 0 1.09-.221 1.485-.616z"/></svg><svg viewBox="0 0 43 36" id="tg" xmlns="http://www.w3.org/2000/svg"><path fill-rule="evenodd" clip-rule="evenodd" d="M42.612 2.85C42.936-.83 39.048.686 39.048.686c-2.87 1.189-5.831 2.396-8.824 3.617-9.279 3.785-18.865 7.695-27.03 11.543-4.429 1.625-1.837 3.249-1.837 3.249l7.02 2.166c3.24.974 4.968-.109 4.968-.109l15.12-10.287c5.4-3.682 4.103-.65 2.807.65l-11.34 10.828c-1.727 1.516-.863 2.816-.107 3.466 2.142 1.89 7.413 5.349 9.714 6.859.598.392.996.654 1.085.72.54.434 3.456 2.383 5.4 1.95 1.944-.433 2.16-2.924 2.16-2.924l2.592-17c.389-2.952.835-5.79 1.19-8.055.337-2.14.593-3.77.646-4.507z"/></svg><svg viewBox="0 0 43 27" id="vk" xmlns="http://www.w3.org/2000/svg"><path fill-rule="evenodd" clip-rule="evenodd" d="M.07.579c.34 16.38 8.53 26.225 22.89 26.225h.814v-9.372c5.277.525 9.266 4.384 10.868 9.372h7.455c-2.047-7.456-7.429-11.577-10.79-13.152 3.361-1.943 8.086-6.668 9.215-13.073h-6.773c-1.47 5.198-5.827 9.923-9.975 10.369V.578h-6.773v18.166c-4.2-1.05-9.503-6.142-9.739-18.165H.07z"/></svg><svg viewBox="0 0 47 47" id="wa" xmlns="http://www.w3.org/2000/svg"><path fill-rule="evenodd" clip-rule="evenodd" d="M39.64 7.37C35.313 3.04 29.561.654 23.433.652 10.807.652.53 10.928.525 23.559A22.87 22.87 0 003.583 35.01L.333 46.882l12.144-3.185a22.887 22.887 0 0010.947 2.788h.01c12.625 0 22.902-10.277 22.908-22.907A22.762 22.762 0 0039.639 7.37zM23.434 42.616h-.008a19.016 19.016 0 01-9.691-2.654l-.696-.413-7.207 1.89 1.924-7.026-.453-.72a18.995 18.995 0 01-2.91-10.134C4.396 13.061 12.938 4.52 23.441 4.52a18.91 18.91 0 0113.46 5.584 18.926 18.926 0 015.572 13.47c-.003 10.5-8.545 19.042-19.04 19.042zm10.443-14.26c-.572-.287-3.386-1.672-3.911-1.863-.525-.19-.907-.287-1.288.287-.382.573-1.479 1.862-1.813 2.244-.334.382-.668.43-1.24.143-.093-.047-.22-.102-.378-.17-.806-.35-2.396-1.04-4.225-2.671-1.701-1.518-2.85-3.393-3.184-3.965-.334-.573-.036-.883.25-1.168.172-.172.37-.412.567-.652.098-.12.197-.24.292-.351.242-.283.348-.498.49-.79l.082-.165c.191-.382.096-.716-.047-1.003-.096-.191-.638-1.512-1.13-2.709a446.51 446.51 0 00-.635-1.54c-.41-.986-.826-.984-1.16-.982-.044 0-.087.001-.128-.001-.334-.017-.716-.02-1.097-.02-.382 0-1.002.143-1.527.716l-.112.122c-.597.636-1.891 2.018-1.891 4.653 0 2.811 2.04 5.527 2.335 5.919l.002.003c.02.024.052.072.1.14.683.98 4.31 6.184 9.679 8.503a32.8 32.8 0 003.263 1.205c1.371.436 2.619.375 3.606.227 1.1-.164 3.386-1.384 3.863-2.721.477-1.337.477-2.484.334-2.722-.115-.193-.386-.324-.787-.518-.096-.046-.2-.096-.31-.152z"/></svg></svg>