<?xml version="1.0" encoding="utf-8"?><svg viewBox="0 0 48 48" xmlns="http://www.w3.org/2000/svg" xmlns:xlink="http://www.w3.org/1999/xlink"><style>:root>svg{display:none}:root>svg:target{display:block}</style><svg viewBox="0 0 24 24" id="add" xmlns="http://www.w3.org/2000/svg"><path d="M17.143 10.286c.473 0 .857.383.857.857v3.428h3.429a.857.857 0 010 1.715H18v3.428a.857.857 0 01-1.714 0v-3.428h-3.429a.857.857 0 010-1.715h3.429v-3.428c0-.474.383-.857.857-.857zm-9 4.285a.857.857 0 010 1.715H3.857a.857.857 0 010-1.715h4.286zm4.286-5.142a.857.857 0 110 1.714H3.857a.857.857 0 110-1.714h8.572zm6-5.143a.857.857 0 110 1.714H3.857a.857.857 0 010-1.714H18.43z"/></svg><svg viewBox="0 0 11 7" id="arrow" xmlns="http://www.w3.org/2000/svg"><path fill-rule="evenodd" clip-rule="evenodd" d="M10.781 1.725L6.028 6.29a.769.769 0 01-1.056 0L.219 1.725a.697.697 0 010-1.015.769.769 0 011.056 0L5.5 4.768 9.725.71a.769.769 0 011.056 0 .697.697 0 010 1.015z"/></svg><svg viewBox="0 0 20 21" id="authorize" xmlns="http://www.w3.org/2000/svg"><path d="M7.322 11.214c3.536 0 6.607 1.26 6.607 4.03 0 1.441-.558 2.042-1.755 2.042H2.47c-1.197 0-1.755-.6-1.755-2.041 0-2.772 3.071-4.03 6.608-4.03zm0 1.429c-2.82 0-5.18.967-5.18 2.602 0 .636-.05.617.267.613h9.765c.383 0 .326.06.326-.613 0-1.634-2.36-2.602-5.178-2.602zm8.602-6.934a.714.714 0 011.01 0l2.857 2.857a.714.714 0 010 1.01l-2.857 2.858a.714.714 0 11-1.01-1.01l1.637-1.638h-4.347a.714.714 0 01-.71-.631L12.5 9.07c0-.394.32-.714.714-.714h4.347L15.924 6.72a.714.714 0 01-.06-.942l.06-.068zM7.143 2.643a3.928 3.928 0 013.929 3.928 3.928 3.928 0 01-3.93 3.929 3.928 3.928 0 01-3.928-3.929 3.928 3.928 0 013.929-3.928zm0 1.428a2.5 2.5 0 100 5 2.5 2.5 0 100-5z"/></svg><svg viewBox="0 0 23 23" id="contacts" xmlns="http://www.w3.org/2000/svg"><g clip-path="url(#dclip0_754_3774)"><path d="M13.582.127a9.38 9.38 0 00-6.275 2.402c.37.588.58 1.272.6 1.978v.004c.008.318.027.637.054.955a6.943 6.943 0 015.621-2.87 6.957 6.957 0 016.95 6.949c0 3.792-3.053 6.882-6.83 6.946.345.289.702.563 1.068.821l.002.001.002.002c.5.352.906.814 1.192 1.342C20.008 17.6 23 13.915 23 9.545 23 4.352 18.775.127 13.582.127zM13.35 19.332a43.049 43.049 0 01-2.707-2.321c-.283-.262-.628-.425-.983-.425-.271 0-.54.087-.76.268l-.683.575a20.744 20.744 0 01-4.034-7.523l.857-.251c.63-.193.926-.865.833-1.54-.2-1.466-.31-2.194-.434-3.539-.064-.689-.523-1.287-1.18-1.323a3.173 3.173 0 00-.307-.015c-2.444 0-4.573 2.833-3.785 6.3.98 4.293 3.1 8.248 6.134 11.44 1.242 1.304 2.765 1.895 4.14 1.895 1.45 0 2.736-.657 3.36-1.826.333-.568.09-1.284-.45-1.715z"/><path d="M10.75 9.72c-.652.603-1.078 1.078-1.303 1.451-.158.263-.274.54-.344.826a.445.445 0 00.435.554h3.106a.691.691 0 000-1.381h-1.403l.036-.04c.091-.104.316-.32.667-.641.368-.338.616-.59.76-.773a3.26 3.26 0 00.476-.797c.103-.259.155-.534.155-.82 0-.512-.186-.947-.552-1.292-.363-.343-.863-.516-1.486-.516-.567 0-1.048.148-1.43.44-.23.177-.408.421-.528.728a.718.718 0 00.056.632.718.718 0 00.611.342.73.73 0 00.69-.492.579.579 0 01.126-.218c.108-.11.254-.165.446-.165.196 0 .341.051.446.156.105.104.155.257.155.466 0 .194-.069.396-.206.601-.073.108-.292.36-.914.938zM16.97 6.29h-.52a.447.447 0 00-.369.196l-2.4 3.513a.612.612 0 00-.107.346v.57c0 .246.2.447.447.447h1.97v.476a.713.713 0 001.426 0v-.476h.071a.663.663 0 000-1.324h-.071v-3.3c0-.247-.2-.447-.447-.447zm-.978 3.748h-.885l.885-1.315v1.315z"/></g><defs><clipPath id="dclip0_754_3774"><path d="M0 0h23v23H0z"/></clipPath></defs></svg><svg viewBox="0 0 16 15" id="dislike" xmlns="http://www.w3.org/2000/svg"><path fill-rule="evenodd" clip-rule="evenodd" d="M7.767 14.789a.56.56 0 01-.3-.522c0-.637-.199-1.754-.45-2.522-.456-1.398-1.02-2.046-2.35-2.704l-.4-.198V.9L4.81.725C5.523.494 5.932.382 6.433.28c1-.202 1.45-.228 3.862-.228 2.268 0 2.325.004 2.723.214.206.109.506.38.638.576.19.283.265.825.165 1.205l-.048.182.128.042c.439.142.835.567.978 1.048.07.235.073.633.007.849l-.05.16.232.1c.334.145.62.418.781.751.114.235.131.305.146.606.02.4-.057.687-.26.967-.066.093-.11.186-.098.207.012.02.06.086.104.145.045.06.124.217.175.352.082.215.092.283.08.578-.012.284-.03.368-.124.562-.204.424-.561.729-1.04.888-.23.076-.278.077-2.465.09l-2.231.011.066.13c.228.45.444 1.801.447 2.803.001.46-.01.597-.065.756-.25.723-.767 1.242-1.46 1.464-.23.074-.378.095-.75.107-.416.014-.476.009-.607-.057zM.405 9.549a.555.555 0 01-.339-.238C.003 9.217 0 9.034 0 4.813v-4.4L.08.295C.245.053.267.05 1.625.06c1.165.01 1.22.012 1.314.082.054.04.131.116.171.17.073.096.074.115.083 4.446l.01 4.35-.081.157c-.152.296-.165.299-1.467.306-.626.003-1.188-.006-1.249-.021z"/></svg><svg viewBox="0 0 26 26" id="journal" xmlns="http://www.w3.org/2000/svg"><path d="M11.375 19.5H3.25v1.625h8.125V19.5zM11.375 14.625H3.25v1.625h8.125v-1.625zM21.125 11.375H4.875A1.625 1.625 0 013.25 9.75V4.875A1.625 1.625 0 014.875 3.25h16.25a1.625 1.625 0 011.625 1.625V9.75a1.625 1.625 0 01-1.625 1.625zm-16.25-6.5V9.75h16.25V4.875H4.875zM21.125 22.75H16.25a1.625 1.625 0 01-1.625-1.625V16.25a1.625 1.625 0 011.625-1.625h4.875a1.625 1.625 0 011.625 1.625v4.875a1.625 1.625 0 01-1.625 1.625zm-4.875-6.5v4.875h4.875V16.25H16.25z"/></svg><svg viewBox="0 0 20 21" id="login" xmlns="http://www.w3.org/2000/svg"><path d="M7.322 11.214c3.536 0 6.607 1.26 6.607 4.03 0 1.441-.558 2.042-1.754 2.042H2.469c-1.196 0-1.754-.6-1.754-2.041 0-2.772 3.07-4.03 6.607-4.03zm0 1.429c-2.819 0-5.179.967-5.179 2.602 0 .636-.05.617.266.613h9.766c.383 0 .326.06.326-.613 0-1.634-2.36-2.602-5.179-2.602zm8.602-6.934a.714.714 0 011.01 0l2.857 2.857a.714.714 0 010 1.01l-2.857 2.858a.714.714 0 01-1.01-1.01l1.637-1.638h-4.346a.714.714 0 01-.71-.631l-.004-.084c0-.394.32-.714.714-.714h4.346L15.924 6.72a.714.714 0 01-.06-.942l.06-.068zm-8.78-3.066a3.928 3.928 0 013.928 3.928A3.928 3.928 0 017.143 10.5a3.928 3.928 0 01-3.928-3.929 3.928 3.928 0 013.928-3.928zm0 1.428a2.5 2.5 0 100 5 2.5 2.5 0 100-5z"/></svg><svg viewBox="0 0 8 31" id="more" xmlns="http://www.w3.org/2000/svg"><path d="M7.281 27.347c0 .918-.37 1.799-1.03 2.448a3.544 3.544 0 01-2.485 1.014 3.544 3.544 0 01-2.486-1.014 3.435 3.435 0 01-1.03-2.448c0-.918.37-1.798 1.03-2.447a3.544 3.544 0 012.486-1.014c.932 0 1.826.364 2.486 1.014.659.649 1.03 1.53 1.03 2.447zm0-11.538c0 .918-.37 1.798-1.03 2.447a3.544 3.544 0 01-2.485 1.014 3.544 3.544 0 01-2.486-1.014A3.435 3.435 0 01.25 15.81c0-.918.37-1.799 1.03-2.448a3.544 3.544 0 012.486-1.014c.932 0 1.826.365 2.486 1.014.659.65 1.03 1.53 1.03 2.448zm0-11.539c0 .918-.37 1.799-1.03 2.448a3.544 3.544 0 01-2.485 1.014A3.544 3.544 0 011.28 6.718 3.435 3.435 0 01.25 4.27c0-.918.37-1.798 1.03-2.447A3.544 3.544 0 013.766.809c.932 0 1.826.365 2.486 1.014.659.649 1.03 1.53 1.03 2.447z"/></svg><svg data-name="Layer 1" viewBox="0 0 48 48" id="show-podbor" xmlns="http://www.w3.org/2000/svg"><path d="M47 12a2 2 0 00-2-2H24a2 2 0 000 4h21a2 2 0 002-2zM3 14h5.35a6 6 0 100-4H3a2 2 0 000 4zm11-4a2 2 0 11-2 2 2 2 0 012-2zM45 22h-7.35a6 6 0 100 4H45a2 2 0 000-4zm-13 4a2 2 0 112-2 2 2 0 01-2 2zM22 22H3a2 2 0 000 4h19a2 2 0 000-4zM45 34H28a2 2 0 000 4h17a2 2 0 000-4zM18 30a6 6 0 00-5.65 4H3a2 2 0 000 4h9.35A6 6 0 1018 30zm0 8a2 2 0 112-2 2 2 0 01-2 2z"/></svg></svg>