<?xml version="1.0" encoding="utf-8"?><svg viewBox="0 0 63 63" xmlns="http://www.w3.org/2000/svg" xmlns:xlink="http://www.w3.org/1999/xlink"><style>:root>svg{display:none}:root>svg:target{display:block}</style><svg fill="none" viewBox="0 0 33 34" id="accordion" xmlns="http://www.w3.org/2000/svg"><rect x=".5" y=".573" width="32" height="32" rx="5.5" fill="#F1F4F8"/><path fill-rule="evenodd" clip-rule="evenodd" d="M20.821 15.39l-3.889 3.043a.736.736 0 01-.864 0l-3.889-3.043c-.239-.187-.239-.49 0-.676a.736.736 0 01.864 0l3.457 2.705 3.457-2.705a.736.736 0 01.864 0c.239.186.239.49 0 .676z" fill="#004EB7"/><rect x=".5" y=".573" width="32" height="32" rx="5.5" stroke="#CBDBEE"/></svg><svg fill="none" viewBox="0 0 38 38" id="app" xmlns="http://www.w3.org/2000/svg"><circle cx="19" cy="19" r="19" fill="#5CB85C"/><path fill-rule="evenodd" clip-rule="evenodd" d="M13.368 6.038c-.515.13-.977.533-1.218 1.064l-.15.331v23.142l.15.331c.19.42.491.737.891.937l.315.157h11.288l.315-.157c.4-.2.7-.516.891-.937l.15-.33V7.434l-.15-.332a1.891 1.891 0 00-.892-.936l-.314-.157L19.097 6c-3.128-.005-5.626.012-5.729.037zm8.346 1.193c.034.043.072.186.084.318.017.192 0 .268-.084.38l-.105.14h-2.583c-2.47 0-2.588-.004-2.697-.097-.095-.081-.114-.145-.114-.374 0-.481-.23-.445 2.785-.445 2.324 0 2.66.01 2.714.078zm2.954 10.375v8.418H13.332V9.188h11.336v8.418zm-5.144 10.28c.555.29.774 1.006.49 1.6a1.117 1.117 0 01-2.028 0c-.385-.804.16-1.733 1.014-1.733.195 0 .343.037.524.132z" fill="#fff"/></svg><svg fill="none" viewBox="0 0 11 7" id="arrow" xmlns="http://www.w3.org/2000/svg"><path fill-rule="evenodd" clip-rule="evenodd" d="M10.781 1.725L6.028 6.29a.769.769 0 01-1.056 0L.219 1.725a.697.697 0 010-1.015.769.769 0 011.056 0L5.5 4.768 9.725.71a.769.769 0 011.056 0 .697.697 0 010 1.015z" fill="#777"/></svg><svg fill="none" viewBox="0 0 30 23" id="bank-card" xmlns="http://www.w3.org/2000/svg"><g filter="url(#adfilter0_d_376_419)"><path fill-rule="evenodd" clip-rule="evenodd" d="M5.2.027c-.439.106-.854.46-1.064.905L4 1.222v12.54l.118.254c.213.459.54.761.974.897.27.085.413.087 9.905.087 10.674 0 9.868.022 10.314-.284.26-.178.42-.375.574-.705l.115-.248V1.223L25.867.94a1.763 1.763 0 00-.782-.81l-.247-.123-9.752-.006C9.723-.003 5.274.009 5.2.027zm18.47 2.796a.575.575 0 01.215.162c.143.207.053.58-.166.68-.083.039-.817.052-2.84.052h-2.727l-.134-.125a.47.47 0 01.141-.767c.201-.088 5.303-.09 5.512-.002zM9.629 4.583c.198.158.21.254.197 1.488-.013 1.154-.013 1.154-.117 1.266a.66.66 0 01-.259.155c-.206.058-2.86.057-3.068-.001a.554.554 0 01-.248-.158c-.084-.107-.088-.168-.086-1.31.001-1.28.011-1.348.218-1.464.08-.045.454-.058 1.68-.059 1.503-.001 1.58.002 1.683.084zM8.861 9.81c.194.081.284.224.284.451 0 .151-.025.215-.126.316l-.126.127-1.284-.001c-1.152-.001-1.294-.009-1.376-.076-.289-.236-.243-.671.087-.816.196-.086 2.337-.087 2.54-.001zm4.262 0c.338.142.39.578.096.817-.082.067-.224.075-1.376.076H10.56l-.126-.126a.47.47 0 01.146-.765c.2-.087 2.338-.09 2.544-.002zm4.265 0c.166.07.281.26.281.462 0 .098-.042.179-.146.284l-.146.148h-1.265c-1.39 0-1.387 0-1.525-.269a.434.434 0 01-.042-.271c.028-.15.209-.35.347-.384.048-.011.596-.023 1.218-.026.89-.004 1.163.008 1.278.057zm4.317.025c.257.172.282.56.05.758l-.131.11h-2.527l-.131-.11a.467.467 0 01.097-.776c.192-.098 2.493-.081 2.643.018zm-7.146 2.127c.256.17.281.56.049.757l-.131.111H6.31l-.133-.133a.465.465 0 01.143-.76c.209-.092 8.099-.069 8.239.025z" fill="#fff"/></g><defs><filter id="adfilter0_d_376_419" x="0" y="0" width="30" height="23" filterUnits="userSpaceOnUse" color-interpolation-filters="sRGB"><feFlood flood-opacity="0" result="BackgroundImageFix"/><feColorMatrix in="SourceAlpha" values="0 0 0 0 0 0 0 0 0 0 0 0 0 0 0 0 0 0 127 0" result="hardAlpha"/><feOffset dy="4"/><feGaussianBlur stdDeviation="2"/><feComposite in2="hardAlpha" operator="out"/><feColorMatrix values="0 0 0 0 0 0 0 0 0 0 0 0 0 0 0 0 0 0 0.12 0"/><feBlend in2="BackgroundImageFix" result="effect1_dropShadow_376_419"/><feBlend in="SourceGraphic" in2="effect1_dropShadow_376_419" result="shape"/></filter></defs></svg><svg fill="none" viewBox="0 0 38 38" id="card-bank" xmlns="http://www.w3.org/2000/svg"><circle cx="19" cy="19" r="19" fill="#004EB7"/><g filter="url(#aefilter0_d_701_223)"><path fill-rule="evenodd" clip-rule="evenodd" d="M9.2 12.027c-.439.106-.854.46-1.064.905l-.136.29v12.54l.118.254c.213.459.54.761.974.897.27.085.413.087 9.905.087 10.674 0 9.868.022 10.314-.284.26-.178.42-.375.574-.705l.115-.248v-12.54l-.133-.283a1.764 1.764 0 00-.782-.81l-.247-.123-9.752-.006c-5.363-.004-9.812.008-9.886.026zm18.47 2.796a.574.574 0 01.215.162c.143.207.053.58-.166.68-.083.039-.817.052-2.84.052h-2.727l-.134-.126a.47.47 0 01.141-.766c.201-.088 5.303-.09 5.512-.002zm-14.042 1.76c.198.158.21.254.197 1.488-.013 1.154-.013 1.154-.117 1.266a.66.66 0 01-.259.155c-.206.058-2.86.057-3.068-.001a.553.553 0 01-.248-.158c-.084-.107-.088-.168-.086-1.31.001-1.28.011-1.349.218-1.464.08-.045.454-.058 1.68-.059 1.503-.001 1.58.002 1.683.084zm-.767 5.227c.194.081.284.224.284.451 0 .151-.025.215-.126.316l-.126.127-1.284-.001c-1.152-.001-1.294-.009-1.376-.076-.289-.236-.243-.671.087-.816.196-.086 2.337-.087 2.54-.001zm4.262 0c.338.142.39.578.096.817-.082.067-.224.075-1.376.076H14.56l-.126-.126a.47.47 0 01.146-.765c.2-.087 2.338-.09 2.544-.002zm4.265 0c.166.07.281.26.281.462 0 .098-.042.179-.146.284l-.146.148h-1.265c-1.39 0-1.387 0-1.525-.268a.434.434 0 01-.042-.272c.028-.15.209-.35.347-.384.048-.011.596-.023 1.218-.026.89-.004 1.163.008 1.278.057zm4.317.026c.257.17.282.56.05.757l-.131.11h-2.527l-.131-.11a.467.467 0 01.097-.776c.192-.098 2.493-.082 2.643.018zm-7.146 2.126c.256.17.281.56.049.757l-.131.111H10.31l-.133-.133a.465.465 0 01.143-.76c.209-.092 8.099-.069 8.239.025z" fill="#fff"/></g><defs><filter id="aefilter0_d_701_223" x="4" y="12" width="30" height="23" filterUnits="userSpaceOnUse" color-interpolation-filters="sRGB"><feFlood flood-opacity="0" result="BackgroundImageFix"/><feColorMatrix in="SourceAlpha" values="0 0 0 0 0 0 0 0 0 0 0 0 0 0 0 0 0 0 127 0" result="hardAlpha"/><feOffset dy="4"/><feGaussianBlur stdDeviation="2"/><feComposite in2="hardAlpha" operator="out"/><feColorMatrix values="0 0 0 0 0 0 0 0 0 0 0 0 0 0 0 0 0 0 0.12 0"/><feBlend in2="BackgroundImageFix" result="effect1_dropShadow_701_223"/><feBlend in="SourceGraphic" in2="effect1_dropShadow_701_223" result="shape"/></filter></defs></svg><svg fill="none" viewBox="0 0 38 38" id="cyberplat" xmlns="http://www.w3.org/2000/svg"><circle cx="19" cy="19" r="19" fill="#0155A3"/><g filter="url(#affilter0_d_701_225)" fill="#fff"><path d="M11.207 21.696c-.224.16-.402.252-.602.286-.327.058-.55-.108-.55-.44 0-.482.155-.94.252-1.405.235-1.117.481-2.23.705-3.352.057-.281.132-.425.464-.396.481.04.481.012.378.493-.298 1.375-.59 2.75-.877 4.132-.023.12-.12.31.104.35.217.04.24-.15.269-.293.315-1.461.625-2.923.923-4.384.046-.212.109-.298.344-.292.572.017.578.006.458.556l-1.255 5.891c-.155.728-.441.951-1.186.951h-.258c-.642 0-.906-.435-.62-1.026.035-.068.07-.08.127-.08h.286c.407 0 .413 0 .379.384-.012.11-.012.195.12.207.115.011.212-.012.24-.144.012-.057.03-.109.04-.166.081-.413.167-.82.259-1.272zM9.573 15.02c.184 0 .361-.012.545 0 .36.023.527.194.504.55-.034.533-.206 1.043-.298 1.57-.017.103-.092.109-.166.109-.27 0-.62.097-.78-.034-.166-.144.046-.476.086-.728.023-.16.058-.315.098-.476.034-.137.069-.286-.115-.327-.183-.045-.28.086-.32.247-.08.344-.15.688-.224 1.031-.281 1.33-.568 2.66-.848 3.995-.029.126-.115.31.097.355.195.046.298-.097.332-.27.098-.435.195-.87.281-1.312.023-.137.063-.2.212-.195.264.018.608-.08.774.052.126.103-.063.464-.109.716-.057.281-.115.562-.178.837-.126.545-.447.825-.997.854-.326.017-.647.012-.974 0-.367-.017-.499-.155-.493-.521.012-.642.218-1.255.344-1.88.24-1.192.499-2.384.756-3.576.167-.785.436-1.003 1.238-1.003.086 0 .16 0 .235.006zM23.316 15.014h.688c.499.006.694.2.62.688-.075.504-.196 1.008-.299 1.512-.092.459-.183.912-.292 1.364-.16.67-.464.912-1.146.912-.075 0-.155.011-.23 0-.2-.03-.275.051-.315.252-.132.682-.292 1.358-.43 2.04-.034.166-.091.223-.258.218a5.253 5.253 0 00-.601 0c-.166.005-.184-.046-.155-.2.47-2.196.94-4.385 1.404-6.586.029-.149.086-.212.24-.2.259.011.516 0 .774 0zm-.779 3.834c.304.017.459-.104.516-.373.109-.533.229-1.06.344-1.587.068-.31.137-.613.195-.923.034-.172-.058-.27-.224-.304-.178-.034-.178.092-.2.207-.207.985-.419 1.971-.631 2.98zM15.018 15.014c-.115.527-.218 1.026-.332 1.553.183-.075.344-.155.51-.195.458-.12.705.069.63.527-.109.676-.263 1.341-.407 2.012-.166.78-.338 1.558-.51 2.344-.051.246-.143.475-.344.642-.235.194-.515.206-.796.034-.092-.052-.195-.212-.258.034-.006.035-.75.046-.785.018-.092-.064-.017-.138-.006-.201.315-1.502.63-2.997.951-4.493.144-.688.298-1.376.436-2.063.034-.16.092-.224.264-.212.212.017.424 0 .647 0zm-.109 2.28c.029-.234-.08-.246-.206-.211-.126.034-.166.143-.19.258-.085.418-.177.836-.263 1.255-.172.819-.35 1.639-.521 2.458-.023.103-.058.218.086.264.149.045.235-.035.28-.172.012-.035.012-.075.018-.115l.464-2.206c.12-.527.235-1.055.332-1.53zM17.454 19.484c-.625 0-.625 0-.757.619-.069.326-.143.647-.212.974-.023.109-.091.246.069.286.172.046.264-.068.298-.229.063-.286.132-.573.178-.865.034-.195.114-.258.32-.252.59.011.596.005.47.584-.063.298-.097.602-.229.883-.12.258-.31.43-.596.475a4.034 4.034 0 01-1.083.012c-.223-.023-.327-.16-.332-.39-.012-.481.143-.94.235-1.404.206-.986.412-1.971.63-2.957.126-.567.453-.82 1.037-.82.184 0 .367-.011.545.018.378.057.596.338.527.71-.143.74-.304 1.473-.458 2.207-.023.103-.07.166-.19.154-.143-.011-.298-.005-.452-.005zm-.298-.573c.154.034.195-.058.223-.184l.293-1.398c.022-.115.097-.258-.087-.298-.166-.034-.24.069-.269.218-.103.492-.212.985-.326 1.478-.046.155.011.212.166.184zM26.657 21.782c-.24.149-.458.27-.71.275-.293.006-.436-.115-.43-.407.011-.567.223-1.1.298-1.656.074-.596.407-.974.945-1.175.447-.166.7-.464.751-.946.023-.189.08-.372.115-.555.017-.104.074-.247-.086-.287-.143-.034-.235.069-.27.2a4.914 4.914 0 00-.137.642c-.023.178-.092.235-.27.235-.63 0-.63.006-.492-.619.212-.974.35-1.083 1.34-1.083.087 0 .173-.005.259 0 .412.029.647.316.561.722-.332 1.565-.67 3.124-.997 4.688-.034.167-.109.2-.252.19-.143-.006-.287-.012-.43 0-.155.01-.218-.058-.195-.224zm.596-2.716c-.275.097-.435.24-.487.504-.097.493-.212.98-.32 1.473-.024.108-.064.24.102.275.138.028.23-.052.258-.172.15-.682.293-1.364.447-2.08zM30.72 15.014c-.08.4-.137.78-.246 1.14-.068.24.03.258.212.24.07-.005.132-.005.201 0 .034 0 .103.007.103.024.04.166-.046.315-.069.47-.017.109-.08.126-.177.131-.453.03-.459.03-.55.47a711.8 711.8 0 00-.717 3.376c-.091.436-.074.453.482.527 0 .017.011.04.005.052-.068.177-.005.487-.189.521-.338.058-.71.098-1.031-.097-.195-.12-.23-.333-.195-.533.091-.516.195-1.026.298-1.542.177-.848.355-1.696.544-2.538.04-.184.018-.27-.189-.241-.16.023-.218-.023-.178-.2.058-.247.075-.5.442-.425.149.029.132-.114.149-.195.074-.326.143-.653.2-.98.029-.149.086-.229.264-.212.212.029.418.012.642.012zM19.843 16.395c.131.063.36-.12.418.166.034-.011.074-.017.109-.034.046-.018.086-.046.126-.063.252-.104.521-.224.756-.035.235.184.126.453.08.694-.068.332-.148.67-.211 1.003-.023.137-.07.189-.218.194-.67.023-.67.03-.55-.624l.068-.367c.023-.109.058-.218-.091-.252-.132-.029-.224.046-.264.166-.046.155-.074.315-.109.47-.286 1.358-.579 2.716-.86 4.075-.034.177-.108.206-.263.206-.63.006-.63.011-.499-.613.333-1.582.677-3.164.992-4.745.08-.35.315-.201.516-.241zM26.21 15.014c-.339 1.599-.677 3.169-1.01 4.74-.142.658-.291 1.317-.418 1.982-.04.2-.103.264-.309.264-.613-.012-.607 0-.481-.585.435-2.017.87-4.034 1.283-6.057.058-.287.16-.379.436-.344.155.017.315 0 .498 0z"/></g><defs><filter id="affilter0_d_701_225" x="3" y="15" width="32.001" height="16.794" filterUnits="userSpaceOnUse" color-interpolation-filters="sRGB"><feFlood flood-opacity="0" result="BackgroundImageFix"/><feColorMatrix in="SourceAlpha" values="0 0 0 0 0 0 0 0 0 0 0 0 0 0 0 0 0 0 127 0" result="hardAlpha"/><feOffset dy="4"/><feGaussianBlur stdDeviation="2"/><feComposite in2="hardAlpha" operator="out"/><feColorMatrix values="0 0 0 0 0 0 0 0 0 0 0 0 0 0 0 0 0 0 0.12 0"/><feBlend in2="BackgroundImageFix" result="effect1_dropShadow_701_225"/><feBlend in="SourceGraphic" in2="effect1_dropShadow_701_225" result="shape"/></filter></defs></svg><svg fill="none" viewBox="0 0 38 38" id="elecsnet" xmlns="http://www.w3.org/2000/svg"><path d="M4.35 31.056C2.27 28.653 1.04 25.833.365 22.75c-.052-.226 0-.47-.19-.644a.691.691 0 00-.07-.052c-.035.035-.07.087-.104.122v-2.263c.797-.174 1.612-.192 2.41-.174.086.661.155 1.305.277 1.967.554 3.395 2.114 6.302 4.402 8.827-.19.417-.555.33-.884.33-.624.035-1.248 0-1.854.192z" fill="#FA8F00"/><path d="M2.41 19.757c-.815-.017-1.613 0-2.41.174v-4.178c.433.052.312-.313.364-.522.485-2.107 1.161-4.161 2.375-5.972.242.418.64.4 1.04.418.468.018.97-.104 1.42.157-1.923 3.029-2.807 6.337-2.79 9.923z" fill="#FA9600"/><path d="M5.183 9.834c-.45-.261-.936-.14-1.421-.157-.399-.017-.798 0-1.04-.418C5.322 4.82 9.117 1.895 14.04.676c6.95-1.723 13.19-.174 18.39 4.892.763.749 1.543 1.55 2.063 2.507-.936.192-1.89.21-2.86.21-.139-.14-.295-.262-.433-.419-4.49-4.944-11.51-6.72-17.767-4.456-3.431 1.236-6.118 3.447-8.25 6.424z" fill="#FA9A00"/><path d="M4.35 31.056c.606-.209 1.23-.157 1.854-.174.33 0 .71.087.884-.33.19.173.399.33.59.504 4.42 4.004 9.55 5.345 15.356 4.004 2.67-.609 4.94-1.984 7.038-3.69 1.04.348 2.097.156 3.154.191-2.652 3.116-5.997 5.118-9.984 5.954-7.383 1.532-13.64-.574-18.72-6.18-.068-.07-.12-.174-.172-.279z" fill="#F98900"/><path d="M31.667 8.284c.953.018 1.907-.017 2.86-.209 1.837 2.438 2.773 5.223 3.241 8.2h-2.41c-.554-2.977-1.82-5.623-3.691-7.99z" fill="#FA9700"/><path d="M33.227 31.578c-1.057-.035-2.115.14-3.155-.191 2.132-2.055 3.727-4.475 4.732-7.278.78.331 1.612.122 2.427.174-.71 2.769-2.08 5.188-4.004 7.295z" fill="#F98E00"/><path d="M37.231 24.284c-.814-.052-1.629.139-2.426-.174.693-2.577.936-5.171.554-7.835h2.41c.277 1.602.312 3.186.069 4.805-.173 1.08-.208 2.177-.607 3.204z" fill="#F99200"/><path d="M5.356 20.802c-.503-3.134.138-6.041 1.698-8.757a13.769 13.769 0 0114.438-6.668A13.907 13.907 0 0132.69 16.833c.26 1.636.26 1.636-1.335 1.636-4.853 0-9.69.017-14.542-.018-.832 0-1.248.14-1.092 1.063.069.417-.018.87-.018 1.305-3.466-.017-6.898-.017-10.347-.017zM21.216 9.12c-1.162.017-2.046.958-2.029 2.141.017 1.097.988 2.055 2.063 2.037 1.092-.017 2.028-.975 2.028-2.071.017-1.184-.902-2.124-2.063-2.107z" fill="#FD9700"/><path d="M5.355 20.802h10.348c.139.505.555.313.867.313 5.044.018 10.105 0 15.149 0 1.04 0 1.04 0 .832.958-1.474 6.424-7.315 11.02-14.161 10.776-6.17-.226-11.839-5.031-12.965-11.281-.07-.244-.052-.505-.07-.766z" fill="#FB8F00"/></svg><svg fill="none" viewBox="0 0 18 19" id="eye" xmlns="http://www.w3.org/2000/svg"><path d="M9 4.709c3.853 0 7.393 2.93 7.393 5.143 0 2.213-3.54 5.143-7.393 5.143-3.853 0-7.393-2.93-7.393-5.143 0-2.214 3.54-5.143 7.393-5.143zm0 1.286c-3.191 0-6.107 2.413-6.107 3.857 0 1.444 2.916 3.857 6.107 3.857 3.191 0 6.107-2.413 6.107-3.857 0-1.444-2.916-3.857-6.107-3.857zM9 7.28a2.571 2.571 0 110 5.143A2.571 2.571 0 019 7.28zm0 1.286a1.286 1.286 0 100 2.572 1.286 1.286 0 000-2.572z" fill="#004EB7"/></svg><svg fill="none" viewBox="0 0 7 14" id="fc" xmlns="http://www.w3.org/2000/svg"><path fill-rule="evenodd" clip-rule="evenodd" d="M5.992 2.943l.312-1.98c-.8-.055-1.602-.049-2.4.018a2.25 2.25 0 00-1.427.784A2.457 2.457 0 002 3.365v2.592l-2-.015v2.007l2 .007v6l2.013-.005v-6h2.374l.31-2.007H4.013v-2.51a.562.562 0 01.671-.486c.442-.006 1.308-.005 1.308-.005z" fill="#fff"/></svg><svg fill="none" viewBox="0 0 22 23" id="info" xmlns="http://www.w3.org/2000/svg"><path d="M11 2.497a9.429 9.429 0 110 18.857 9.429 9.429 0 010-18.857zm0 1.572a7.857 7.857 0 100 15.714 7.857 7.857 0 000-15.715zm.058 6.285c.186 0 .304.03.406.084a.571.571 0 01.238.238c.054.102.084.22.084.406v4.83c0 .187-.03.304-.084.406a.572.572 0 01-.238.238.811.811 0 01-.406.084h-.116a.811.811 0 01-.406-.084.572.572 0 01-.238-.238.812.812 0 01-.084-.406v-4.83c0-.187.03-.304.084-.406a.571.571 0 01.238-.238.811.811 0 01.406-.084h.116zM11 6.897a1.1 1.1 0 110 2.2 1.1 1.1 0 010-2.2z" fill="#9DA2B5"/></svg><svg fill="none" viewBox="0 0 40 48" id="logo" xmlns="http://www.w3.org/2000/svg"><path fill-rule="evenodd" clip-rule="evenodd" d="M19.51 4.707l.046-.003.046-.004c3.44-.315 11.183 1.024 14.742 8.375 3.61 7.455.409 14.174-1.57 16.55L20.713 41.688c-3.662-3.636-8.39-8.335-9.855-9.8-1.622-1.622-2.882-3.294-3.308-3.915-.588-1.02-1.971-4.27-1.98-7.997.01-.532.038-1.044.082-1.539h-4.01v-.175a25.704 25.704 0 00-.082 1.681c0 4.695 1.733 8.74 2.6 10.176.495.743 1.96 2.704 3.862 4.605 1.901 1.901 9.26 9.21 12.7 12.626l15.004-15.003c2.649-3.07 6.803-11.572 2.228-21.02C33.379 1.88 23.57.31 19.237.707c-5.186.354-15.062 3.919-17.246 15.02h4.106C6.965 12.2 8.798 9.82 10.832 8.18c2.921-2.354 6.457-3.321 8.679-3.473z" fill="url(#akpaint0_linear_76_992)"/><path d="M9.655 31.752l15.97-2.228H3.787l2.154 2.896 3.713-.668z" fill="url(#akpaint1_linear_76_992)" fill-opacity=".4"/><path fill-rule="evenodd" clip-rule="evenodd" d="M.293 11.99C0 12.285 0 12.756 0 13.699v2.01h27.333v-2.01c0-.943 0-1.414-.293-1.707-.293-.293-.764-.293-1.707-.293H2c-.943 0-1.414 0-1.707.293zM0 27.525c0 .942 0 1.414.293 1.707.293.293.764.293 1.707.293h23.333c.943 0 1.414 0 1.707-.293.293-.293.293-.765.293-1.707v-9.141H0v9.14zm19.608-2.845c0-.377 0-.566.117-.683.118-.117.306-.117.683-.117h4.64c.376 0 .565 0 .682.117.117.117.117.306.117.683V25.9c0 .377 0 .566-.117.683-.117.117-.306.117-.683.117h-4.639c-.377 0-.565 0-.683-.117-.117-.117-.117-.306-.117-.683V24.68z" fill="url(#akpaint2_linear_76_992)"/><defs><linearGradient id="akpaint0_linear_76_992" x1="1.486" y1="20.611" x2="39.959" y2="20.611" gradientUnits="userSpaceOnUse"><stop stop-color="#004EB7"/><stop offset="1" stop-color="#035ED9"/></linearGradient><linearGradient id="akpaint1_linear_76_992" x1="5.348" y1="32.346" x2="25.55" y2="32.346" gradientUnits="userSpaceOnUse"><stop stop-opacity=".25"/><stop offset="1" stop-opacity=".5"/></linearGradient><linearGradient id="akpaint2_linear_76_992" x1="0" y1="20.611" x2="27.333" y2="20.611" gradientUnits="userSpaceOnUse"><stop stop-color="#51AB51"/><stop offset="1" stop-color="#6ACE6A"/></linearGradient></defs></svg><svg fill="none" viewBox="0 0 22 23" id="mail" xmlns="http://www.w3.org/2000/svg"><path d="M6.386 3.995l9.467.002c1.237.015 1.883.153 2.552.51.65.348 1.164.862 1.51 1.511.381.712.513 1.396.513 2.792v6.085c0 1.396-.132 2.08-.512 2.791a3.642 3.642 0 01-1.51 1.51c-.712.381-1.396.513-2.792.513H6.386c-1.396 0-2.08-.132-2.792-.512a3.642 3.642 0 01-1.51-1.51c-.38-.712-.513-1.396-.513-2.792l.002-6.324c.015-1.238.153-1.883.51-2.553a3.641 3.641 0 011.511-1.51c.712-.38 1.396-.513 2.792-.513zm12.225 2.93l-5.389 5.388a3.143 3.143 0 01-4.32.118l-.124-.118-5.39-5.389c-.18.405-.245.867-.245 1.886v6.085c0 1.158.085 1.598.327 2.05.2.376.49.665.865.866.4.214.789.305 1.67.323l.381.004h9.228c1.158 0 1.598-.085 2.05-.327.376-.2.665-.49.866-.866.214-.4.305-.788.323-1.67l.004-.38V8.81c0-1.019-.066-1.481-.246-1.886zm-2.997-1.358H6.386c-1.018 0-1.481.065-1.886.245l5.389 5.39a1.572 1.572 0 002.122.091l.1-.092 5.388-5.389c-.404-.18-.867-.245-1.885-.245z" fill="#004EB7"/></svg><svg fill="none" viewBox="0 0 23 23" id="mark" xmlns="http://www.w3.org/2000/svg"><path d="M14.723 2.464c1.608.017 2.427.19 3.276.645a4.553 4.553 0 011.89 1.89c.453.848.627 1.666.643 3.275v6.45c-.017 1.608-.19 2.426-.644 3.275a4.553 4.553 0 01-1.89 1.89c-.848.454-1.667.627-3.275.644h-6.45c-1.608-.017-2.427-.19-3.275-.644a4.553 4.553 0 01-1.89-1.89c-.454-.849-.627-1.667-.644-3.276V8.274c.017-1.609.19-2.427.644-3.276a4.553 4.553 0 011.89-1.89c.848-.453 1.667-.627 3.275-.644h6.45zm-.276 1.642H8.55l-.458.004c-1.215.023-1.759.148-2.319.447a2.91 2.91 0 00-1.215 1.216c-.3.56-.425 1.104-.448 2.319l-.004.457v5.899l.004.458c.023 1.215.149 1.759.448 2.318.281.527.69.935 1.215 1.216.56.3 1.104.424 2.32.447l.457.005h5.898l.458-.005c1.215-.023 1.76-.148 2.319-.447a2.91 2.91 0 001.215-1.216c.3-.56.425-1.103.448-2.318l.004-.458V8.549l-.004-.457c-.023-1.215-.148-1.76-.448-2.32a2.911 2.911 0 00-1.215-1.215c-.56-.299-1.104-.424-2.319-.447l-.458-.004zm.045 4.678a.821.821 0 111.162 1.161l-4.6 4.6c-.321.321-.841.321-1.162 0L7.756 12.41a.821.821 0 011.162-1.161l1.555 1.555 4.019-4.02z" fill="#5CB85C"/></svg><svg fill="none" viewBox="0 0 9 5" id="min-arrow" xmlns="http://www.w3.org/2000/svg"><path fill-rule="evenodd" clip-rule="evenodd" d="M8.821 1.316L4.932 4.36a.737.737 0 01-.864 0L.179 1.316C-.06 1.13-.06.826.179.64a.737.737 0 01.864 0L4.5 3.345 7.957.64a.737.737 0 01.864 0c.239.187.239.49 0 .676z" fill="#222"/></svg><svg fill="none" viewBox="0 0 63 63" id="money" xmlns="http://www.w3.org/2000/svg"><g filter="url(#aofilter0_d_76_530)"><path fill-rule="evenodd" clip-rule="evenodd" d="M14.993.262c-.388.173-.74.545-.89.94-.076.202-.112 3.453-.112 10.235v9.938l-4.51 2.268c-4.288 2.158-4.52 2.29-4.743 2.69l-.236.423L4.5 39.818c-.001 12.884.001 13.067.21 13.478.138.268.362.492.63.629.413.21.567.212 26.16.212s25.747-.001 26.16-.212c.268-.137.493-.361.63-.63.209-.41.212-.593.21-13.477l-.002-13.062-.235-.422c-.225-.401-.457-.533-4.743-2.69l-4.507-2.27-.029-10.095c-.028-10.01-.03-10.098-.245-10.386-.12-.16-.349-.39-.51-.51-.29-.217-.31-.217-16.605-.24-13.435-.019-16.37.002-16.63.119zm30.851 16.814v13.796l-7.172 3.587-7.172 3.586-7.172-3.586-7.172-3.587V3.28h28.688v13.797zm-31.853 10.05c0 1.16-.023 2.11-.052 2.11-.105 0-4.167-2.057-4.167-2.11 0-.06 4.005-2.095 4.14-2.105.044-.003.08.944.08 2.104zm37.18-1.084c1.13.566 2.057 1.053 2.057 1.083 0 .054-4.062 2.11-4.167 2.11-.029 0-.052-.95-.052-2.11s.023-2.11.052-2.11c.029 0 .978.462 2.11 1.027zm-35.586 7.631c4.3 2.15 7.8 3.924 7.779 3.942-.021.017-3.562 2.674-7.87 5.903L7.663 49.39v-9.813c0-5.398.024-9.814.053-9.814.029 0 3.57 1.76 7.87 3.91zm39.752 5.904v9.813l-7.831-5.872-7.87-5.903c-.041-.035 15.493-7.837 15.622-7.846.044-.003.08 4.41.08 9.808zM31.5 41.37c.436 0 .832-.16 2.724-1.102l2.215-1.101 7.832 5.876 7.832 5.876-10.301.027c-5.666.015-14.938.015-20.604 0l-10.301-.027 7.832-5.876 7.832-5.876 2.215 1.101c1.892.942 2.288 1.102 2.724 1.102z" fill="#004EB7"/><path d="M30.462 8.06a2.11 2.11 0 01.51-.342c.362-.152 1.035-.064 1.356.176.59.44.699.71.737 1.817l.036 1.036 1.043.042c.839.033 1.098.083 1.328.255.957.715 1.008 1.959.108 2.62-.271.2-.486.224-2.445.272-1.967.048-2.172.071-2.445.273-.77.572-.995 1.478-.535 2.155.405.595.693.737 1.702.841 1.187.123 2.067.523 2.9 1.317.971.927 1.491 2.125 1.488 3.429-.003 1.698-1.14 3.532-2.613 4.216l-.55.256v1.056c0 .859-.041 1.143-.222 1.516-.395.817-1.336 1.096-2.14.634-.626-.359-.802-.787-.802-1.948v-.978h-.927c-1.118 0-1.733-.253-2.051-.844-.248-.46-.202-1.263.096-1.67.422-.575.75-.651 2.822-.651 1.676 0 1.942-.024 2.328-.211a1.555 1.555 0 00.711-2.109c-.288-.573-.716-.793-1.806-.927-1.824-.225-3.132-1.144-3.89-2.734-.382-.798-.395-.863-.395-1.986 0-1.122.013-1.187.394-1.986.468-.98 1.258-1.808 2.131-2.236l.587-.287v-1.1c0-1.167.089-1.477.544-1.902z" fill="#AEC1D9"/></g><defs><filter id="aofilter0_d_76_530" x=".5" y=".137" width="62" height="62" filterUnits="userSpaceOnUse" color-interpolation-filters="sRGB"><feFlood flood-opacity="0" result="BackgroundImageFix"/><feColorMatrix in="SourceAlpha" values="0 0 0 0 0 0 0 0 0 0 0 0 0 0 0 0 0 0 127 0" result="hardAlpha"/><feOffset dy="4"/><feGaussianBlur stdDeviation="2"/><feComposite in2="hardAlpha" operator="out"/><feColorMatrix values="0 0 0 0 0 0 0 0 0 0 0 0 0 0 0 0 0 0 0.25 0"/><feBlend in2="BackgroundImageFix" result="effect1_dropShadow_76_530"/><feBlend in="SourceGraphic" in2="effect1_dropShadow_76_530" result="shape"/></filter></defs></svg><svg fill="none" viewBox="0 0 22 22" id="new" xmlns="http://www.w3.org/2000/svg"><path d="M14.928.786c.434 0 .786.352.786.785v.912a4.46 4.46 0 011.517.504 4.284 4.284 0 011.782 1.782c.373.698.588 1.39.624 3.087l.006.001V13.6l-.005.479c-.032 1.744-.247 2.445-.625 3.152a4.283 4.283 0 01-1.782 1.782c-.768.411-1.53.63-3.632.63H8.4l-.479-.004c-1.744-.032-2.446-.248-3.152-.626a4.283 4.283 0 01-1.782-1.782c-.395-.737-.612-1.47-.629-3.386l-.001-5.444v-.544c.042-1.697.256-2.39.63-3.088a4.284 4.284 0 011.782-1.782c.429-.23.856-.4 1.517-.504V1.57a.786.786 0 111.57 0v.792c.171-.004.352-.006.544-.006h5.2c.192 0 .373.002.544.006l-.001-.792c0-.433.351-.785.785-.785zm3.142 8.643H3.928l.001 4.393.007.447c.03 1.184.156 1.696.436 2.221.265.495.643.873 1.138 1.138.586.313 1.157.433 2.668.443h5.643l.447-.007c1.185-.03 1.697-.156 2.222-.436a2.713 2.713 0 001.137-1.138c.314-.586.433-1.157.444-2.668V9.429zm-3.106 3.928c.34 0 .608.064.832.184.224.12.4.295.52.52.12.224.184.491.184.832v.072c0 .34-.064.608-.184.832-.12.224-.296.4-.52.52-.224.12-.491.183-.832.183h-.072c-.34 0-.608-.064-.832-.184-.224-.12-.4-.295-.52-.52-.12-.223-.183-.491-.183-.831v-.072c0-.34.064-.608.184-.832.12-.225.295-.4.52-.52.223-.12.491-.184.831-.184h.072zM13.821 3.93H8.178l-.321.004v.781a.786.786 0 11-1.571 0l-.001-.634c-.3.069-.536.165-.775.293A2.713 2.713 0 004.372 5.51c-.29.543-.414 1.072-.439 2.346l14.133.001-.002-.126c-.031-1.184-.156-1.696-.437-2.221a2.713 2.713 0 00-1.137-1.137 3.012 3.012 0 00-.775-.293v.634a.786.786 0 01-1.572 0l.002-.78c-.103-.003-.21-.004-.323-.005z" fill="#004EB7"/></svg><svg fill="none" viewBox="0 0 18 19" id="news" xmlns="http://www.w3.org/2000/svg"><path d="M12.214 1.495c.355 0 .643.288.643.643v.746c.54.085.89.224 1.241.412.629.336 1.122.83 1.458 1.458.306.571.481 1.138.51 2.526h.005v4.7l-.003.391c-.026 1.427-.203 2.001-.512 2.58a3.505 3.505 0 01-1.458 1.457c-.629.337-1.252.516-2.971.516H6.873l-.392-.004c-1.427-.026-2.001-.202-2.58-.512a3.505 3.505 0 01-1.457-1.458c-.323-.603-.501-1.202-.515-2.77V7.281c.034-1.389.21-1.956.515-2.527a3.505 3.505 0 011.458-1.458 3.65 3.65 0 011.24-.413v-.745a.643.643 0 011.286 0v.647c.14-.003.288-.004.445-.004h4.254c.157 0 .306.001.446.004l-.002-.647c0-.355.288-.643.643-.643zm2.571 7.072H3.215v3.594l.005.366c.025.969.128 1.388.357 1.817.217.405.527.714.931.93.48.257.947.355 2.183.363h4.618l.365-.005c.97-.025 1.389-.128 1.818-.357a2.22 2.22 0 00.93-.93c.257-.48.355-.948.363-2.184V8.567zm-2.541 3.214c.278 0 .497.052.68.15.184.098.328.242.426.425.098.184.15.403.15.681v.06c0 .277-.052.496-.15.68a1.021 1.021 0 01-.426.425c-.183.098-.402.15-.68.15h-.06c-.278 0-.497-.052-.68-.15a1.022 1.022 0 01-.425-.425 1.408 1.408 0 01-.15-.68v-.06c0-.278.052-.497.15-.68.098-.184.242-.328.425-.426.183-.098.402-.15.68-.15h.06zm-.935-7.714H6.69l-.263.003v.64a.643.643 0 01-1.285 0v-.52a2.466 2.466 0 00-.635.24 2.22 2.22 0 00-.93.93c-.238.444-.34.878-.36 1.92h11.563l-.002-.102c-.025-.969-.127-1.388-.357-1.818a2.22 2.22 0 00-.93-.93 2.467 2.467 0 00-.634-.24l-.001.52a.643.643 0 11-1.286 0l.002-.64a20.49 20.49 0 00-.264-.003z" fill="#004EB7"/></svg><svg fill="none" viewBox="0 0 8 14" id="ok" xmlns="http://www.w3.org/2000/svg"><path fill-rule="evenodd" clip-rule="evenodd" d="M3.618.926a3.5 3.5 0 11-.036 7 3.5 3.5 0 01.036-7zm.008 1.956a1.52 1.52 0 11-.003-.002l.003.002zm-.008 6.06a5.822 5.822 0 001.965-.357c.35-.227.725-.416 1.116-.564.22.008.583.373.52 1.317-.034.539-1.018.76-1.364.967a2.265 2.265 0 01-.724.247s.847.906 1.063 1.129c.438.32.769.765.948 1.278a1.342 1.342 0 01-1 1 4.493 4.493 0 01-1.4-1.12c-.583-.556-1.115-1.07-1.115-1.07s-.546.487-1.115 1.049a4.622 4.622 0 01-1.368 1.14 1.441 1.441 0 01-1.062-1.16 6.331 6.331 0 011.24-1.486c.25-.27.517-.523.8-.757a1.9 1.9 0 01-.637-.208C1.004 10.08-.026 9.8 0 9.304c.028-.512.159-1.3.616-1.3.39.142.765.324 1.119.542.59.27 1.233.404 1.882.394v.002z" fill="#fff"/></svg><svg fill="none" viewBox="0 0 38 41" id="qiwi" xmlns="http://www.w3.org/2000/svg"><circle cx="19" cy="19" r="19" fill="#FF8C00"/><g filter="url(#asfilter0_d_701_227)"><path d="M27.878 23.74c.435.162.602.792.635 1.066.067.502-.083.695-.25.695-.167 0-.401-.194-.652-.581-.25-.389-.35-.825-.217-1.051.083-.146.267-.21.484-.13zm-2.539 1.826c.268 0 .568.113.836.34.517.42.668.904.4 1.26-.15.178-.4.29-.684.29-.284 0-.585-.096-.785-.274-.468-.388-.602-1.035-.301-1.39.117-.145.3-.226.534-.226zm-5.846 4.67C13.145 30.236 8 25.26 8 19.118 8 12.978 13.145 8 19.493 8c6.347 0 11.493 4.978 11.493 11.118 0 2.084-.602 4.04-1.62 5.705-.034.048-.118.032-.134-.033-.401-2.73-2.122-4.234-4.627-4.686-.218-.033-.251-.162.033-.194.768-.065 1.854-.049 2.422.048.033-.274.05-.565.05-.856 0-4.056-3.408-7.354-7.6-7.354-4.193 0-7.601 3.298-7.601 7.354s3.408 7.353 7.6 7.353h.351a9.603 9.603 0 01-.15-1.988c.017-.452.117-.517.317-.162 1.053 1.762 2.556 3.346 5.496 3.976 2.406.517 4.811 1.115 7.4 4.299.234.274-.117.565-.384.34-2.639-2.264-5.044-3.007-7.233-3.007-2.456.017-4.126.323-5.813.323z" fill="#fff"/></g><defs><filter id="asfilter0_d_701_227" x="4" y="8" width="33" height="33" filterUnits="userSpaceOnUse" color-interpolation-filters="sRGB"><feFlood flood-opacity="0" result="BackgroundImageFix"/><feColorMatrix in="SourceAlpha" values="0 0 0 0 0 0 0 0 0 0 0 0 0 0 0 0 0 0 127 0" result="hardAlpha"/><feOffset dy="4"/><feGaussianBlur stdDeviation="2"/><feComposite in2="hardAlpha" operator="out"/><feColorMatrix values="0 0 0 0 0 0 0 0 0 0 0 0 0 0 0 0 0 0 0.12 0"/><feBlend in2="BackgroundImageFix" result="effect1_dropShadow_701_227"/><feBlend in="SourceGraphic" in2="effect1_dropShadow_701_227" result="shape"/></filter></defs></svg><svg fill="none" viewBox="0 0 37 36" id="rub" xmlns="http://www.w3.org/2000/svg"><circle cx="18.924" cy="18" r="18" fill="#5CB85C"/><path d="M18.924 7c6.076 0 11 4.925 11 11s-4.924 11-11 11c-6.075 0-11-4.925-11-11s4.925-11 11-11zm0 1.8a9.2 9.2 0 100 18.4 9.2 9.2 0 000-18.4zm1.253 4.2a3.357 3.357 0 010 6.714h-2.253V21h1.5a.75.75 0 010 1.5h-1.5v.65a.85.85 0 11-1.7 0v-.65h-.8a.75.75 0 010-1.5h.8v-1.286h-.693a.857.857 0 010-1.714h.692l.001-4.15c0-.47.38-.85.85-.85h3.103zm.033 1.571h-2.286V18h2.286a1.714 1.714 0 100-3.429z" fill="#fff"/></svg><svg fill="none" viewBox="0 0 55 55" id="sand" xmlns="http://www.w3.org/2000/svg"><path fill-rule="evenodd" clip-rule="evenodd" d="M29.65 6.984c-12.595 3.76-23.05 6.914-23.234 7.01-.383.198-.757.853-.757 1.328 0 .421.357 1.117.66 1.286.13.072 3.392 1.592 7.25 3.376 3.857 1.784 7.03 3.291 7.049 3.35.02.058-.68 2.79-1.554 6.07-.875 3.28-1.59 6.088-1.59 6.24 0 .68.603 1.372 1.291 1.484.4.065.133.13 7.071-1.718 2.946-.785 5.405-1.41 5.464-1.391.058.02 1.566 3.193 3.35 7.051 1.783 3.859 3.302 7.122 3.374 7.253.169.302.865.66 1.286.66.55 0 1.142-.377 1.375-.875C40.968 47.503 54.5 2.01 54.5 1.662c0-.771-.818-1.548-1.604-1.524-.191.005-10.652 3.086-23.247 6.846zm8.405 7.324l-9.218 9.221-.328-.14c-2.183-.928-16.737-7.754-16.623-7.794.085-.03 1.84-.555 3.9-1.167 2.06-.612 9.94-2.961 17.51-5.22 7.572-2.26 13.814-4.112 13.872-4.115.058-.003-4.043 4.143-9.113 9.215zM44.32 25.04a9426.729 9426.729 0 01-5.281 17.714c-.03.085-1.831-3.69-4.001-8.39l-3.945-8.543 9.194-9.202c5.057-5.061 9.209-9.188 9.227-9.17.018.018-2.32 7.934-5.194 17.591zm-17.513 1.057l1.185.54 1.003 2.177c.552 1.198.995 2.188.986 2.201-.016.02-6.555 1.776-8.09 2.171l-.595.153.088-.33c1.334-4.995 2.209-8.298 2.209-8.34 0-.03.457.158 1.015.417.558.259 1.548.714 2.2 1.011z" fill="#004EB7"/><path d="M.694 41.724c.24-.462 7.931-8.156 8.393-8.396.717-.373 1.685-.059 2.056.668.266.523.269.957.008 1.458-.252.484-7.949 8.168-8.414 8.4-.729.364-1.664.055-2.035-.672-.267-.523-.27-.957-.008-1.458zM3.33 49.216c.241-.463 8.671-8.895 9.133-9.135.717-.373 1.685-.059 2.055.668.267.523.27.957.009 1.458-.252.485-8.687 8.907-9.153 9.14-.729.363-1.664.053-2.035-.674-.266-.523-.269-.957-.008-1.457zM10.82 51.854c.241-.462 7.932-8.156 8.394-8.396.717-.374 1.685-.059 2.056.668.266.523.269.957.008 1.458-.252.484-7.949 8.168-8.414 8.4-.729.364-1.664.054-2.035-.672-.267-.523-.27-.958-.009-1.458z" fill="#AEC1D9"/></svg><svg fill="none" viewBox="0 0 24 25" id="search" xmlns="http://www.w3.org/2000/svg"><path d="M11.143 4.357a7.286 7.286 0 015.722 11.796l3.884 3.884a.857.857 0 11-1.212 1.212l-3.884-3.884a7.286 7.286 0 11-4.51-13.008zm0 1.714a5.571 5.571 0 100 11.143 5.571 5.571 0 000-11.143z" fill="#777"/></svg><svg fill="none" viewBox="0 0 36 37" id="searching" xmlns="http://www.w3.org/2000/svg"><circle cx="18" cy="18.5" r="18" fill="#5CB85C"/><path d="M17.143 10.357a7.286 7.286 0 015.722 11.796l3.884 3.884a.857.857 0 01-1.212 1.212l-3.884-3.884a7.286 7.286 0 11-4.51-13.008zm0 1.714a5.571 5.571 0 100 11.143 5.571 5.571 0 000-11.143z" fill="#fff"/></svg><svg fill="none" viewBox="0 0 22 22" id="security" xmlns="http://www.w3.org/2000/svg"><path d="M14.083 2.357c1.538.016 2.321.182 3.133.616a4.355 4.355 0 011.808 1.808c.434.812.6 1.595.616 3.133v6.17c-.016 1.538-.182 2.32-.616 3.133a4.356 4.356 0 01-1.808 1.807c-.812.434-1.595.6-3.133.616h-6.17c-1.538-.016-2.32-.182-3.132-.616a4.356 4.356 0 01-1.808-1.807c-.434-.812-.6-1.595-.616-3.134V7.914c.016-1.538.182-2.321.616-3.133a4.355 4.355 0 011.808-1.808c.811-.434 1.594-.6 3.133-.616h6.169zm-.264 1.57H8.178l-.438.004c-1.163.022-1.683.142-2.218.428-.504.27-.894.66-1.163 1.163-.286.535-.406 1.056-.428 2.218l-.004.438v5.642l.004.438c.022 1.162.142 1.682.428 2.218.269.503.66.893 1.163 1.162.535.286 1.055.406 2.218.428l.438.004h5.641l.438-.004c1.163-.022 1.683-.142 2.218-.428.504-.269.894-.66 1.163-1.163.286-.535.406-1.055.428-2.217l.004-.438V8.178l-.004-.438c-.022-1.162-.142-1.683-.428-2.218a2.784 2.784 0 00-1.163-1.163c-.535-.286-1.055-.406-2.218-.428l-.438-.004zm.043 4.475a.786.786 0 111.111 1.11l-4.4 4.4a.786.786 0 01-1.11 0L7.418 11.87a.786.786 0 011.111-1.111l1.488 1.487 3.844-3.844z" fill="#5CB85C"/></svg><svg fill="none" viewBox="0 0 16 15" id="star" xmlns="http://www.w3.org/2000/svg"><path d="M7.524.464a.5.5 0 01.952 0l1.432 4.41a.5.5 0 00.476.345h4.637a.5.5 0 01.294.904L11.563 8.85a.5.5 0 00-.181.559l1.433 4.41a.5.5 0 01-.77.559L8.294 11.65a.5.5 0 00-.588 0l-3.751 2.726a.5.5 0 01-.77-.56l1.433-4.41a.5.5 0 00-.181-.558L.685 6.123A.5.5 0 01.98 5.22h4.637a.5.5 0 00.476-.346L7.524.463z" fill="#FEDD2E"/></svg><svg fill="none" viewBox="0 0 29 29" id="step2" xmlns="http://www.w3.org/2000/svg"><g clip-path="url(#azclip0_376_310)" stroke-width=".2"><path d="M-.098 8.024l-.002.01V9.208l.007.017a1.295 1.295 0 00.026.061c.007.016.011.029.013.04.1.887.392 1.711.852 2.464a5.813 5.813 0 002.535 2.285h0c.376.175.781.054.975-.288.209-.364.1-.775-.248-1.019a3.016 3.016 0 00-.34-.206h-.002v-.001C1.584 11.382.785 8.738 1.894 6.522c1.219-2.424 4.356-3.17 6.488-1.556.612.467 1.056 1.064 1.414 1.757.107.215.262.362.444.43a.69.69 0 00.566-.046.7.7 0 00.375-.448.932.932 0 00-.072-.625C9.995 3.553 7.162 2.081 4.575 2.72c-1.186.29-2.16.815-2.916 1.574C.904 5.053.371 6.04.062 7.247c-.046.17-.079.349-.11.52l-.05.257z" fill="#AEC1D9" stroke="#BDCCE0"/><path d="M24.734 23.836a69.242 69.242 0 001.693-1.7l.416-.426c1.139-1.164 1.882-2.543 2.112-4.196.298-2.11-.16-4.054-1.518-5.677-1.632-1.956-3.348-3.841-5.061-5.725h0V6.11c-1.292-1.418-3.563-.922-4.245.88l-.03.061c-.703-.45-1.445-.574-2.243-.304h0c-.795.276-1.309.844-1.61 1.61-1.431-.907-3.188-.322-3.848 1.257l-.005-.005-.002-.002-.103-.101c-.213-.22-.428-.438-.643-.657-.43-.438-.861-.877-1.29-1.32-.631-.654-1.378-.945-2.28-.849h0c-.632.07-1.213.446-1.619.958-.405.511-.643 1.168-.576 1.809.07.72.385 1.312.874 1.813h0l3.077 14.557v-.1.1h.007c3.992.007 7.977.015 11.962 0 1.882-.008 3.553-.65 4.932-1.982zm0 0l-.07-.072.07.072s0 0 0 0zm-5.06.461h0c1.577.008 2.955-.501 4.09-1.616h0c.763-.75 1.524-1.505 2.239-2.297 2.072-2.31 2.073-5.612.022-7.938h0c-.846-.963-1.698-1.918-2.55-2.874-.427-.478-.853-.956-1.278-1.435-.148-.162-.294-.327-.439-.49a53.93 53.93 0 00-.437-.49c-.416-.454-1.056-.481-1.498-.085a1.112 1.112 0 00-.11 1.538h0l.042.051c.056.068.119.145.17.23l.001.002h0a.705.705 0 01-.009.767c-.15.247-.392.405-.688.338h-.003 0a1.313 1.313 0 01-.558-.31v-.001l.069-.072a20.1 20.1 0 01-.618-.614l1.555 15.296zm0 0a679.276 679.276 0 00-3.723-.002l-1.858.002h0c-2.024 0-4.048 0-6.078-.015h-.001c-.114 0-.228 0-.342-.015a.555.555 0 01-.374-.198.614.614 0 01-.113-.423c.043-.692.512-1.268 1.179-1.39.834-.148 1.671-.281 2.508-.415l1.304-.21c.43-.07.862-.137 1.294-.205h0c.432-.068.865-.135 1.296-.205l-.016-.099m4.924 3.175L17.318 8.353c-.394-.354-1.013-.31-1.395.074a1.115 1.115 0 00-.097 1.46h0c.079.102.172.198.271.3l.363.368c.245.249.49.499.733.752h0c.333.349.353.813.044 1.12a.676.676 0 01-.534.216c-.195-.013-.39-.11-.565-.276l-.002-.002h0l-.159-.162s0 0 0 0c-.393-.398-.783-.798-1.174-1.197h0c-.391-.4-.782-.8-1.174-1.197h0c-.235-.24-.502-.367-.762-.388a.997.997 0 00-.74.254h0c-.51.438-.532 1.159-.016 1.693h0c.528.551 1.063 1.094 1.598 1.638l.803.818c.091.094.188.2.262.318l.001.001h0a.745.745 0 01-.122.927h0a.727.727 0 01-.887.089l-.001-.001a2.267 2.267 0 01-.333-.29l.072-.07-.072.07c-1.35-1.376-2.695-2.754-4.04-4.132L7.376 8.673a4.588 4.588 0 00-.272-.264c-.333-.276-.701-.325-1.09-.161-.38.162-.593.462-.642.892-.048.421.134.74.433 1.046h0c3.134 3.206 6.268 6.41 9.401 9.608h0c.113.115.215.24.273.385a.72.72 0 01.016.494.697.697 0 01-.292.398c-.13.085-.284.126-.438.15l-.015-.099m0 0c-.43.07-.863.137-1.295.205-.432.068-.865.135-1.295.205L5.273 9.129c-.053.463.15.81.46 1.127 3.134 3.205 6.268 6.41 9.402 9.608.219.224.362.455.264.78-.098.324-.355.432-.65.478zm-.166-6.124a.645.645 0 00.105-.803 1.876 1.876 0 00-.249-.301l-.802-.817.946 1.921zm0 0a.627.627 0 01-.763.077l.763-.077zM5.78 23.035l.097.026-.097-.026s0 0 0 0zm7.656-3.032l-.08-.089-.118.019a32.63 32.63 0 01.08.088l.118-.018zm-5.03.704s0 0 0 0l.016.099-.015-.099z" fill="#004EB7" stroke="#004EB7"/></g><defs><clipPath id="azclip0_376_310"><path fill="#fff" d="M0 0h29v29H0z"/></clipPath></defs></svg><svg fill="none" viewBox="0 0 29 29" id="step3" xmlns="http://www.w3.org/2000/svg"><g clip-path="url(#baclip0_376_317)"><path d="M0 8.815c.163-.56.425-1.062.984-1.303.276-.12.595-.212.892-.212 3.278-.015 6.55-.007 9.827-.007.58 0 .985.382.985.906s-.404.899-.992.899H1.827v3.618H11.569c.134 0 .269-.007.396.021a.907.907 0 01.723.92.905.905 0 01-.822.857c-.113.014-.226.007-.34.007H1.834v10.833h25.36v-.319-5.933c0-.488.284-.85.73-.949.418-.092.821.135 1.026.574.015.035.036.056.057.092v6.84c-.474 1.224-.913 1.529-2.244 1.529h-9.14c-5.198 0-10.394.007-15.591-.008-.34 0-.694-.077-1.012-.198-.588-.233-.857-.75-1.02-1.317V8.815z" fill="#004EB7"/><path d="M28.341 10.157c-.045.374-.097.748-.142 1.116-.295 2.356-1.408 4.254-3.196 5.778-.856.73-1.795 1.349-2.766 1.917-.309.18-.611.2-.926.02-1.396-.814-2.727-1.724-3.821-2.938-1.203-1.33-1.904-2.898-2.168-4.667-.263-1.814-.122-3.634-.147-5.455-.007-.42.25-.664.623-.826 1.486-.632 2.978-1.272 4.464-1.91.36-.155.727-.304 1.087-.465a.941.941 0 01.791-.007c1.872.807 3.744 1.614 5.616 2.408.296.13.482.342.585.64v4.389zM26.694 8.53c0-.768-.006-1.31.007-1.853 0-.148-.039-.226-.187-.284-1.53-.652-3.055-1.31-4.58-1.956a.496.496 0 00-.334-.006 585.272 585.272 0 00-4.625 1.982c-.07.032-.154.142-.148.219.026 1.433.007 2.866.116 4.293.097 1.33.592 2.543 1.428 3.608.9 1.15 2.059 1.982 3.287 2.73.064.04.2.02.27-.025.708-.497 1.441-.968 2.104-1.517 1.286-1.072 2.122-2.434 2.456-4.086.213-1.104.22-2.22.206-3.105z" fill="#BDCCE0"/><path d="M6.33 19.952h-1.7c-.601 0-1.012-.376-1.005-.914.007-.524.41-.892.991-.899h3.455c.58 0 .985.375.992.9.007.53-.404.906-1.006.913-.573.007-1.154 0-1.727 0z" fill="#004EB7"/><path d="M20.998 11.143l1.652-1.891c.309-.354.618-.713.933-1.06.212-.237.495-.33.83-.26.327.07.533.27.61.571.058.23 0 .442-.16.62-1.094 1.254-2.187 2.515-3.293 3.758-.373.424-.997.395-1.337-.059a112.478 112.478 0 01-1.627-2.227c-.27-.377-.168-.825.212-1.055.386-.235.862-.147 1.15.224.29.377.567.766.843 1.15.065.07.122.14.187.229z" fill="#BDCCE0"/></g><defs><clipPath id="baclip0_376_317"><path fill="#fff" d="M0 0h29v29H0z"/></clipPath></defs></svg><svg fill="none" viewBox="0 0 29 29" id="step4" xmlns="http://www.w3.org/2000/svg"><path fill-rule="evenodd" clip-rule="evenodd" d="M2.504.112A3.147 3.147 0 00.99.99c-.46.46-.72.914-.88 1.535C.004 2.951 0 3.183 0 11.441c0 5.847.02 8.584.061 8.816.156.853.811 1.781 1.577 2.234.612.362 1.055.453 2.196.453h.976l.017 2.706.016 2.705.133.214a.903.903 0 001.067.378c.087-.032 1.498-1.396 3.134-3.03l2.975-2.973h6.996c7.697 0 7.277.019 8.04-.35.561-.272 1.185-.92 1.468-1.528.122-.26.249-.624.283-.81.042-.231.061-2.968.061-8.815 0-8.258-.003-8.49-.112-8.917a3.145 3.145 0 00-.88-1.537 3.078 3.078 0 00-1.534-.878C26.045 0 25.81-.002 14.477.001 3.282.004 2.904.007 2.504.112zM26.308 1.95c.287.143.597.454.74.74.109.22.112.403.126 8.693.017 9.414.043 8.759-.368 9.238a1.746 1.746 0 01-.493.376l-.287.133-7.136.001c-4.929 0-7.207.02-7.364.062-.192.052-.582.416-2.563 2.393l-2.336 2.331v-2.073c0-2.057-.001-2.074-.128-2.265a1.163 1.163 0 00-.38-.32c-.242-.122-.312-.128-1.699-.128-1.4 0-1.456-.005-1.733-.134a1.742 1.742 0 01-.492-.375c-.41-.478-.383.17-.382-9.119 0-5.837.019-8.428.062-8.582.13-.472.56-.912 1.018-1.045.125-.036 4.247-.052 11.692-.046 11.31.009 11.502.01 11.723.12z" fill="#004EB7"/><path fill-rule="evenodd" clip-rule="evenodd" d="M13.586 4.285c-2.065.286-3.886 1.4-5.04 3.082-1.194 1.739-1.571 3.804-1.073 5.861.497 2.056 1.922 3.81 3.863 4.758a7.184 7.184 0 006.245.046c3.094-1.475 4.756-4.891 3.98-8.181-.648-2.744-2.834-4.888-5.57-5.463-.609-.128-1.842-.18-2.405-.103zM15.87 6.08a5.691 5.691 0 012.587 1.487c2.475 2.493 2.038 6.63-.906 8.567a5.43 5.43 0 01-1.64.742c-.45.126-.58.14-1.411.14-.83 0-.96-.014-1.412-.14-2.287-.64-3.856-2.48-4.13-4.842a5.568 5.568 0 01.186-2.082 5.64 5.64 0 014.55-3.994c.538-.085 1.604-.025 2.176.122z" fill="#BDCCE0"/><path d="M13.892 8.426a.861.861 0 01.402-.463c.19-.095.571-.06.73.068.068.056.169.165.223.244.093.135.099.22.112 1.65l.013 1.506.83.904c.455.497.852.955.881 1.017.03.062.053.215.053.34 0 .566-.598.982-1.055.735-.218-.118-2.031-2.067-2.148-2.31-.085-.177-.092-.312-.092-1.868 0-1.063.019-1.73.05-1.823z" fill="#BDCCE0"/></svg><svg fill="none" viewBox="0 0 38 38" id="svyaznoy" xmlns="http://www.w3.org/2000/svg"><circle cx="19" cy="19" r="19" fill="#4C1E87"/><path d="M6 19c0 1.145 1.037 2 2.406 2 .486 0 .908-.091 1.273-.316v-.748c-.357.2-.833.33-1.281.33-.868 0-1.516-.527-1.516-1.266 0-.738.648-1.266 1.516-1.266.448 0 .924.13 1.281.33v-.748C9.314 17.092 8.892 17 8.406 17 7.036 17 6 17.856 6 19zm20.636-1.023c-.98 0-1.776.678-1.776 1.511 0 .834.795 1.512 1.776 1.512.98 0 1.774-.678 1.774-1.512 0-.833-.795-1.511-1.774-1.511zm0 2.404c-.57 0-1.022-.399-1.022-.893 0-.493.453-.892 1.021-.892.57 0 1.022.399 1.022.892 0 .494-.453.893-1.021.893zm4.6-2.345l-1.474 1.881v-1.88h-.742v2.904h.753l1.473-1.875v1.875H32v-2.904h-.765zm-18.173 1.375c.185-.095.363-.315.363-.56 0-.47-.41-.814-.973-.814h-1.882v2.904h1.958c.562 0 .986-.352.986-.834 0-.327-.226-.589-.452-.696zm-1.738-.803h1.012c.192 0 .335.119.335.28 0 .16-.143.28-.335.28h-1.012v-.56zm1.06 1.761h-1.06v-.63h1.06c.219 0 .377.136.377.315 0 .178-.158.315-.377.315zm2.965-2.332c-.665 0-1.165.434-1.165 1 0 .458.337.832.825.952l-.914.951h.973l.875-.91h.418v.91h.754v-2.904H15.35zm.103.57h.909v.852h-.91c-.3 0-.513-.197-.513-.423 0-.238.213-.428.514-.428zm6.572-.57h-.754v2.904h.754v-1.179h1.472v1.178h.754v-2.904h-.754v1.155h-1.472v-1.154zM17.86 20.77v-.642c.294.134.654.252 1.065.252.5 0 .816-.13.816-.36 0-.206-.276-.285-.627-.285h-.575v-.57h.575c.358 0 .558-.115.558-.27 0-.23-.316-.3-.681-.3-.422 0-.765.106-1.045.224v-.622a2.92 2.92 0 011.154-.221c.73 0 1.323.337 1.323.802a.658.658 0 01-.413.617c.236.097.502.337.502.684 0 .545-.602.92-1.484.92-.506 0-.876-.095-1.168-.229M30.447 17.88c.58 0 1.021-.312 1.07-.768l-.605-.066c0 .198-.206.35-.465.35s-.465-.152-.465-.35l-.604.066c.048.456.49.767 1.069.767" fill="#fff"/></svg><svg fill="none" viewBox="0 0 15 13" id="tg" xmlns="http://www.w3.org/2000/svg"><path fill-rule="evenodd" clip-rule="evenodd" d="M12.004 12.033a1 1 0 01-1.78.53c-1.09-.868-2.79-2.116-2.79-2.116s-1.23 2.167-1.45 2.39a.682.682 0 01-1-.134.863.863 0 00-.04-.1l.69-3.452 4.92-4.833-6.71 3.83S.814 7.24.364 7.063a.7.7 0 01.07-1.262c.64-.326 11.93-4.638 12.31-4.749.38-.11 1.38-.4 1.27.573-.11.973-1.9 9.873-2.01 10.407z" fill="#fff"/></svg><svg fill="none" viewBox="0 0 23 24" id="thumb" xmlns="http://www.w3.org/2000/svg"><circle cx="11.5" cy="12" r="9.5" fill="#fff" stroke="#5CB85C" stroke-width="4"/><path fill-rule="evenodd" clip-rule="evenodd" d="M9 9.5v5h2v-5H9zm3 0v5h2v-5h-2z" fill="#5CB85C"/></svg><svg fill="none" viewBox="0 0 23 23" id="thumb-active" xmlns="http://www.w3.org/2000/svg"><circle cx="11.5" cy="11.5" r="9.5" fill="#fff" stroke="#0F0" stroke-width="4"/><path fill-rule="evenodd" clip-rule="evenodd" d="M9 9v5h2V9H9zm3 0v5h2V9h-2z" fill="#0F0"/></svg><svg fill="none" viewBox="0 0 54 54" id="touch" xmlns="http://www.w3.org/2000/svg"><path fill-rule="evenodd" clip-rule="evenodd" d="M21.986 8.184c-1.188.319-2.328 1.206-2.898 2.252-.598 1.098-.59.96-.592 12.027l-.002 10.174-.956-1.42c-1.096-1.627-1.31-1.871-2.092-2.39-1.808-1.201-4.233-1.21-6.012-.022-1.19.795-2.038 2.022-2.335 3.38-.197.897-.09 2.328.231 3.113.296.721 8.375 13.535 9.183 14.563 1.472 1.874 3.721 3.266 6.306 3.904 1.02.251 11.587.328 13.132.095 4.775-.72 8.408-4.03 9.792-8.921.22-.776.225-.991.257-9.333.032-8.29.027-8.558-.178-9.233-.73-2.402-3.212-3.686-5.823-3.011-.24.062-.286.033-.35-.227-.186-.754-1.29-2.012-2.15-2.451-1.011-.516-2.239-.66-3.291-.387-.317.082-.577.141-.577.131 0-.01-.135-.287-.3-.616-.338-.68-1.28-1.635-1.947-1.975-.989-.504-2.37-.656-3.37-.37l-.238.068V14.89c0-1.557-.048-2.873-.118-3.203-.542-2.552-3.17-4.176-5.672-3.503zm1.862 3.208c.19.115.438.364.554.553.204.335.21.547.21 8.44v8.095h3.164v-3.402c0-3.03.021-3.441.185-3.763.278-.544.69-.799 1.292-.799.603 0 1.015.255 1.292.799.164.322.185.733.185 3.763v3.402h3.164v-2.014c0-1.596.034-2.084.162-2.347.492-1.012 1.954-1.052 2.525-.07.191.33.218.588.249 2.403l.034 2.034 1.548-.03 1.548-.029.064-.668c.053-.556.117-.721.381-.986.579-.579 1.49-.572 2.077.014l.326.326.03 8.04c.026 7.136.01 8.131-.144 8.833-.691 3.16-3.049 5.641-6.238 6.566-.808.234-.912.238-6.675.238-6.26 0-6.196.004-7.595-.552-1.057-.42-1.906-1.009-2.756-1.911-.635-.674-1.537-2.025-4.92-7.372-2.278-3.602-4.194-6.698-4.258-6.88-.184-.528-.068-1.506.231-1.948.738-1.089 2.293-1.378 3.262-.606.223.177 1.874 2.524 4.116 5.85l3.745 5.554.052-15.39c.053-15.358.054-15.39.272-15.687.464-.633 1.302-.832 1.918-.456z" fill="#004EB7"/><path d="M15.107 5.148a1.558 1.558 0 01.093-2.19c.623-.578 1.166-1.04 1.207-1.028.041.012.72.73 1.509 1.595 1.375 1.51 1.425 1.581 1.243 1.759-.51.496-2.095 1.889-2.15 1.889-.034 0-.71-.713-1.501-1.583l-.401-.442zM11.486 10.443c.076-.725.14-1.402.145-1.503.004-.102.066-.185.139-.186.533-.002 4.053.363 4.125.428.05.045.033.74-.04 1.568l-.105 1.178a.338.338 0 01-.337.308c-.606 0-3.934-.338-3.998-.405-.036-.039-.004-.663.072-1.388zM21.48 2.821l-.008-.632-.008-.605A1.564 1.564 0 0123.028 0c.875 0 1.584.71 1.584 1.584V2.88c0 .854-.701 1.543-1.556 1.527A1.606 1.606 0 0121.48 2.82zM26.722 5.095c0-.027.646-.758 1.437-1.625 1.248-1.368 1.46-1.558 1.609-1.442.394.306 2.122 1.913 2.122 1.973 0 .084-2.736 3.108-2.852 3.152-.082.03-2.316-1.954-2.316-2.058zM30.069 9.177c.025-.03.837-.13 1.804-.224.967-.095 1.93-.178 2.14-.185a.403.403 0 01.415.368l.1 1.152c.073.843.114 1.551.092 1.573-.07.07-4.202.414-4.262.355-.074-.074-.35-2.97-.29-3.04z" fill="#AEC1D9"/></svg><svg fill="none" viewBox="0 0 14 12" id="tw" xmlns="http://www.w3.org/2000/svg"><path fill-rule="evenodd" clip-rule="evenodd" d="M6.263 4.345S6.5.997 8.833.968c1.9-.025 2.265.838 2.265.838a4.285 4.285 0 001.557-.862 2.551 2.551 0 01-.637 1.508c.361-.003.71-.13.99-.36a1.942 1.942 0 01-1.038 1.245 9.716 9.716 0 01-1.6 5.917c-1.7 2.469-4.792 2.653-6.488 2.674A9.047 9.047 0 01.015 10.8s2.573.032 3.725-.81a18.236 18.236 0 01-2.55-2.107c.31.026.623-.006.923-.093a13.754 13.754 0 01-2.1-2.9c.318.063.644.08.968.05 0 0-1.5-2.435-.79-4.015 0 .004 2.535 3.206 6.072 3.419z" fill="#fff"/></svg><svg fill="none" viewBox="0 0 22 22" id="up" xmlns="http://www.w3.org/2000/svg"><path d="M18.072 16.5a.786.786 0 110 1.571H3.929a.786.786 0 110-1.571h14.143zm-.786-11.786c.434 0 .786.352.786.786v3.929a.786.786 0 11-1.572 0V7.397l-4.944 4.944a.786.786 0 01-1.037.066l-.074-.066-1.802-1.801-3.373 3.373a.786.786 0 11-1.111-1.111l3.928-3.929a.786.786 0 011.112 0L11 10.675l4.388-4.39h-2.03a.786.786 0 01-.781-.693l-.005-.092c0-.434.351-.786.785-.786h3.929z" fill="#004EB7"/></svg><svg fill="none" viewBox="0 0 16 10" id="vk" xmlns="http://www.w3.org/2000/svg"><path fill-rule="evenodd" clip-rule="evenodd" d="M8.99 1.712V4.97a.34.34 0 00.426.351c.3-.02.978-2.8 1.279-3.406.16-.341.416-.629.738-.826A.608.608 0 0111.8.932h2.878a.464.464 0 01.3.728c-.225.5-2.155 3.61-2.255 3.736a1.31 1.31 0 00-.237.55 1.2 1.2 0 00.312.627c.2.226 1.816 2.005 1.967 2.155.142.164.237.363.275.576a.763.763 0 01-.8.613h-2.342a2.8 2.8 0 01-.952-.565c-.225-.2-1.059-1.152-1.184-1.277a.407.407 0 00-.351-.145c-.15 0-.435.015-.422.585.036.395-.047.792-.238 1.14a.993.993 0 01-.737.274A5 5 0 015.1 9.202C3.526 8.225 1.734 5.614.9 3.948A6.513 6.513 0 010 1.233c.05-.176.05-.3.226-.3h2.6a.836.836 0 01.351.326c.075.1.647 1.812.822 2.113.175.301 1.038 1.95 1.506 1.95a.6.6 0 00.474-.7v-2.18c-.19-.443-.539-.8-.978-1a1.261 1.261 0 01.927-.5c.6-.025 2.105-.025 2.43.024a.782.782 0 01.632.746z" fill="#fff"/></svg><svg fill="none" viewBox="0 0 38 38" id="ymoney" xmlns="http://www.w3.org/2000/svg"><circle cx="19" cy="19" r="19" fill="#8B3FFD"/><g filter="url(#bkfilter0_d_701_228)"><path fill-rule="evenodd" clip-rule="evenodd" d="M20.3 12.071c-1.471.225-2.686.863-3.742 1.966-1.088 1.136-1.639 2.2-1.94 3.749-.112.575-.12.488-.127-1.569l-.009-2.178H9l.53 1.757 1.537 5.104 1.008 3.349h2.407l.01-2.318c.005-1.537.034-2.192.086-1.944.301 1.462.579 2.174 1.2 3.077 2.037 2.962 5.94 3.814 8.945 1.953 1.14-.706 2.354-2.186 2.832-3.453.67-1.779.577-4.02-.238-5.698-1.293-2.663-4.185-4.227-7.017-3.795zm2.077 4.568c1.207.65 1.742 2.204 1.186 3.444-.9 2.006-3.485 2.078-4.527.125-.231-.433-.268-.598-.266-1.204.003-1.094.453-1.835 1.423-2.344.505-.266.622-.29 1.192-.255.398.025.765.112.992.234z" fill="#fff"/></g><defs><filter id="bkfilter0_d_701_228" x="5" y="12" width="27" height="22" filterUnits="userSpaceOnUse" color-interpolation-filters="sRGB"><feFlood flood-opacity="0" result="BackgroundImageFix"/><feColorMatrix in="SourceAlpha" values="0 0 0 0 0 0 0 0 0 0 0 0 0 0 0 0 0 0 127 0" result="hardAlpha"/><feOffset dy="4"/><feGaussianBlur stdDeviation="2"/><feComposite in2="hardAlpha" operator="out"/><feColorMatrix values="0 0 0 0 0 0 0 0 0 0 0 0 0 0 0 0 0 0 0.12 0"/><feBlend in2="BackgroundImageFix" result="effect1_dropShadow_701_228"/><feBlend in="SourceGraphic" in2="effect1_dropShadow_701_228" result="shape"/></filter></defs></svg><svg fill="none" viewBox="0 0 16 14" id="yt" xmlns="http://www.w3.org/2000/svg"><path fill-rule="evenodd" clip-rule="evenodd" d="M11.003 13.926h-7a4.177 4.177 0 01-4-4.334V5.259a4.178 4.178 0 014-4.333h7a4.178 4.178 0 014 4.334v4.333a4.177 4.177 0 01-4 4.333zm2-8.745a2.133 2.133 0 00-2-2.245h-7a2.133 2.133 0 00-2 2.245V9.67a2.133 2.133 0 002 2.245h7a2.133 2.133 0 002-2.245V5.18zm-7-.268l4 2.513-4 2.51V4.914z" fill="#fff"/></svg></svg>