<?xml version="1.0" encoding="utf-8"?><svg viewBox="0 0 63 63" xmlns="http://www.w3.org/2000/svg" xmlns:xlink="http://www.w3.org/1999/xlink"><style>:root>svg{display:none}:root>svg:target{display:block}</style><svg viewBox="0 0 11 7" id="arrow" xmlns="http://www.w3.org/2000/svg"><path fill-rule="evenodd" clip-rule="evenodd" d="M10.781 1.725L6.028 6.29a.769.769 0 01-1.056 0L.219 1.725a.697.697 0 010-1.015.769.769 0 011.056 0L5.5 4.768 9.725.71a.769.769 0 011.056 0 .697.697 0 010 1.015z"/></svg><svg viewBox="0 0 20 21" id="authorize" xmlns="http://www.w3.org/2000/svg"><path d="M7.322 11.214c3.536 0 6.607 1.26 6.607 4.03 0 1.441-.558 2.042-1.755 2.042H2.47c-1.197 0-1.755-.6-1.755-2.041 0-2.772 3.071-4.03 6.608-4.03zm0 1.429c-2.82 0-5.18.967-5.18 2.602 0 .636-.05.617.267.613h9.765c.383 0 .326.06.326-.613 0-1.634-2.36-2.602-5.178-2.602zm8.602-6.934a.714.714 0 011.01 0l2.857 2.857a.714.714 0 010 1.01l-2.857 2.858a.714.714 0 11-1.01-1.01l1.637-1.638h-4.347a.714.714 0 01-.71-.631L12.5 9.07c0-.394.32-.714.714-.714h4.347L15.924 6.72a.714.714 0 01-.06-.942l.06-.068zM7.143 2.643a3.928 3.928 0 013.929 3.928 3.928 3.928 0 01-3.93 3.929 3.928 3.928 0 01-3.928-3.929 3.928 3.928 0 013.929-3.928zm0 1.428a2.5 2.5 0 100 5 2.5 2.5 0 100-5z"/></svg><svg viewBox="0 0 16 15" id="dislike" xmlns="http://www.w3.org/2000/svg"><path fill-rule="evenodd" clip-rule="evenodd" d="M7.767 14.789a.56.56 0 01-.3-.522c0-.637-.199-1.754-.45-2.522-.456-1.398-1.02-2.046-2.35-2.704l-.4-.198V.9L4.81.725C5.523.494 5.932.382 6.433.28c1-.202 1.45-.228 3.862-.228 2.268 0 2.325.004 2.723.214.206.109.506.38.638.576.19.283.265.825.165 1.205l-.048.182.128.042c.439.142.835.567.978 1.048.07.235.073.633.007.849l-.05.16.232.1c.334.145.62.418.781.751.114.235.131.305.146.606.02.4-.057.687-.26.967-.066.093-.11.186-.098.207.012.02.06.086.104.145.045.06.124.217.175.352.082.215.092.283.08.578-.012.284-.03.368-.124.562-.204.424-.561.729-1.04.888-.23.076-.278.077-2.465.09l-2.231.011.066.13c.228.45.444 1.801.447 2.803.001.46-.01.597-.065.756-.25.723-.767 1.242-1.46 1.464-.23.074-.378.095-.75.107-.416.014-.476.009-.607-.057zM.405 9.549a.555.555 0 01-.339-.238C.003 9.217 0 9.034 0 4.813v-4.4L.08.295C.245.053.267.05 1.625.06c1.165.01 1.22.012 1.314.082.054.04.131.116.171.17.073.096.074.115.083 4.446l.01 4.35-.081.157c-.152.296-.165.299-1.467.306-.626.003-1.188-.006-1.249-.021z"/></svg><svg viewBox="0 0 18 19" id="eye" xmlns="http://www.w3.org/2000/svg"><path d="M9 4.709c3.853 0 7.393 2.93 7.393 5.143 0 2.213-3.54 5.143-7.393 5.143-3.853 0-7.393-2.93-7.393-5.143 0-2.214 3.54-5.143 7.393-5.143zm0 1.286c-3.191 0-6.107 2.413-6.107 3.857 0 1.444 2.916 3.857 6.107 3.857 3.191 0 6.107-2.413 6.107-3.857 0-1.444-2.916-3.857-6.107-3.857zM9 7.28a2.571 2.571 0 110 5.143A2.571 2.571 0 019 7.28zm0 1.286a1.286 1.286 0 100 2.572 1.286 1.286 0 000-2.572z"/></svg><svg viewBox="0 0 7 14" id="fc" xmlns="http://www.w3.org/2000/svg"><path fill-rule="evenodd" clip-rule="evenodd" d="M5.992 2.943l.312-1.98c-.8-.055-1.602-.049-2.4.018a2.25 2.25 0 00-1.427.784A2.457 2.457 0 002 3.365v2.592l-2-.015v2.007l2 .007v6l2.013-.005v-6h2.374l.31-2.007H4.013v-2.51a.562.562 0 01.671-.486c.442-.006 1.308-.005 1.308-.005z"/></svg><svg viewBox="0 0 22 23" id="info" xmlns="http://www.w3.org/2000/svg"><path d="M11 2.497a9.429 9.429 0 110 18.857 9.429 9.429 0 010-18.857zm0 1.572a7.857 7.857 0 100 15.714 7.857 7.857 0 000-15.715zm.058 6.285c.186 0 .304.03.406.084a.571.571 0 01.238.238c.054.102.084.22.084.406v4.83c0 .187-.03.304-.084.406a.572.572 0 01-.238.238.811.811 0 01-.406.084h-.116a.811.811 0 01-.406-.084.572.572 0 01-.238-.238.812.812 0 01-.084-.406v-4.83c0-.187.03-.304.084-.406a.571.571 0 01.238-.238.811.811 0 01.406-.084h.116zM11 6.897a1.1 1.1 0 110 2.2 1.1 1.1 0 010-2.2z"/></svg><svg viewBox="0 0 22 23" id="mail" xmlns="http://www.w3.org/2000/svg"><path d="M6.386 3.995l9.467.002c1.237.015 1.883.153 2.552.51.65.348 1.164.862 1.51 1.511.381.712.513 1.396.513 2.792v6.085c0 1.396-.132 2.08-.512 2.791a3.642 3.642 0 01-1.51 1.51c-.712.381-1.396.513-2.792.513H6.386c-1.396 0-2.08-.132-2.792-.512a3.642 3.642 0 01-1.51-1.51c-.38-.712-.513-1.396-.513-2.792l.002-6.324c.015-1.238.153-1.883.51-2.553a3.641 3.641 0 011.511-1.51c.712-.38 1.396-.513 2.792-.513zm12.225 2.93l-5.389 5.388a3.143 3.143 0 01-4.32.118l-.124-.118-5.39-5.389c-.18.405-.245.867-.245 1.886v6.085c0 1.158.085 1.598.327 2.05.2.376.49.665.865.866.4.214.789.305 1.67.323l.381.004h9.228c1.158 0 1.598-.085 2.05-.327.376-.2.665-.49.866-.866.214-.4.305-.788.323-1.67l.004-.38V8.81c0-1.019-.066-1.481-.246-1.886zm-2.997-1.358H6.386c-1.018 0-1.481.065-1.886.245l5.389 5.39a1.572 1.572 0 002.122.091l.1-.092 5.388-5.389c-.404-.18-.867-.245-1.885-.245z"/></svg><svg viewBox="0 0 9 5" id="min-arrow" xmlns="http://www.w3.org/2000/svg"><path fill-rule="evenodd" clip-rule="evenodd" d="M8.821 1.316L4.932 4.36a.737.737 0 01-.864 0L.179 1.316C-.06 1.13-.06.826.179.64a.737.737 0 01.864 0L4.5 3.345 7.957.64a.737.737 0 01.864 0c.239.187.239.49 0 .676z"/></svg><svg viewBox="0 0 63 63" id="money" xmlns="http://www.w3.org/2000/svg"><g filter="url(#ifilter0_d_76_530)"><path fill-rule="evenodd" clip-rule="evenodd" d="M14.993.262c-.388.173-.74.545-.89.94-.076.202-.112 3.453-.112 10.235v9.938l-4.51 2.268c-4.288 2.158-4.52 2.29-4.743 2.69l-.236.423L4.5 39.818c-.001 12.884.001 13.067.21 13.478.138.268.362.492.63.629.413.21.567.212 26.16.212s25.747-.001 26.16-.212c.268-.137.493-.361.63-.63.209-.41.212-.593.21-13.477l-.002-13.062-.235-.422c-.225-.401-.457-.533-4.743-2.69l-4.507-2.27-.029-10.095c-.028-10.01-.03-10.098-.245-10.386-.12-.16-.349-.39-.51-.51-.29-.217-.31-.217-16.605-.24-13.435-.019-16.37.002-16.63.119zm30.851 16.814v13.796l-7.172 3.587-7.172 3.586-7.172-3.586-7.172-3.587V3.28h28.688v13.797zm-31.853 10.05c0 1.16-.023 2.11-.052 2.11-.105 0-4.167-2.057-4.167-2.11 0-.06 4.005-2.095 4.14-2.105.044-.003.08.944.08 2.104zm37.18-1.084c1.13.566 2.057 1.053 2.057 1.083 0 .054-4.062 2.11-4.167 2.11-.029 0-.052-.95-.052-2.11s.023-2.11.052-2.11c.029 0 .978.462 2.11 1.027zm-35.586 7.631c4.3 2.15 7.8 3.924 7.779 3.942-.021.017-3.562 2.674-7.87 5.903L7.663 49.39v-9.813c0-5.398.024-9.814.053-9.814.029 0 3.57 1.76 7.87 3.91zm39.752 5.904v9.813l-7.831-5.872-7.87-5.903c-.041-.035 15.493-7.837 15.622-7.846.044-.003.08 4.41.08 9.808zM31.5 41.37c.436 0 .832-.16 2.724-1.102l2.215-1.101 7.832 5.876 7.832 5.876-10.301.027c-5.666.015-14.938.015-20.604 0l-10.301-.027 7.832-5.876 7.832-5.876 2.215 1.101c1.892.942 2.288 1.102 2.724 1.102z"/><path d="M30.462 8.06a2.11 2.11 0 01.51-.342c.362-.152 1.035-.064 1.356.176.59.44.699.71.737 1.817l.036 1.036 1.043.042c.839.033 1.098.083 1.328.255.957.715 1.008 1.959.108 2.62-.271.2-.486.224-2.445.272-1.967.048-2.172.071-2.445.273-.77.572-.995 1.478-.535 2.155.405.595.693.737 1.702.841 1.187.123 2.067.523 2.9 1.317.971.927 1.491 2.125 1.488 3.429-.003 1.698-1.14 3.532-2.613 4.216l-.55.256v1.056c0 .859-.041 1.143-.222 1.516-.395.817-1.336 1.096-2.14.634-.626-.359-.802-.787-.802-1.948v-.978h-.927c-1.118 0-1.733-.253-2.051-.844-.248-.46-.202-1.263.096-1.67.422-.575.75-.651 2.822-.651 1.676 0 1.942-.024 2.328-.211a1.555 1.555 0 00.711-2.109c-.288-.573-.716-.793-1.806-.927-1.824-.225-3.132-1.144-3.89-2.734-.382-.798-.395-.863-.395-1.986 0-1.122.013-1.187.394-1.986.468-.98 1.258-1.808 2.131-2.236l.587-.287v-1.1c0-1.167.089-1.477.544-1.902z"/></g><defs><filter id="ifilter0_d_76_530" x=".5" y=".137" width="62" height="62" filterUnits="userSpaceOnUse" color-interpolation-filters="sRGB"><feFlood flood-opacity="0" result="BackgroundImageFix"/><feColorMatrix in="SourceAlpha" values="0 0 0 0 0 0 0 0 0 0 0 0 0 0 0 0 0 0 127 0" result="hardAlpha"/><feOffset dy="4"/><feGaussianBlur stdDeviation="2"/><feComposite in2="hardAlpha" operator="out"/><feColorMatrix values="0 0 0 0 0 0 0 0 0 0 0 0 0 0 0 0 0 0 0.25 0"/><feBlend in2="BackgroundImageFix" result="effect1_dropShadow_76_530"/><feBlend in="SourceGraphic" in2="effect1_dropShadow_76_530" result="shape"/></filter></defs></svg><svg viewBox="0 0 22 22" id="new" xmlns="http://www.w3.org/2000/svg"><path d="M14.928.786c.434 0 .786.352.786.785v.912a4.46 4.46 0 011.517.504 4.284 4.284 0 011.782 1.782c.373.698.588 1.39.624 3.087l.006.001V13.6l-.005.479c-.032 1.744-.247 2.445-.625 3.152a4.283 4.283 0 01-1.782 1.782c-.768.411-1.53.63-3.632.63H8.4l-.479-.004c-1.744-.032-2.446-.248-3.152-.626a4.283 4.283 0 01-1.782-1.782c-.395-.737-.612-1.47-.629-3.386l-.001-5.444v-.544c.042-1.697.256-2.39.63-3.088a4.284 4.284 0 011.782-1.782c.429-.23.856-.4 1.517-.504V1.57a.786.786 0 111.57 0v.792c.171-.004.352-.006.544-.006h5.2c.192 0 .373.002.544.006l-.001-.792c0-.433.351-.785.785-.785zm3.142 8.643H3.928l.001 4.393.007.447c.03 1.184.156 1.696.436 2.221.265.495.643.873 1.138 1.138.586.313 1.157.433 2.668.443h5.643l.447-.007c1.185-.03 1.697-.156 2.222-.436a2.713 2.713 0 001.137-1.138c.314-.586.433-1.157.444-2.668V9.429zm-3.106 3.928c.34 0 .608.064.832.184.224.12.4.295.52.52.12.224.184.491.184.832v.072c0 .34-.064.608-.184.832-.12.224-.296.4-.52.52-.224.12-.491.183-.832.183h-.072c-.34 0-.608-.064-.832-.184-.224-.12-.4-.295-.52-.52-.12-.223-.183-.491-.183-.831v-.072c0-.34.064-.608.184-.832.12-.225.295-.4.52-.52.223-.12.491-.184.831-.184h.072zM13.821 3.93H8.178l-.321.004v.781a.786.786 0 11-1.571 0l-.001-.634c-.3.069-.536.165-.775.293A2.713 2.713 0 004.372 5.51c-.29.543-.414 1.072-.439 2.346l14.133.001-.002-.126c-.031-1.184-.156-1.696-.437-2.221a2.713 2.713 0 00-1.137-1.137 3.012 3.012 0 00-.775-.293v.634a.786.786 0 01-1.572 0l.002-.78c-.103-.003-.21-.004-.323-.005z"/></svg><svg viewBox="0 0 18 19" id="news" xmlns="http://www.w3.org/2000/svg"><path d="M12.214 1.495c.355 0 .643.288.643.643v.746c.54.085.89.224 1.241.412.629.336 1.122.83 1.458 1.458.306.571.481 1.138.51 2.526h.005v4.7l-.003.391c-.026 1.427-.203 2.001-.512 2.58a3.505 3.505 0 01-1.458 1.457c-.629.337-1.252.516-2.971.516H6.873l-.392-.004c-1.427-.026-2.001-.202-2.58-.512a3.505 3.505 0 01-1.457-1.458c-.323-.603-.501-1.202-.515-2.77V7.281c.034-1.389.21-1.956.515-2.527a3.505 3.505 0 011.458-1.458 3.65 3.65 0 011.24-.413v-.745a.643.643 0 011.286 0v.647c.14-.003.288-.004.445-.004h4.254c.157 0 .306.001.446.004l-.002-.647c0-.355.288-.643.643-.643zm2.571 7.072H3.215v3.594l.005.366c.025.969.128 1.388.357 1.817.217.405.527.714.931.93.48.257.947.355 2.183.363h4.618l.365-.005c.97-.025 1.389-.128 1.818-.357a2.22 2.22 0 00.93-.93c.257-.48.355-.948.363-2.184V8.567zm-2.541 3.214c.278 0 .497.052.68.15.184.098.328.242.426.425.098.184.15.403.15.681v.06c0 .277-.052.496-.15.68a1.021 1.021 0 01-.426.425c-.183.098-.402.15-.68.15h-.06c-.278 0-.497-.052-.68-.15a1.022 1.022 0 01-.425-.425 1.408 1.408 0 01-.15-.68v-.06c0-.278.052-.497.15-.68.098-.184.242-.328.425-.426.183-.098.402-.15.68-.15h.06zm-.935-7.714H6.69l-.263.003v.64a.643.643 0 01-1.285 0v-.52a2.466 2.466 0 00-.635.24 2.22 2.22 0 00-.93.93c-.238.444-.34.878-.36 1.92h11.563l-.002-.102c-.025-.969-.127-1.388-.357-1.818a2.22 2.22 0 00-.93-.93 2.467 2.467 0 00-.634-.24l-.001.52a.643.643 0 11-1.286 0l.002-.64a20.49 20.49 0 00-.264-.003z"/></svg><svg viewBox="0 0 8 14" id="ok" xmlns="http://www.w3.org/2000/svg"><path fill-rule="evenodd" clip-rule="evenodd" d="M3.618.926a3.5 3.5 0 11-.036 7 3.5 3.5 0 01.036-7zm.008 1.956a1.52 1.52 0 11-.003-.002l.003.002zm-.008 6.06a5.822 5.822 0 001.965-.357c.35-.227.725-.416 1.116-.564.22.008.583.373.52 1.317-.034.539-1.018.76-1.364.967a2.265 2.265 0 01-.724.247s.847.906 1.063 1.129c.438.32.769.765.948 1.278a1.342 1.342 0 01-1 1 4.493 4.493 0 01-1.4-1.12c-.583-.556-1.115-1.07-1.115-1.07s-.546.487-1.115 1.049a4.622 4.622 0 01-1.368 1.14 1.441 1.441 0 01-1.062-1.16 6.331 6.331 0 011.24-1.486c.25-.27.517-.523.8-.757a1.9 1.9 0 01-.637-.208C1.004 10.08-.026 9.8 0 9.304c.028-.512.159-1.3.616-1.3.39.142.765.324 1.119.542.59.27 1.233.404 1.882.394v.002z"/></svg><svg viewBox="0 0 37 36" id="rub" xmlns="http://www.w3.org/2000/svg"><circle cx="18.924" cy="18" r="18"/><path d="M18.924 7c6.076 0 11 4.925 11 11s-4.924 11-11 11c-6.075 0-11-4.925-11-11s4.925-11 11-11zm0 1.8a9.2 9.2 0 100 18.4 9.2 9.2 0 000-18.4zm1.253 4.2a3.357 3.357 0 010 6.714h-2.253V21h1.5a.75.75 0 010 1.5h-1.5v.65a.85.85 0 11-1.7 0v-.65h-.8a.75.75 0 010-1.5h.8v-1.286h-.693a.857.857 0 010-1.714h.692l.001-4.15c0-.47.38-.85.85-.85h3.103zm.033 1.571h-2.286V18h2.286a1.714 1.714 0 100-3.429z"/></svg><svg viewBox="0 0 55 55" id="sand" xmlns="http://www.w3.org/2000/svg"><path fill-rule="evenodd" clip-rule="evenodd" d="M29.65 6.984c-12.595 3.76-23.05 6.914-23.234 7.01-.383.198-.757.853-.757 1.328 0 .421.357 1.117.66 1.286.13.072 3.392 1.592 7.25 3.376 3.857 1.784 7.03 3.291 7.049 3.35.02.058-.68 2.79-1.554 6.07-.875 3.28-1.59 6.088-1.59 6.24 0 .68.603 1.372 1.291 1.484.4.065.133.13 7.071-1.718 2.946-.785 5.405-1.41 5.464-1.391.058.02 1.566 3.193 3.35 7.051 1.783 3.859 3.302 7.122 3.374 7.253.169.302.865.66 1.286.66.55 0 1.142-.377 1.375-.875C40.968 47.503 54.5 2.01 54.5 1.662c0-.771-.818-1.548-1.604-1.524-.191.005-10.652 3.086-23.247 6.846zm8.405 7.324l-9.218 9.221-.328-.14c-2.183-.928-16.737-7.754-16.623-7.794.085-.03 1.84-.555 3.9-1.167 2.06-.612 9.94-2.961 17.51-5.22 7.572-2.26 13.814-4.112 13.872-4.115.058-.003-4.043 4.143-9.113 9.215zM44.32 25.04a9426.729 9426.729 0 01-5.281 17.714c-.03.085-1.831-3.69-4.001-8.39l-3.945-8.543 9.194-9.202c5.057-5.061 9.209-9.188 9.227-9.17.018.018-2.32 7.934-5.194 17.591zm-17.513 1.057l1.185.54 1.003 2.177c.552 1.198.995 2.188.986 2.201-.016.02-6.555 1.776-8.09 2.171l-.595.153.088-.33c1.334-4.995 2.209-8.298 2.209-8.34 0-.03.457.158 1.015.417.558.259 1.548.714 2.2 1.011z"/><path d="M.694 41.724c.24-.462 7.931-8.156 8.393-8.396.717-.373 1.685-.059 2.056.668.266.523.269.957.008 1.458-.252.484-7.949 8.168-8.414 8.4-.729.364-1.664.055-2.035-.672-.267-.523-.27-.957-.008-1.458zM3.33 49.216c.241-.463 8.671-8.895 9.133-9.135.717-.373 1.685-.059 2.055.668.267.523.27.957.009 1.458-.252.485-8.687 8.907-9.153 9.14-.729.363-1.664.053-2.035-.674-.266-.523-.269-.957-.008-1.457zM10.82 51.854c.241-.462 7.932-8.156 8.394-8.396.717-.374 1.685-.059 2.056.668.266.523.269.957.008 1.458-.252.484-7.949 8.168-8.414 8.4-.729.364-1.664.054-2.035-.672-.267-.523-.27-.958-.009-1.458z"/></svg><svg viewBox="0 0 24 25" id="search" xmlns="http://www.w3.org/2000/svg"><path d="M11.143 4.357a7.286 7.286 0 015.722 11.796l3.884 3.884a.857.857 0 11-1.212 1.212l-3.884-3.884a7.286 7.286 0 11-4.51-13.008zm0 1.714a5.571 5.571 0 100 11.143 5.571 5.571 0 000-11.143z"/></svg><svg viewBox="0 0 36 37" id="searching" xmlns="http://www.w3.org/2000/svg"><circle cx="18" cy="18.5" r="18"/><path d="M17.143 10.357a7.286 7.286 0 015.722 11.796l3.884 3.884a.857.857 0 01-1.212 1.212l-3.884-3.884a7.286 7.286 0 11-4.51-13.008zm0 1.714a5.571 5.571 0 100 11.143 5.571 5.571 0 000-11.143z"/></svg><svg viewBox="0 0 22 22" id="security" xmlns="http://www.w3.org/2000/svg"><path d="M14.083 2.357c1.538.016 2.321.182 3.133.616a4.355 4.355 0 011.808 1.808c.434.812.6 1.595.616 3.133v6.17c-.016 1.538-.182 2.32-.616 3.133a4.356 4.356 0 01-1.808 1.807c-.812.434-1.595.6-3.133.616h-6.17c-1.538-.016-2.32-.182-3.132-.616a4.356 4.356 0 01-1.808-1.807c-.434-.812-.6-1.595-.616-3.134V7.914c.016-1.538.182-2.321.616-3.133a4.355 4.355 0 011.808-1.808c.811-.434 1.594-.6 3.133-.616h6.169zm-.264 1.57H8.178l-.438.004c-1.163.022-1.683.142-2.218.428-.504.27-.894.66-1.163 1.163-.286.535-.406 1.056-.428 2.218l-.004.438v5.642l.004.438c.022 1.162.142 1.682.428 2.218.269.503.66.893 1.163 1.162.535.286 1.055.406 2.218.428l.438.004h5.641l.438-.004c1.163-.022 1.683-.142 2.218-.428.504-.269.894-.66 1.163-1.163.286-.535.406-1.055.428-2.217l.004-.438V8.178l-.004-.438c-.022-1.162-.142-1.683-.428-2.218a2.784 2.784 0 00-1.163-1.163c-.535-.286-1.055-.406-2.218-.428l-.438-.004zm.043 4.475a.786.786 0 111.111 1.11l-4.4 4.4a.786.786 0 01-1.11 0L7.418 11.87a.786.786 0 011.111-1.111l1.488 1.487 3.844-3.844z"/></svg><svg data-name="Layer 1" viewBox="0 0 48 48" id="show-podbor" xmlns="http://www.w3.org/2000/svg"><path d="M47 12a2 2 0 00-2-2H24a2 2 0 000 4h21a2 2 0 002-2zM3 14h5.35a6 6 0 100-4H3a2 2 0 000 4zm11-4a2 2 0 11-2 2 2 2 0 012-2zM45 22h-7.35a6 6 0 100 4H45a2 2 0 000-4zm-13 4a2 2 0 112-2 2 2 0 01-2 2zM22 22H3a2 2 0 000 4h19a2 2 0 000-4zM45 34H28a2 2 0 000 4h17a2 2 0 000-4zM18 30a6 6 0 00-5.65 4H3a2 2 0 000 4h9.35A6 6 0 1018 30zm0 8a2 2 0 112-2 2 2 0 01-2 2z"/></svg><svg viewBox="0 0 16 15" id="star" xmlns="http://www.w3.org/2000/svg"><path d="M7.524.464a.5.5 0 01.952 0l1.432 4.41a.5.5 0 00.476.345h4.637a.5.5 0 01.294.904L11.563 8.85a.5.5 0 00-.181.559l1.433 4.41a.5.5 0 01-.77.559L8.294 11.65a.5.5 0 00-.588 0l-3.751 2.726a.5.5 0 01-.77-.56l1.433-4.41a.5.5 0 00-.181-.558L.685 6.123A.5.5 0 01.98 5.22h4.637a.5.5 0 00.476-.346L7.524.463z"/></svg><svg viewBox="0 0 15 13" id="tg" xmlns="http://www.w3.org/2000/svg"><path fill-rule="evenodd" clip-rule="evenodd" d="M12.004 12.033a1 1 0 01-1.78.53c-1.09-.868-2.79-2.116-2.79-2.116s-1.23 2.167-1.45 2.39a.682.682 0 01-1-.134.863.863 0 00-.04-.1l.69-3.452 4.92-4.833-6.71 3.83S.814 7.24.364 7.063a.7.7 0 01.07-1.262c.64-.326 11.93-4.638 12.31-4.749.38-.11 1.38-.4 1.27.573-.11.973-1.9 9.873-2.01 10.407z"/></svg><svg viewBox="0 0 54 54" id="touch" xmlns="http://www.w3.org/2000/svg"><path fill-rule="evenodd" clip-rule="evenodd" d="M21.986 8.184c-1.188.319-2.328 1.206-2.898 2.252-.598 1.098-.59.96-.592 12.027l-.002 10.174-.956-1.42c-1.096-1.627-1.31-1.871-2.092-2.39-1.808-1.201-4.233-1.21-6.012-.022-1.19.795-2.038 2.022-2.335 3.38-.197.897-.09 2.328.231 3.113.296.721 8.375 13.535 9.183 14.563 1.472 1.874 3.721 3.266 6.306 3.904 1.02.251 11.587.328 13.132.095 4.775-.72 8.408-4.03 9.792-8.921.22-.776.225-.991.257-9.333.032-8.29.027-8.558-.178-9.233-.73-2.402-3.212-3.686-5.823-3.011-.24.062-.286.033-.35-.227-.186-.754-1.29-2.012-2.15-2.451-1.011-.516-2.239-.66-3.291-.387-.317.082-.577.141-.577.131 0-.01-.135-.287-.3-.616-.338-.68-1.28-1.635-1.947-1.975-.989-.504-2.37-.656-3.37-.37l-.238.068V14.89c0-1.557-.048-2.873-.118-3.203-.542-2.552-3.17-4.176-5.672-3.503zm1.862 3.208c.19.115.438.364.554.553.204.335.21.547.21 8.44v8.095h3.164v-3.402c0-3.03.021-3.441.185-3.763.278-.544.69-.799 1.292-.799.603 0 1.015.255 1.292.799.164.322.185.733.185 3.763v3.402h3.164v-2.014c0-1.596.034-2.084.162-2.347.492-1.012 1.954-1.052 2.525-.07.191.33.218.588.249 2.403l.034 2.034 1.548-.03 1.548-.029.064-.668c.053-.556.117-.721.381-.986.579-.579 1.49-.572 2.077.014l.326.326.03 8.04c.026 7.136.01 8.131-.144 8.833-.691 3.16-3.049 5.641-6.238 6.566-.808.234-.912.238-6.675.238-6.26 0-6.196.004-7.595-.552-1.057-.42-1.906-1.009-2.756-1.911-.635-.674-1.537-2.025-4.92-7.372-2.278-3.602-4.194-6.698-4.258-6.88-.184-.528-.068-1.506.231-1.948.738-1.089 2.293-1.378 3.262-.606.223.177 1.874 2.524 4.116 5.85l3.745 5.554.052-15.39c.053-15.358.054-15.39.272-15.687.464-.633 1.302-.832 1.918-.456z"/><path d="M15.107 5.148a1.558 1.558 0 01.093-2.19c.623-.578 1.166-1.04 1.207-1.028.041.012.72.73 1.509 1.595 1.375 1.51 1.425 1.581 1.243 1.759-.51.496-2.095 1.889-2.15 1.889-.034 0-.71-.713-1.501-1.583l-.401-.442zM11.486 10.443c.076-.725.14-1.402.145-1.503.004-.102.066-.185.139-.186.533-.002 4.053.363 4.125.428.05.045.033.74-.04 1.568l-.105 1.178a.338.338 0 01-.337.308c-.606 0-3.934-.338-3.998-.405-.036-.039-.004-.663.072-1.388zM21.48 2.821l-.008-.632-.008-.605A1.564 1.564 0 0123.028 0c.875 0 1.584.71 1.584 1.584V2.88c0 .854-.701 1.543-1.556 1.527A1.606 1.606 0 0121.48 2.82zM26.722 5.095c0-.027.646-.758 1.437-1.625 1.248-1.368 1.46-1.558 1.609-1.442.394.306 2.122 1.913 2.122 1.973 0 .084-2.736 3.108-2.852 3.152-.082.03-2.316-1.954-2.316-2.058zM30.069 9.177c.025-.03.837-.13 1.804-.224.967-.095 1.93-.178 2.14-.185a.403.403 0 01.415.368l.1 1.152c.073.843.114 1.551.092 1.573-.07.07-4.202.414-4.262.355-.074-.074-.35-2.97-.29-3.04z"/></svg><svg viewBox="0 0 14 12" id="tw" xmlns="http://www.w3.org/2000/svg"><path fill-rule="evenodd" clip-rule="evenodd" d="M6.263 4.345S6.5.997 8.833.968c1.9-.025 2.265.838 2.265.838a4.285 4.285 0 001.557-.862 2.551 2.551 0 01-.637 1.508c.361-.003.71-.13.99-.36a1.942 1.942 0 01-1.038 1.245 9.716 9.716 0 01-1.6 5.917c-1.7 2.469-4.792 2.653-6.488 2.674A9.047 9.047 0 01.015 10.8s2.573.032 3.725-.81a18.236 18.236 0 01-2.55-2.107c.31.026.623-.006.923-.093a13.754 13.754 0 01-2.1-2.9c.318.063.644.08.968.05 0 0-1.5-2.435-.79-4.015 0 .004 2.535 3.206 6.072 3.419z"/></svg></svg>